SplineFontDB: 3.2
FontName: NilesoftShell
FullName: Nilesoft.Shell
FamilyName: Nilesoft.Shell
Weight: Regular
Copyright: 
Version: 1.0
DefaultBaseFilename: Shell
ItalicAngle: 0
UnderlinePosition: -100
UnderlineWidth: 50
Ascent: 2048
Descent: 0
InvalidEm: 0
sfntRevision: 0x00010000
UFOAscent: 2048
LayerCount: 2
Layer: 0 1 "Back" 1
Layer: 1 1 "Fore" 0 "glyphs"
StyleMap: 0x0040
FSType: 8
OS2Version: 3
OS2_WeightWidthSlopeOnly: 0
OS2_UseTypoMetrics: 0
CreationTime: 1638888873
ModificationTime: 1674107821
PfmFamily: 81
TTFWeight: 400
TTFWidth: 5
LineGap: 0
VLineGap: 0
Panose: 5 10 1 2 1 1 1 1 1 1
OS2TypoAscent: 2048
OS2TypoAOffset: 0
OS2TypoDescent: 0
OS2TypoDOffset: 0
OS2TypoLinegap: 0
OS2WinAscent: 2048
OS2WinAOffset: 0
OS2WinDescent: 0
OS2WinDOffset: 0
HheadAscent: 2048
HheadAOffset: 0
HheadDescent: 0
HheadDOffset: 0
OS2SubXSize: 1331
OS2SubYSize: 1228
OS2SubXOff: 0
OS2SubYOff: 153
OS2SupXSize: 1331
OS2SupYSize: 1228
OS2SupXOff: 0
OS2SupYOff: 716
OS2StrikeYSize: 102
OS2StrikeYPos: 530
OS2CapHeight: 2048
OS2XHeight: 1024
OS2Vendor: 'MS  '
OS2CodePages: 80000000.00000000
OS2UnicodeRanges: 00000000.10000000.00000000.00000000
MarkAttachClasses: 1
DEI: 91125
LangName: 1033 "" "" "" "" "" "1.0" "" "" "" "" "" "" "" "" "" "" "Nilesoft.Shell" "Regular" "" "+4Jfgl+CX4Jfgl+CX4JcA"
GaspTable: 2 8 8 65535 15 1
PickledDataWithLists: "(dp0
Vpublic.glyphOrder\\u000d\\u000d\\u000d\\u000d\\u000d\\u000d\\u000d\\u000d\\u000d\\u000d\\u000d\\u000d\\u000d\\u000d\\u000d\\u000d\\u000d\\u000d\\u000d\\u000d\\u000d\\u000d\\u000d\\u000d\\u000d\\u000d\\u000d
p1
(lp2
V.notdef\\u000d\\u000d\\u000d\\u000d\\u000d\\u000d\\u000d\\u000d\\u000d\\u000d\\u000d\\u000d\\u000d\\u000d\\u000d\\u000d\\u000d\\u000d\\u000d\\u000d\\u000d\\u000d\\u000d\\u000d\\u000d\\u000d\\u000d
p3
aVuE000\\u000d\\u000d\\u000d\\u000d\\u000d\\u000d\\u000d\\u000d\\u000d\\u000d\\u000d\\u000d\\u000d\\u000d\\u000d\\u000d\\u000d\\u000d\\u000d\\u000d\\u000d\\u000d\\u000d\\u000d\\u000d\\u000d\\u000d
p4

StartChar: uE001
Encoding: 2 57345 2
GlifName: uE_001
Width: 2048
VWidth: 0
Flags: W
LayerCount: 2
Fore
SplineSet
256 960 m 128,-1,1
 256 986 256 986 275 1005 c 128,-1,2
 294 1024 294 1024 320 1024 c 128,-1,3
 346 1024 346 1024 365 1005 c 257,4,-1
 768 603 l 257,5,-1
 1683 1517 l 257,6,7
 1702 1536 1702 1536 1728 1536 c 128,-1,8
 1754 1536 1754 1536 1773 1517 c 128,-1,9
 1792 1498 1792 1498 1792 1472 c 128,-1,10
 1792 1446 1792 1446 1773 1427 c 257,11,-1
 813 467 l 257,12,13
 794 448 794 448 768 448 c 128,-1,14
 742 448 742 448 723 467 c 257,15,-1
 275 915 l 257,16,0
 256 934 256 934 256 960 c 128,-1,1
  PathStart: -1
EndSplineSet
Validated: 1
EndChar

StartChar: uE002
Encoding: 3 57346 3
GlifName: uE_002
Width: 2048
VWidth: 0
Flags: W
LayerCount: 2
Fore
SplineSet
678.400390625 1024 m 257,0,-1
 678.400390625 1031.20019531 l 257,1,2
 678.400390625 1101.40039062 678.400390625 1101.40039062 706.299804688 1162.59960938 c 128,-1,3
 734.200195312 1223.79980469 734.200195312 1223.79980469 781.900390625 1270.59960938 c 128,-1,4
 829.599609375 1317.40039062 829.599609375 1317.40039062 892.599609375 1343.5 c 128,-1,5
 955.599609375 1369.59960938 955.599609375 1369.59960938 1024 1369.59960938 c 257,6,7
 1096 1369.59960938 1096 1369.59960938 1159 1342.59960938 c 128,-1,8
 1222 1315.59960938 1222 1315.59960938 1268.79980469 1268.79980469 c 128,-1,9
 1315.59960938 1222 1315.59960938 1222 1342.59960938 1159 c 128,-1,10
 1369.59960938 1096 1369.59960938 1096 1369.59960938 1024 c 128,-1,11
 1369.59960938 952 1369.59960938 952 1342.59960938 889 c 128,-1,12
 1315.59960938 826 1315.59960938 826 1268.79980469 779.200195312 c 128,-1,13
 1222 732.400390625 1222 732.400390625 1159 705.400390625 c 128,-1,14
 1096 678.400390625 1096 678.400390625 1024 678.400390625 c 128,-1,15
 952 678.400390625 952 678.400390625 889 705.400390625 c 128,-1,16
 826 732.400390625 826 732.400390625 779.200195312 779.200195312 c 128,-1,17
 732.400390625 826 732.400390625 826 705.400390625 889 c 128,-1,18
 678.400390625 952 678.400390625 952 678.400390625 1024 c 257,0,-1
EndSplineSet
Validated: 1
EndChar

StartChar: uE003
Encoding: 4 57347 4
GlifName: uE_003
Width: 2048
Flags: W
LayerCount: 2
Fore
SplineSet
1331.29980469 324.700195312 m 1,0,-1
 1416 409.400390625 l 1,1,-1
 801.400390625 1024 l 1,2,-1
 1416 1638.59960938 l 1,3,-1
 1331.29980469 1723.29980469 l 1,4,-1
 632 1024 l 1,5,-1
 1331.29980469 324.700195312 l 1,0,-1
EndSplineSet
Validated: 9
EndChar

StartChar: uE004
Encoding: 5 57348 5
GlifName: uE_004
Width: 2048
Flags: W
LayerCount: 2
Fore
SplineSet
716.700195312 324.700195312 m 1,0,-1
 632 409.400390625 l 1,1,-1
 1246.59960938 1024 l 1,2,-1
 632 1638.59960938 l 1,3,-1
 716.700195312 1723.29980469 l 1,4,-1
 1416 1024 l 1,5,-1
 716.700195312 324.700195312 l 1,0,-1
EndSplineSet
Validated: 1
EndChar

StartChar: uE005
Encoding: 6 57349 6
GlifName: uE_005
Width: 2048
VWidth: 0
Flags: W
LayerCount: 2
Fore
SplineSet
567 1054 m 257,0,1
 566.830033782 1053.32013513 566.830033782 1053.32013513 566.830033782 1052.82583054 c 0,2,3
 566.830033782 1051.50907765 566.830033782 1051.50907765 568.036129786 1051.50907765 c 0,4,5
 595.323423862 1051.50907765 595.323423862 1051.50907765 1239.97153807 1725.51151379 c 0,6,7
 1292 1780 1292 1780 1292 1780 c 257,8,9
 1304 1792 1304 1792 1323 1792 c 257,10,11
 1341 1792 1341 1792 1353 1780 c 128,-1,12
 1365 1768 1365 1768 1365 1750 c 257,13,14
 1365 1731 1365 1731 1353 1719 c 257,15,-1
 658 1024 l 257,16,-1
 1353 329 l 257,17,18
 1365 317 1365 317 1365 299 c 128,-1,19
 1365 281 1365 281 1353 268 c 0,20,21
 1341.85714286 255.928571429 1341.85714286 255.928571429 1325.54081633 255.928571429 c 0,22,23
 1324.28571429 255.928571429 1324.28571429 255.928571429 1323 256 c 257,24,25
 1304 256 1304 256 1292 268 c 257,26,-1
 567 994 l 257,27,28
 555 1006 555 1006 555 1024 c 128,-1,29
 555 1042 555 1042 567 1054 c 257,0,1
  PathStart: -2
EndSplineSet
Validated: 1
EndChar

StartChar: uE006
Encoding: 7 57350 7
GlifName: uE_006
Width: 2048
VWidth: 0
Flags: W
LayerCount: 2
Fore
SplineSet
683 299 m 257,0,1
 683 317 683 317 695 329 c 257,2,-1
 1390 1024 l 257,3,-1
 695 1719 l 257,4,5
 683 1731 683 1731 683 1750 c 257,6,7
 683 1768 683 1768 696 1780 c 128,-1,8
 709 1792 709 1792 726 1792 c 128,-1,9
 743 1792 743 1792 756 1780 c 257,10,-1
 1481 1054 l 257,11,12
 1493 1042 1493 1042 1493 1024 c 128,-1,13
 1493 1006 1493 1006 1481 994 c 257,14,-1
 756 268 l 257,15,16
 744 256 744 256 726 256 c 257,17,18
 707 256 707 256 695 268 c 128,-1,19
 683 280 683 280 683 299 c 257,0,1
EndSplineSet
Validated: 1
EndChar

StartChar: uE007
Encoding: 8 57351 8
GlifName: uE_007
Width: 2048
VWidth: 0
Flags: W
LayerCount: 2
Fore
SplineSet
595 1069 m 261,0,1
 594.586192097 1067.4536652 594.586192097 1067.4536652 594.586192097 1066.3746392 c 0,2,3
 594.586192097 1063.88314501 594.586192097 1063.88314501 596.792442041 1063.88314501 c 0,4,5
 630.92603542 1063.88314501 630.92603542 1063.88314501 1193.15128953 1660.25134307 c 4,6,7
 1299 1773 1299 1773 1299 1773 c 261,8,9
 1318 1792 1318 1792 1344 1792 c 132,-1,10
 1370 1792 1370 1792 1389 1773 c 132,-1,11
 1408 1754 1408 1754 1408 1728 c 132,-1,12
 1408 1702 1408 1702 1389 1683 c 261,13,-1
 731 1024 l 261,14,-1
 1389 365 l 261,15,16
 1408 346 1408 346 1408 320 c 132,-1,17
 1408 294 1408 294 1389 275 c 132,-1,18
 1370 256 1370 256 1344 256 c 132,-1,19
 1318 256 1318 256 1299 275 c 261,20,-1
 595 979 l 261,21,22
 576 998 576 998 576 1024 c 132,-1,23
 576 1050 576 1050 595 1069 c 261,0,1
  PathStart: -2
EndSplineSet
Validated: 1
EndChar

StartChar: uE008
Encoding: 9 57352 9
GlifName: uE_008
Width: 2048
VWidth: 0
Flags: W
LayerCount: 2
Fore
SplineSet
659 365 m 257,0,1
 658.558680902 363.350860213 658.558680902 363.350860213 658.558680902 362.204525014 c 0,2,3
 658.558680902 359.591015865 658.558680902 359.591015865 660.852596926 359.591015865 c 0,4,5
 694.383708711 359.591015865 694.383708711 359.591015865 1218.05284034 918.016078459 c 0,6,7
 1317 1024 1317 1024 1317 1024 c 257,8,-1
 659 1683 l 257,9,10
 640 1702 640 1702 640 1728 c 128,-1,11
 640 1754 640 1754 659 1773 c 128,-1,12
 678 1792 678 1792 704 1792 c 128,-1,13
 730 1792 730 1792 749 1773 c 257,14,-1
 1453 1069 l 257,15,16
 1472 1050 1472 1050 1472 1024 c 128,-1,17
 1472 998 1472 998 1453 979 c 257,18,-1
 749 275 l 257,19,20
 730 256 730 256 704 256 c 128,-1,21
 678 256 678 256 659 275 c 128,-1,22
 640 294 640 294 640 320 c 128,-1,23
 640 346 640 346 659 365 c 257,0,1
  PathStart: -2
EndSplineSet
Validated: 1
EndChar

StartChar: uE009
Encoding: 10 57353 10
GlifName: uE_009
Width: 2048
VWidth: 0
Flags: W
LayerCount: 2
Fore
SplineSet
275 749 m 257,0,1
 274.586192097 747.453665204 274.586192097 747.453665204 274.586192097 746.374639195 c 0,2,3
 274.586192097 743.883145007 274.586192097 743.883145007 276.792442041 743.883145007 c 0,4,5
 310.926035419 743.883145007 310.926035419 743.883145007 873.151289529 1340.25134307 c 0,6,7
 979 1453 979 1453 979 1453 c 257,8,9
 998 1472 998 1472 1024 1472 c 128,-1,10
 1050 1472 1050 1472 1069 1453 c 257,11,-1
 1773 749 l 257,12,13
 1792 730 1792 730 1792 704 c 128,-1,14
 1792 678 1792 678 1773 659 c 128,-1,15
 1754 640 1754 640 1728 640 c 128,-1,16
 1702 640 1702 640 1683 659 c 257,17,-1
 1024 1317 l 257,18,-1
 365 659 l 257,19,20
 346 640 346 640 320 640 c 128,-1,21
 294 640 294 640 275 659 c 128,-1,22
 256 678 256 678 256 704 c 128,-1,23
 256 730 256 730 275 749 c 257,0,1
  PathStart: -2
EndSplineSet
Validated: 1
EndChar

StartChar: uE00A
Encoding: 11 57354 11
GlifName: uE_00A_
Width: 2048
VWidth: 0
Flags: W
LayerCount: 2
Fore
SplineSet
256 1344 m 128,-1,1
 256 1370 256 1370 275 1389 c 128,-1,2
 294 1408 294 1408 320 1408 c 128,-1,3
 346 1408 346 1408 365 1389 c 257,4,-1
 1024 731 l 257,5,-1
 1683 1389 l 257,6,7
 1702 1408 1702 1408 1728 1408 c 128,-1,8
 1754 1408 1754 1408 1773 1389 c 128,-1,9
 1792 1370 1792 1370 1792 1344 c 128,-1,10
 1792 1318 1792 1318 1773 1299 c 257,11,-1
 1069 595 l 257,12,13
 1050 576 1050 576 1024 576 c 128,-1,14
 998 576 998 576 979 595 c 257,15,-1
 275 1299 l 257,16,0
 256 1318 256 1318 256 1344 c 128,-1,1
  PathStart: -1
EndSplineSet
Validated: 1
EndChar

StartChar: uE00B
Encoding: 12 57355 12
GlifName: uE_00B_
Width: 2048
VWidth: 0
Flags: W
LayerCount: 2
Fore
SplineSet
704 0 m 257,0,1
 611 0 611 0 529 35 c 128,-1,2
 447 70 447 70 387 131 c 128,-1,3
 327 192 327 192 291 273 c 0,4,5
 255.972972973 351.810810811 255.972972973 351.810810811 255.972972973 442.928414901 c 0,6,7
 255.972972973 445.459459459 255.972972973 445.459459459 256 448 c 257,8,-1
 256 1536 l 257,9,10
 256 1605 256 1605 290 1663 c 128,-1,11
 324 1721 324 1721 384 1756 c 257,12,-1
 384 448 l 257,13,14
 384 382 384 382 409 324 c 128,-1,15
 434 266 434 266 478 222 c 128,-1,16
 522 178 522 178 580 153 c 128,-1,17
 638 128 638 128 704 128 c 257,18,-1
 1500 128 l 257,19,20
 1465 69 1465 69 1407 34 c 0,21,22
 1350.61111111 -0.0277777777778 1350.61111111 -0.0277777777778 1283.82484568 -0.0277777777778 c 0,23,24
 1281.91666667 -0.0277777777778 1281.91666667 -0.0277777777778 1280 0 c 257,25,-1
 704 0 l 257,0,1
EndSplineSet
Validated: 1
EndChar

StartChar: uE00C
Encoding: 13 57356 13
GlifName: uE_00C_
Width: 2048
VWidth: 0
Flags: W
LayerCount: 2
Fore
SplineSet
763 256 m 257,0,1
 713 256 713 256 667 276 c 128,-1,2
 621 296 621 296 588 332 c 128,-1,3
 555 368 555 368 532 411 c 0,4,5
 511.653846154 449.038461538 511.653846154 449.038461538 511.653846154 494.902366864 c 0,6,7
 511.653846154 500.884615385 511.653846154 500.884615385 512 507 c 257,8,-1
 512 1797 l 257,9,10
 512 1847 512 1847 532 1893 c 128,-1,11
 552 1939 552 1939 588 1972 c 128,-1,12
 624 2005 624 2005 667 2028 c 0,13,14
 705.038461538 2048.34615385 705.038461538 2048.34615385 750.902366864 2048.34615385 c 0,15,16
 756.884615385 2048.34615385 756.884615385 2048.34615385 763 2048 c 257,17,-1
 1541 2048 l 257,18,19
 1591 2048 1591 2048 1637 2028 c 128,-1,20
 1683 2008 1683 2008 1716 1972 c 128,-1,21
 1749 1936 1749 1936 1772 1893 c 0,22,23
 1792.34615385 1854.96153846 1792.34615385 1854.96153846 1792.34615385 1809.09763314 c 0,24,25
 1792.34615385 1803.11538462 1792.34615385 1803.11538462 1792 1797 c 257,26,-1
 1792 507 l 257,27,28
 1792 457 1792 457 1772 411 c 128,-1,29
 1752 365 1752 365 1716 332 c 128,-1,30
 1680 299 1680 299 1637 276 c 0,31,32
 1598.96153846 255.653846154 1598.96153846 255.653846154 1553.09763314 255.653846154 c 0,33,34
 1547.11538462 255.653846154 1547.11538462 255.653846154 1541 256 c 257,35,-1
 763 256 l 257,0,1
1536 384 m 257,36,37
 1563 384 1563 384 1586 394 c 128,-1,38
 1609 404 1609 404 1627 421 c 128,-1,39
 1645 438 1645 438 1654 462 c 128,-1,40
 1663 486 1663 486 1664 512 c 257,41,-1
 1664 1792 l 257,42,43
 1664 1818 1664 1818 1654 1842 c 128,-1,44
 1644 1866 1644 1866 1627 1883 c 128,-1,45
 1610 1900 1610 1900 1586 1910 c 128,-1,46
 1562 1920 1562 1920 1536 1920 c 257,47,-1
 768 1920 l 257,48,49
 741 1920 741 1920 718 1910 c 128,-1,50
 695 1900 695 1900 677 1883 c 128,-1,51
 659 1866 659 1866 650 1842 c 128,-1,52
 641 1818 641 1818 640 1792 c 257,53,-1
 640 512 l 257,54,55
 640 485 640 485 650 461 c 128,-1,56
 660 437 660 437 677 421 c 128,-1,57
 694 405 694 405 717 394 c 0,58,59
 738.083333333 383.916666667 738.083333333 383.916666667 763.368055556 383.916666667 c 0,60,61
 765.666666667 383.916666667 765.666666667 383.916666667 768 384 c 257,62,-1
 1536 384 l 257,36,37
EndSplineSet
Validated: 1
EndChar

StartChar: uE00D
Encoding: 14 57357 14
GlifName: uE_00D_
Width: 2048
VWidth: 0
Flags: W
LayerCount: 2
Fore
SplineSet
256 1408 m 257,0,1
 229 1408 229 1408 205 1418 c 128,-1,2
 181 1428 181 1428 165 1445 c 128,-1,3
 149 1462 149 1462 138 1485 c 128,-1,4
 127 1508 127 1508 128 1536 c 257,5,-1
 128 1792 l 257,6,7
 128 1819 128 1819 138 1842 c 128,-1,8
 148 1865 148 1865 165 1883 c 128,-1,9
 182 1901 182 1901 206 1910 c 128,-1,10
 230 1919 230 1919 256 1920 c 257,11,-1
 512 1920 l 257,12,13
 538 1920 538 1920 562 1910 c 128,-1,14
 586 1900 586 1900 603 1883 c 128,-1,15
 620 1866 620 1866 630 1842 c 128,-1,16
 640 1818 640 1818 640 1792 c 257,17,-1
 640 1536 l 257,18,19
 640 1509 640 1509 630 1486 c 128,-1,20
 620 1463 620 1463 603 1445 c 128,-1,21
 586 1427 586 1427 562 1418 c 128,-1,22
 538 1409 538 1409 512 1408 c 257,23,-1
 256 1408 l 257,0,1
256 1792 m 257,24,-1
 256 1536 l 257,25,-1
 512 1536 l 257,26,-1
 512 1792 l 257,27,-1
 256 1792 l 257,24,-1
832 1664 m 257,28,29
 806 1664 806 1664 787 1683 c 128,-1,30
 768 1702 768 1702 768 1728 c 128,-1,31
 768 1754 768 1754 787 1773 c 128,-1,32
 806 1792 806 1792 832 1792 c 257,33,-1
 1856 1792 l 257,34,35
 1882 1792 1882 1792 1901 1773 c 128,-1,36
 1920 1754 1920 1754 1920 1728 c 128,-1,37
 1920 1702 1920 1702 1901 1683 c 128,-1,38
 1882 1664 1882 1664 1856 1664 c 257,39,-1
 832 1664 l 257,28,29
256 768 m 257,40,41
 229 768 229 768 205 778 c 128,-1,42
 181 788 181 788 165 805 c 128,-1,43
 149 822 149 822 138 845 c 128,-1,44
 127 868 127 868 128 896 c 257,45,-1
 128 1152 l 257,46,47
 128 1179 128 1179 138 1202 c 128,-1,48
 148 1225 148 1225 165 1243 c 128,-1,49
 182 1261 182 1261 206 1270 c 128,-1,50
 230 1279 230 1279 256 1280 c 257,51,-1
 512 1280 l 257,52,53
 538 1280 538 1280 562 1270 c 128,-1,54
 586 1260 586 1260 603 1243 c 128,-1,55
 620 1226 620 1226 630 1202 c 128,-1,56
 640 1178 640 1178 640 1152 c 257,57,-1
 640 896 l 257,58,59
 640 869 640 869 630 846 c 128,-1,60
 620 823 620 823 603 805 c 128,-1,61
 586 787 586 787 562 778 c 128,-1,62
 538 769 538 769 512 768 c 257,63,-1
 256 768 l 257,40,41
256 1152 m 257,64,-1
 256 896 l 257,65,-1
 512 896 l 257,66,-1
 512 1152 l 257,67,-1
 256 1152 l 257,64,-1
832 1024 m 257,68,69
 806 1024 806 1024 787 1043 c 128,-1,70
 768 1062 768 1062 768 1088 c 128,-1,71
 768 1114 768 1114 787 1133 c 128,-1,72
 806 1152 806 1152 832 1152 c 257,73,-1
 1014 1152 l 257,74,75
 979 1124 979 1124 947 1092 c 128,-1,76
 915 1060 915 1060 888 1024 c 257,77,-1
 832 1024 l 257,68,69
256 128 m 257,78,79
 229 128 229 128 205 138 c 128,-1,80
 181 148 181 148 165 165 c 128,-1,81
 149 182 149 182 138 205 c 128,-1,82
 127 228 127 228 128 256 c 257,83,-1
 128 512 l 257,84,85
 128 539 128 539 138 562 c 128,-1,86
 148 585 148 585 165 603 c 128,-1,87
 182 621 182 621 206 630 c 128,-1,88
 230 639 230 639 256 640 c 257,89,-1
 512 640 l 257,90,91
 538 640 538 640 562 630 c 128,-1,92
 586 620 586 620 603 603 c 128,-1,93
 620 586 620 586 630 562 c 128,-1,94
 640 538 640 538 640 512 c 257,95,-1
 640 256 l 257,96,97
 640 229 640 229 630 206 c 128,-1,98
 620 183 620 183 603 165 c 128,-1,99
 586 147 586 147 562 138 c 128,-1,100
 538 129 538 129 512 128 c 257,101,-1
 256 128 l 257,78,79
256 512 m 257,102,-1
 256 256 l 257,103,-1
 512 256 l 257,104,-1
 512 512 l 257,105,-1
 256 512 l 257,102,-1
EndSplineSet
Validated: 1
EndChar

StartChar: uE00E
Encoding: 15 57358 15
GlifName: uE_00E_
Width: 2048
VWidth: 0
Flags: W
LayerCount: 2
Fore
SplineSet
896 576 m 257,0,1
 896 695 896 695 941 800 c 128,-1,2
 986 905 986 905 1065 983 c 128,-1,3
 1144 1061 1144 1061 1248 1107 c 0,4,5
 1349.78723404 1152.0212766 1349.78723404 1152.0212766 1466.90086012 1152.0212766 c 0,6,7
 1469.44680851 1152.0212766 1469.44680851 1152.0212766 1472 1152 c 257,8,9
 1551 1152 1551 1152 1624 1132 c 128,-1,10
 1697 1112 1697 1112 1762 1074 c 128,-1,11
 1827 1036 1827 1036 1879 983 c 128,-1,12
 1931 930 1931 930 1970 866 c 128,-1,13
 2009 802 2009 802 2028 728 c 128,-1,14
 2047 654 2047 654 2048 576 c 257,15,16
 2048 457 2048 457 2003 352 c 128,-1,17
 1958 247 1958 247 1879 169 c 128,-1,18
 1800 91 1800 91 1696 45 c 0,19,20
 1594.21276596 -0.0212765957447 1594.21276596 -0.0212765957447 1477.09913988 -0.0212765957447 c 0,21,22
 1474.55319149 -0.0212765957447 1474.55319149 -0.0212765957447 1472 0 c 257,23,24
 1352 0 1352 0 1247 45 c 128,-1,25
 1142 90 1142 90 1064 168 c 128,-1,26
 986 246 986 246 941 351 c 128,-1,27
 896 456 896 456 896 576 c 257,0,1
1536 666 m 257,28,-1
 1677 525 l 257,29,30
 1698 504 1698 504 1728 504 c 128,-1,31
 1758 504 1758 504 1779 525 c 128,-1,32
 1800 546 1800 546 1800 576 c 128,-1,33
 1800 606 1800 606 1779 627 c 257,34,-1
 1523 883 l 257,35,36
 1502 904 1502 904 1472 904 c 128,-1,37
 1442 904 1442 904 1421 883 c 257,38,-1
 1165 627 l 257,39,40
 1144 606 1144 606 1144 576 c 128,-1,41
 1144 546 1144 546 1165 525 c 128,-1,42
 1186 504 1186 504 1216 504 c 128,-1,43
 1246 504 1246 504 1267 525 c 257,44,-1
 1408 666 l 257,45,-1
 1408 320 l 257,46,47
 1408 294 1408 294 1427 275 c 128,-1,48
 1446 256 1446 256 1472 256 c 128,-1,49
 1498 256 1498 256 1517 275 c 128,-1,50
 1536 294 1536 294 1536 320 c 257,51,-1
 1536 666 l 257,28,-1
EndSplineSet
Validated: 1
EndChar

StartChar: uE00F
Encoding: 16 57359 16
GlifName: uE_00F_
Width: 2048
VWidth: 0
Flags: W
LayerCount: 2
Fore
SplineSet
640 1574 m 257,0,-1
 640 320 l 257,1,2
 640 294 640 294 621 275 c 128,-1,3
 602 256 602 256 576 256 c 128,-1,4
 550 256 550 256 531 275 c 128,-1,5
 512 294 512 294 512 320 c 257,6,-1
 512 1574 l 257,7,-1
 109 1171 l 257,8,9
 90 1152 90 1152 64 1152 c 128,-1,10
 38 1152 38 1152 19 1171 c 128,-1,11
 0 1190 0 1190 0 1216 c 128,-1,12
 0 1242 0 1242 19 1261 c 257,13,-1
 528 1770 l 257,14,15
 539 1781 539 1781 550 1786 c 128,-1,16
 561 1791 561 1791 576 1792 c 128,-1,17
 591 1793 591 1793 602 1786 c 128,-1,18
 613 1779 613 1779 624 1770 c 257,19,-1
 1133 1261 l 257,20,21
 1152 1242 1152 1242 1152 1216 c 128,-1,22
 1152 1190 1152 1190 1133 1171 c 128,-1,23
 1114 1152 1114 1152 1088 1152 c 128,-1,24
 1062 1152 1062 1152 1043 1171 c 257,25,-1
 640 1574 l 257,0,-1
EndSplineSet
Validated: 1
EndChar

StartChar: uE010
Encoding: 17 57360 17
GlifName: uE_010
Width: 2048
VWidth: 0
Flags: W
LayerCount: 2
Fore
SplineSet
2029 787 m 257,0,1
 2029.56163803 789.098752639 2029.56163803 789.098752639 2029.56163803 790.537268926 c 0,2,3
 2029.56163803 793.671493666 2029.56163803 793.671493666 2026.89547188 793.671493666 c 0,4,5
 1995.6592057 793.671493666 1995.6592057 793.671493666 1598.46512897 363.467987471 c 0,6,7
 1520 278 1520 278 1520 278 c 257,8,9
 1509 267 1509 267 1499 262 c 128,-1,10
 1489 257 1489 257 1472 256 c 0,11,12
 1469.875 255.875 1469.875 255.875 1467.859375 255.875 c 0,13,14
 1453.75 255.875 1453.75 255.875 1445 262 c 0,15,16
 1435 269 1435 269 1424 278 c 257,17,-1
 915 787 l 257,18,19
 896 806 896 806 896 832 c 128,-1,20
 896 858 896 858 915 877 c 128,-1,21
 934 896 934 896 960 896 c 128,-1,22
 986 896 986 896 1005 877 c 257,23,-1
 1408 475 l 257,24,-1
 1408 1728 l 257,25,26
 1408 1754 1408 1754 1427 1773 c 128,-1,27
 1446 1792 1446 1792 1472 1792 c 128,-1,28
 1498 1792 1498 1792 1517 1773 c 128,-1,29
 1536 1754 1536 1754 1536 1728 c 257,30,-1
 1536 475 l 257,31,-1
 1939 877 l 257,32,33
 1958 896 1958 896 1984 896 c 128,-1,34
 2010 896 2010 896 2029 877 c 128,-1,35
 2048 858 2048 858 2048 832 c 128,-1,36
 2048 806 2048 806 2029 787 c 257,0,1
  PathStart: -2
EndSplineSet
Validated: 1
EndChar

StartChar: uE011
Encoding: 18 57361 18
GlifName: uE_011
Width: 2048
VWidth: 0
Flags: W
LayerCount: 2
Fore
SplineSet
2048 1413 m 257,0,-1
 2048 1034 l 257,1,2
 2020 1069 2020 1069 1988 1101 c 128,-1,3
 1956 1133 1956 1133 1920 1160 c 257,4,-1
 1920 1408 l 257,5,6
 1920 1434 1920 1434 1910 1458 c 128,-1,7
 1900 1482 1900 1482 1883 1499 c 128,-1,8
 1866 1516 1866 1516 1842 1526 c 128,-1,9
 1818 1536 1818 1536 1792 1536 c 257,10,-1
 1044 1536 l 257,11,-1
 916 1451 l 257,12,13
 851 1408 851 1408 774 1408 c 257,14,-1
 128 1408 l 257,15,-1
 128 384 l 257,16,17
 128 357 128 357 138 333 c 128,-1,18
 148 309 148 309 165 293 c 128,-1,19
 182 277 182 277 205 266 c 0,20,21
 226.083333333 255.916666667 226.083333333 255.916666667 251.368055556 255.916666667 c 0,22,23
 253.666666667 255.916666667 253.666666667 255.916666667 256 256 c 257,24,-1
 809 256 l 257,25,26
 826 222 826 222 845 190 c 128,-1,27
 864 158 864 158 888 128 c 257,28,-1
 251 128 l 257,29,30
 201 128 201 128 155 148 c 128,-1,31
 109 168 109 168 76 204 c 128,-1,32
 43 240 43 240 20 283 c 0,33,34
 -0.346153846154 321.038461538 -0.346153846154 321.038461538 -0.346153846154 366.902366864 c 0,35,36
 -0.346153846154 372.884615385 -0.346153846154 372.884615385 0 379 c 257,37,-1
 0 1669 l 257,38,39
 0 1719 0 1719 20 1765 c 128,-1,40
 40 1811 40 1811 76 1844 c 128,-1,41
 112 1877 112 1877 155 1900 c 0,42,43
 193.038461538 1920.34615385 193.038461538 1920.34615385 238.902366864 1920.34615385 c 0,44,45
 244.884615385 1920.34615385 244.884615385 1920.34615385 251 1920 c 257,46,-1
 736 1920 l 257,47,48
 796 1920 796 1920 851 1893 c 128,-1,49
 906 1866 906 1866 941 1818 c 257,50,-1
 1056 1664 l 257,51,-1
 1797 1664 l 257,52,53
 1847 1664 1847 1664 1893 1644 c 128,-1,54
 1939 1624 1939 1624 1972 1588 c 128,-1,55
 2005 1552 2005 1552 2028 1509 c 0,56,57
 2048.34615385 1470.96153846 2048.34615385 1470.96153846 2048.34615385 1425.09763314 c 0,58,59
 2048.34615385 1419.11538462 2048.34615385 1419.11538462 2048 1413 c 257,0,-1
932 1616 m 257,60,-1
 838 1741 l 257,61,62
 820 1765 820 1765 793 1778 c 128,-1,63
 766 1791 766 1791 736 1792 c 257,64,-1
 256 1792 l 257,65,66
 229 1792 229 1792 206 1782 c 128,-1,67
 183 1772 183 1772 165 1755 c 128,-1,68
 147 1738 147 1738 138 1714 c 128,-1,69
 129 1690 129 1690 128 1664 c 257,70,-1
 128 1536 l 257,71,-1
 774 1536 l 257,72,73
 796 1536 796 1536 817 1544 c 128,-1,74
 838 1552 838 1552 858 1564 c 128,-1,75
 878 1576 878 1576 896 1590 c 128,-1,76
 914 1604 914 1604 932 1616 c 257,60,-1
EndSplineSet
Validated: 1
EndChar

StartChar: uE012
Encoding: 19 57362 19
GlifName: uE_012
Width: 2048
VWidth: 0
Flags: W
LayerCount: 2
Fore
SplineSet
2048 576 m 257,0,1
 2048 457 2048 457 2003 352 c 128,-1,2
 1958 247 1958 247 1879 169 c 128,-1,3
 1800 91 1800 91 1696 45 c 0,4,5
 1594.21276596 -0.0212765957447 1594.21276596 -0.0212765957447 1477.09913988 -0.0212765957447 c 0,6,7
 1474.55319149 -0.0212765957447 1474.55319149 -0.0212765957447 1472 0 c 257,8,9
 1352 0 1352 0 1247 45 c 128,-1,10
 1142 90 1142 90 1064 168 c 128,-1,11
 986 246 986 246 941 351 c 128,-1,12
 896 456 896 456 896 576 c 257,13,14
 896 695 896 695 941 800 c 128,-1,15
 986 905 986 905 1065 983 c 128,-1,16
 1144 1061 1144 1061 1248 1107 c 0,17,18
 1349.78723404 1152.0212766 1349.78723404 1152.0212766 1466.90086012 1152.0212766 c 0,19,20
 1469.44680851 1152.0212766 1469.44680851 1152.0212766 1472 1152 c 257,21,22
 1551 1152 1551 1152 1624 1132 c 128,-1,23
 1697 1112 1697 1112 1762 1074 c 128,-1,24
 1827 1036 1827 1036 1879 983 c 128,-1,25
 1931 930 1931 930 1970 866 c 128,-1,26
 2009 802 2009 802 2028 728 c 128,-1,27
 2047 654 2047 654 2048 576 c 257,0,1
1792 576 m 128,-1,29
 1792 602 1792 602 1773 621 c 128,-1,30
 1754 640 1754 640 1728 640 c 257,31,-1
 1536 640 l 257,32,-1
 1536 832 l 257,33,34
 1536 858 1536 858 1517 877 c 128,-1,35
 1498 896 1498 896 1472 896 c 128,-1,36
 1446 896 1446 896 1427 877 c 128,-1,37
 1408 858 1408 858 1408 832 c 257,38,-1
 1408 640 l 257,39,-1
 1216 640 l 257,40,41
 1190 640 1190 640 1171 621 c 128,-1,42
 1152 602 1152 602 1152 576 c 128,-1,43
 1152 550 1152 550 1171 531 c 128,-1,44
 1190 512 1190 512 1216 512 c 257,45,-1
 1408 512 l 257,46,-1
 1408 320 l 257,47,48
 1408 294 1408 294 1427 275 c 128,-1,49
 1446 256 1446 256 1472 256 c 128,-1,50
 1498 256 1498 256 1517 275 c 128,-1,51
 1536 294 1536 294 1536 320 c 257,52,-1
 1536 512 l 257,53,-1
 1728 512 l 257,54,55
 1754 512 1754 512 1773 531 c 128,-1,28
 1792 550 1792 550 1792 576 c 128,-1,29
  PathStart: -1
EndSplineSet
Validated: 1
EndChar

StartChar: uE013
Encoding: 20 57363 20
GlifName: uE_013
Width: 2048
VWidth: 0
Flags: W
LayerCount: 2
Fore
SplineSet
250 1919 m 257,0,-1
 750 1919 l 257,1,2
 885 1919 885 1919 995 1742 c 257,3,-1
 1056 1663 l 257,4,-1
 1666 1663 l 257,5,6
 1827 1663 1827 1663 1902 1497 c 257,7,8
 1919 1458 1919 1458 1919 1396 c 257,9,-1
 1919 1388 l 257,10,11
 2028 1329 2028 1329 2028 1214 c 257,12,13
 2014 1079 2014 1079 2006 1079 c 257,14,15
 1945 1145 1945 1145 1896 1177 c 257,16,-1
 1896 1180 l 257,17,18
 1899 1209 1899 1209 1899 1225 c 257,19,20
 1899 1269 1899 1269 1832 1281 c 257,21,-1
 1694 1281 l 257,22,23
 1557 1312 1557 1312 1478 1312 c 257,24,-1
 1464 1312 l 257,25,26
 1386 1312 1386 1312 1247 1281 c 257,27,-1
 567 1281 l 257,28,29
 456 1281 456 1281 421 1205 c 257,30,31
 407 1152 407 1152 225 258 c 257,32,-1
 258 256 l 257,33,-1
 803 256 l 257,34,35
 806 256 806 256 862 160 c 257,36,37
 882 138 882 138 882 129 c 257,38,-1
 250 129 l 257,39,40
 86 129 86 129 11 303 c 257,41,42
 0 342 0 342 0 374 c 257,43,-1
 0 1674 l 257,44,45
 0 1810 0 1810 140 1893 c 257,46,47
 194 1919 194 1919 250 1919 c 257,0,-1
126 1655 m 257,48,-1
 126 424 l 257,49,-1
 129 424 l 257,50,51
 287 1212 287 1212 303 1253 c 257,52,53
 383 1407 383 1407 539 1407 c 257,54,-1
 1790 1407 l 257,55,-1
 1790 1416 l 257,56,57
 1790 1504 1790 1504 1683 1534 c 257,58,59
 1672 1537 1672 1537 1658 1537 c 257,60,-1
 992 1537 l 257,61,62
 837 1742 837 1742 818 1761 c 257,63,64
 784 1792 784 1792 725 1792 c 257,65,-1
 258 1792 l 257,66,67
 164 1792 164 1792 129 1694 c 257,68,69
 126 1670 126 1670 126 1655 c 257,48,-1
EndSplineSet
Validated: 1
EndChar

StartChar: uE014
Encoding: 21 57364 21
GlifName: uE_014
Width: 2048
VWidth: 0
Flags: W
LayerCount: 2
Fore
SplineSet
1458 1152 m 257,0,-1
 1475 1152 l 257,1,2
 1758 1152 1758 1152 1944 905 c 257,3,4
 2048 751 2048 751 2048 576 c 257,5,6
 2048 283 2048 283 1789 96 c 257,7,8
 1641 0 1641 0 1475 0 c 257,9,-1
 1466 0 l 257,10,11
 1156 0 1156 0 966 292 c 257,12,13
 893 436 893 436 893 576 c 257,14,15
 893 857 893 857 1135 1045 c 257,16,17
 1290 1152 1290 1152 1458 1152 c 257,0,-1
1407 834 m 257,18,-1
 1407 829 l 257,19,20
 1407 794 1407 794 1517 697 c 257,21,-1
 1567 643 l 257,22,-1
 1567 641 l 257,23,-1
 1230 641 l 257,24,25
 1151 641 1151 641 1151 573 c 257,26,27
 1151 511 1151 511 1239 511 c 257,28,-1
 1567 511 l 257,29,-1
 1567 508 l 257,30,31
 1410 353 1410 353 1410 340 c 257,32,-1
 1407 323 l 257,33,-1
 1407 317 l 257,34,35
 1407 267 1407 267 1472 256 c 257,36,37
 1506 256 1506 256 1598 360 c 257,38,39
 1789 543 1789 543 1789 559 c 257,40,-1
 1789 582 l 257,41,42
 1789 612 1789 612 1722 669 c 257,43,44
 1506 891 1506 891 1494 891 c 257,45,46
 1489 893 1489 893 1469 896 c 257,47,48
 1407 883 1407 883 1407 834 c 257,18,-1
EndSplineSet
Validated: 1
EndChar

StartChar: uE015
Encoding: 22 57365 22
GlifName: uE_015
Width: 2048
VWidth: 0
Flags: W
LayerCount: 2
Fore
SplineSet
128 379 m 257,0,-1
 128 1536 l 257,1,2
 128 1587 128 1587 148 1633.5 c 128,-1,3
 168 1680 168 1680 202 1715 c 128,-1,4
 236 1750 236 1750 281.5 1771 c 128,-1,5
 327 1792 327 1792 379 1792 c 257,6,-1
 832 1792 l 257,7,8
 858 1792 858 1792 877 1773 c 128,-1,9
 896 1754 896 1754 896 1728 c 257,10,11
 896 1702 896 1702 877 1683 c 128,-1,12
 858 1664 858 1664 832 1664 c 257,13,-1
 384 1664 l 257,14,15
 357 1664 357 1664 334 1654 c 128,-1,16
 311 1644 311 1644 293.5 1626.5 c 128,-1,17
 276 1609 276 1609 266 1586 c 128,-1,18
 256 1563 256 1563 256 1536 c 257,19,-1
 256 384 l 257,20,21
 256 357 256 357 266 333.5 c 128,-1,22
 276 310 276 310 293 293 c 128,-1,23
 310 276 310 276 333.5 266 c 128,-1,24
 357 256 357 256 384 256 c 257,25,-1
 1536 256 l 257,26,27
 1589 256 1589 256 1626 293 c 257,28,29
 1651 318 1651 318 1658.5 354 c 128,-1,30
 1666 390 1666 390 1666 430 c 257,31,32
 1666 459 1666 459 1664.5 487 c 128,-1,33
 1663 515 1663 515 1663 541 c 257,34,35
 1663 562 1663 562 1665.5 580 c 128,-1,36
 1668 598 1668 598 1675 611.5 c 128,-1,37
 1682 625 1682 625 1694.5 632.5 c 128,-1,38
 1707 640 1707 640 1728 640 c 257,39,40
 1754 640 1754 640 1773 621 c 128,-1,41
 1792 602 1792 602 1792 576 c 257,42,-1
 1792 384 l 257,43,44
 1792 333 1792 333 1772 286.5 c 128,-1,45
 1752 240 1752 240 1718 205 c 128,-1,46
 1684 170 1684 170 1638.5 149 c 128,-1,47
 1593 128 1593 128 1541 128 c 257,48,-1
 384 128 l 257,49,50
 333 128 333 128 286.5 148 c 128,-1,51
 240 168 240 168 205 202 c 128,-1,52
 170 236 170 236 149 281.5 c 128,-1,53
 128 327 128 327 128 379 c 257,0,-1
EndSplineSet
Validated: 1
EndChar

StartChar: uE016
Encoding: 23 57366 23
GlifName: uE_016
Width: 2048
VWidth: 0
Flags: W
LayerCount: 2
Fore
SplineSet
1353 640 m 257,0,1
 1323 640 1323 640 1301.5 662.5 c 128,-1,2
 1280 685 1280 685 1280 714 c 257,3,-1
 1280 982 l 257,4,5
 1248 982 1248 982 1215.5 976.5 c 128,-1,6
 1183 971 1183 971 1152 964 c 257,7,8
 1065 946 1065 946 991 917 c 128,-1,9
 917 888 917 888 849.5 849.5 c 128,-1,10
 782 811 782 811 718 764 c 128,-1,11
 654 717 654 717 587 662 c 257,12,13
 576 653 576 653 564 648 c 128,-1,14
 552 643 552 643 537 643 c 257,15,16
 507 643 507 643 485.5 664.5 c 128,-1,17
 464 686 464 686 464 716 c 257,18,-1
 464 724 l 257,19,20
 488 906 488 906 545.5 1057.5 c 128,-1,21
 603 1209 603 1209 701.5 1320 c 128,-1,22
 800 1431 800 1431 942.5 1497 c 128,-1,23
 1085 1563 1085 1563 1280 1573 c 257,24,-1
 1280 1846 l 257,25,26
 1280 1877 1280 1877 1301 1898.5 c 128,-1,27
 1322 1920 1322 1920 1353 1920 c 257,28,29
 1381 1920 1381 1920 1402 1899 c 257,30,-1
 1977 1333 l 257,31,32
 1988 1322 1988 1322 1994 1309.5 c 128,-1,33
 2000 1297 2000 1297 2000 1280 c 257,34,35
 2000 1249 2000 1249 1978 1227 c 257,36,-1
 1402 661 l 257,37,38
 1379 640 1379 640 1353 640 c 257,0,1
1408 846 m 257,39,-1
 1849 1280 l 257,40,-1
 1408 1714 l 257,41,-1
 1408 1454 l 257,42,43
 1371 1452 1371 1452 1334.5 1449.5 c 128,-1,44
 1298 1447 1298 1447 1261 1444 c 257,45,46
 1123 1434 1123 1434 1015.5 1389 c 128,-1,47
 908 1344 908 1344 829 1268 c 128,-1,48
 750 1192 750 1192 697.5 1086.5 c 128,-1,49
 645 981 645 981 616 850 c 257,50,51
 683 900 683 900 756.5 943.5 c 128,-1,52
 830 987 830 987 908 1020.5 c 128,-1,53
 986 1054 986 1054 1067.5 1076.5 c 128,-1,54
 1149 1099 1149 1099 1233 1107 c 257,55,56
 1277 1111 1277 1111 1320.5 1114.5 c 128,-1,57
 1364 1118 1364 1118 1408 1122 c 257,58,-1
 1408 846 l 257,39,-1
EndSplineSet
Validated: 1
EndChar

StartChar: uE017
Encoding: 24 57367 24
GlifName: uE_017
Width: 2048
VWidth: 0
Flags: W
LayerCount: 2
Fore
SplineSet
1004 2048 m 258,0,1
 1004 2048 1004 2048 1044 2048 c 258,2,3
 1388 2048 1388 2048 1701 1795 c 257,4,5
 2048 1463 2048 1463 2048 1026 c 256,6,7
 2048 585 2048 585 1704 260 c 257,8,9
 1398 0 1398 0 1022 0 c 256,10,11
 573 0 573 0 244 360 c 257,12,13
 0 656 0 656 0 1019 c 258,14,15
 0 1019 0 1019 0 1047 c 258,16,17
 0 1416 0 1416 285 1735 c 257,18,19
 473 1912 473 1912 610 1960 c 257,20,21
 810 2048 810 2048 1004 2048 c 258,0,1
138 1035 m 258,22,23
 138 1035 138 1035 138 1019 c 258,24,25
 138 638 138 638 447 350 c 257,26,27
 713 141 713 141 1001 141 c 258,28,29
 1001 141 1001 141 1044 141 c 258,30,31
 1416 141 1416 141 1707 460 c 257,32,33
 1907 722 1907 722 1907 1004 c 258,34,35
 1907 1004 1907 1004 1907 1051 c 258,36,37
 1907 1299 1907 1299 1745 1538 c 257,38,39
 1459 1910 1459 1910 1022 1910 c 258,40,41
 1022 1910 1022 1910 1019 1910 c 258,42,43
 598 1910 598 1910 306 1548 c 257,44,45
 138 1299 138 1299 138 1035 c 258,22,23
EndSplineSet
Validated: 1
EndChar

StartChar: uE018
Encoding: 25 57368 25
GlifName: uE_018
Width: 2048
VWidth: 0
Flags: W
LayerCount: 2
Fore
SplineSet
1023.5 1503 m 257,0,1
 1092.5 1491 1092.5 1491 1092.5 1438 c 257,2,-1
 1092.5 1094 l 257,3,-1
 1427.5 1094 l 257,4,5
 1502.5 1085 1502.5 1085 1502.5 1028 c 257,6,-1
 1502.5 1022 l 257,7,8
 1502.5 962 1502.5 962 1430.5 956 c 257,9,-1
 1092.5 956 l 257,10,-1
 1092.5 609 l 257,11,12
 1092.5 558 1092.5 558 1026.5 546 c 257,13,14
 1026.5 546 1026.5 546 1020.5 546 c 257,15,16
 963.5 546 963.5 546 954.5 621 c 257,17,-1
 954.5 956 l 257,18,-1
 610.5 956 l 257,19,20
 557.5 956 557.5 956 545.5 1025 c 257,21,22
 558.5 1094 558.5 1094 614.5 1094 c 257,23,-1
 954.5 1094 l 257,24,-1
 954.5 1434 l 257,25,26
 967.5 1503 967.5 1503 1023.5 1503 c 257,0,1
EndSplineSet
Validated: 1
EndChar

StartChar: uE019
Encoding: 26 57369 26
GlifName: uE_019
Width: 2048
VWidth: 0
Flags: W
LayerCount: 2
Fore
SplineSet
281 1944 m 257,0,-1
 704 1944 l 257,1,2
 883 1944 883 1944 959 1815 c 257,3,-1
 1058 1689 l 257,4,-1
 1389 1689 l 257,5,-1
 1389 1683 l 257,6,7
 1329 1683 1329 1683 1288 1602 c 257,8,9
 1280 1557 1280 1557 1274 1557 c 257,10,-1
 1049 1557 l 257,11,12
 1040 1557 1040 1557 898 1462 c 257,13,14
 838 1431 838 1431 774 1431 c 257,15,-1
 129 1431 l 257,16,-1
 129 429 l 257,17,18
 129 281 129 281 286 281 c 257,19,-1
 1403 281 l 257,20,21
 1408 280 1408 280 1408 275 c 257,22,-1
 1408 213 l 257,23,24
 1408 172 1408 172 1456 157 c 257,25,-1
 1456 152 l 257,26,-1
 281 152 l 257,27,28
 89 152 89 152 17 317 c 257,29,30
 0 363 0 363 0 438 c 257,31,-1
 0 1667 l 257,32,33
 0 1870 0 1870 191 1936 c 257,34,35
 240 1944 240 1944 281 1944 c 257,0,-1
129 1667 m 257,36,-1
 129 1560 l 257,37,-1
 777 1560 l 257,38,39
 828 1560 828 1560 931 1641 c 257,40,41
 837 1768 837 1768 805 1796 c 257,42,43
 770 1815 770 1815 707 1815 c 257,44,-1
 286 1815 l 257,45,46
 129 1815 129 1815 129 1667 c 257,36,-1
1554 1689 m 257,47,-1
 1751 1689 l 257,48,49
 1927 1689 1927 1689 1995 1585 c 257,50,51
 2048 1526 2048 1526 2048 1403 c 257,52,-1
 2048 438 l 257,53,54
 2048 225 2048 225 1863 163 c 257,55,56
 1822 152 1822 152 1767 152 c 257,57,-1
 1487 152 l 257,58,-1
 1487 157 l 257,59,60
 1522 157 1522 157 1535 216 c 257,61,-1
 1535 275 l 257,62,63
 1535 281 1535 281 1540 281 c 257,64,-1
 1762 281 l 257,65,66
 1919 281 1919 281 1919 429 c 257,67,-1
 1919 1411 l 257,68,69
 1919 1513 1919 1513 1838 1552 c 257,70,71
 1812 1557 1812 1557 1801 1557 c 257,72,-1
 1669 1557 l 257,73,74
 1663 1557 1663 1557 1652 1610 c 257,75,76
 1608 1683 1608 1683 1554 1683 c 257,77,-1
 1554 1689 l 257,47,-1
EndSplineSet
Validated: 1
EndChar

StartChar: uE01A
Encoding: 27 57370 27
GlifName: uE_01A_
Width: 2048
VWidth: 0
Flags: W
LayerCount: 2
Fore
SplineSet
1403 281 m 1,0,1
 1408 280 1408 280 1408 275 c 2,2,-1
 1408 268.830188679 l 1,3,-1
 1403 281 l 1,0,1
1411 1688 m 2,4,-1
 1537 1688 l 2,5,6
 1545.75451544 1688 1545.75451544 1688 1554 1687.0652342 c 1,7,-1
 1554 1689 l 1,8,-1
 1555.88291293 1686.83874342 l 1,9,10
 1631.86016535 1677.17009166 1631.86016535 1677.17009166 1664 1587 c 1,11,12
 1664.74904651 1572.76811629 1664.74904651 1572.76811629 1665.21755768 1561.34158596 c 1,13,-1
 1669 1557 l 1,14,15
 1667.30713575 1557 1667.30713575 1557 1665.21755768 1561.2051636 c 1,16,17
 1665.99720628 1542.21830868 1665.99720628 1542.21830868 1666 1531 c 2,18,-1
 1666 1334 l 2,19,20
 1666 1217 1666 1217 1582 1185 c 1,21,22
 1548 1177 1548 1177 1537 1177 c 1,23,-1
 1537 793 l 1,24,-1
 1605 793 l 1,25,26
 1664 781 1664 781 1664 737 c 2,27,-1
 1664 723 l 1,28,29
 1654 666 1654 666 1596 666 c 2,30,-1
 1537 666 l 1,31,-1
 1537 280.189466384 l 1,32,33
 1538.16227766 281 1538.16227766 281 1540 281 c 1,34,-1
 1537 273.698113208 l 1,35,-1
 1537 218 l 1,36,37
 1530.90230389 183.631167383 1530.90230389 183.631167383 1513.4349365 168.314216346 c 1,38,39
 1527.69284802 182.836771562 1527.69284802 182.836771562 1535 216 c 1,40,-1
 1535 268.830188679 l 1,41,-1
 1489.0759908 157.052883269 l 1,42,43
 1489.70251474 157.085109201 1489.70251474 157.085109201 1490.32171575 157.136974784 c 1,44,45
 1489.67107569 157.009902719 1489.67107569 157.009902719 1489.0119599 156.897034484 c 2,46,-1
 1487 152 l 1,47,-1
 1487 156.588262112 l 1,48,49
 1482.67552982 156 1482.67552982 156 1478 156 c 2,50,-1
 1470 156 l 2,51,52
 1460.32766578 158.131192286 1460.32766578 158.131192286 1452.24099341 161.149280183 c 1,53,-1
 1411 261.528301887 l 1,54,-1
 1411 411 l 1,55,-1
 1344 411 l 1,56,57
 1282 424 1282 424 1282 473 c 1,58,59
 1295 537 1295 537 1344 537 c 2,60,-1
 1411 537 l 1,61,-1
 1411 922 l 1,62,-1
 1347 922 l 1,63,64
 1282 936 1282 936 1282 983 c 0,65,66
 1282 1042 1282 1042 1349 1048 c 1,67,-1
 1411 1048 l 1,68,-1
 1411 1177 l 1,69,70
 1326 1177 1326 1177 1288 1270 c 1,71,72
 1282 1298 1282 1298 1282 1326 c 2,73,-1
 1282 1539 l 2,74,75
 1282 1554.32990584 1282 1554.32990584 1283.71662537 1568.15299608 c 1,76,-1
 1383.62933557 1682.81668162 l 1,77,78
 1374.99848599 1682.29321621 1374.99848599 1682.29321621 1366.77225541 1680.04479625 c 1,79,80
 1369.34702616 1681.05672066 1369.34702616 1681.05672066 1372 1682 c 0,81,82
 1379.08827773 1684.02522221 1379.08827773 1684.02522221 1385.83476171 1685.36685692 c 1,83,-1
 1389 1689 l 1,84,-1
 1389 1685.9620238 l 1,85,86
 1400.50949405 1688 1400.50949405 1688 1411 1688 c 2,4,-1
1413 1566 m 1,87,-1
 1413 1314 l 2,88,89
 1414 1308 1414 1308 1419 1308 c 2,90,-1
 1542 1308 l 1,91,-1
 1542 1566 l 1,92,-1
 1413 1566 l 1,87,-1
1559.38698192 1682.81668162 m 1,93,-1
 1665.07796887 1561.50180964 l 1,94,95
 1659.79411224 1572.44655014 1659.79411224 1572.44655014 1652 1610 c 1,96,97
 1610.2049272 1679.34182533 1610.2049272 1679.34182533 1559.38698192 1682.81668162 c 1,93,-1
1453.63106716 157.765893146 m 1,98,-1
 1452.24099341 161.149280183 l 1,99,100
 1411 176.541141934 1411 176.541141934 1411 215 c 2,101,-1
 1411 261.528301887 l 1,102,-1
 1408 268.830188679 l 1,103,-1
 1408 213 l 2,104,105
 1408 173.024532552 1408 173.024532552 1453.63106716 157.765893146 c 1,98,-1
1453.63106716 157.765893146 m 1,106,107
 1454.80054726 157.374828982 1454.80054726 157.374828982 1456 157 c 2,108,-1
 1456 152 l 1,109,-1
 1453.63106716 157.765893146 l 1,106,107
1278.0785605 1561.68147814 m 1,110,111
 1275.9352474 1557 1275.9352474 1557 1274 1557 c 1,112,-1
 1278.0785605 1561.68147814 l 1,110,111
1278.0785605 1561.68147814 m 1,113,-1
 1283.71662537 1568.15299608 l 1,114,115
 1288.16088032 1603.94026707 1288.16088032 1603.94026707 1304.11108255 1629.6278731 c 1,116,117
 1295.71882951 1617.24939315 1295.71882951 1617.24939315 1288 1602 c 1,118,119
 1282.58032987 1571.51435553 1282.58032987 1571.51435553 1278.0785605 1561.68147814 c 1,113,-1
1304.11108255 1629.6278731 m 1,120,121
 1311.31536233 1641.23027709 1311.31536233 1641.23027709 1320.86695539 1650.77226188 c 1,122,123
 1312.17791379 1641.52635845 1312.17791379 1641.52635845 1304.11108255 1629.6278731 c 1,120,121
1320.86695539 1650.77226188 m 1,124,125
 1339.400692 1669.28735303 1339.400692 1669.28735303 1366.77225541 1680.04479625 c 1,126,127
 1341.98237614 1673.24092593 1341.98237614 1673.24092593 1320.86695539 1650.77226188 c 1,124,125
1490.32171575 157.136974784 m 1,128,129
 1503.54909862 158.244887925 1503.54909862 158.244887925 1513.4349365 168.314216346 c 1,130,131
 1503.65898591 159.741787891 1503.65898591 159.741787891 1490.32171575 157.136974784 c 1,128,129
EndSplineSet
Validated: 5
EndChar

StartChar: uE01B
Encoding: 28 57371 28
GlifName: uE_01B_
Width: 2048
VWidth: 0
Flags: W
LayerCount: 2
Fore
SplineSet
1797 1408 m 257,0,1
 1847 1408 1847 1408 1892.5 1387.5 c 128,-1,2
 1938 1367 1938 1367 1972.5 1332.5 c 128,-1,3
 2007 1298 2007 1298 2027.5 1252.5 c 128,-1,4
 2048 1207 2048 1207 2048 1157 c 257,5,-1
 2048 891 l 257,6,7
 2048 841 2048 841 2027.5 795.5 c 128,-1,8
 2007 750 2007 750 1972.5 715.5 c 128,-1,9
 1938 681 1938 681 1892.5 660.5 c 128,-1,10
 1847 640 1847 640 1797 640 c 257,11,-1
 251 640 l 257,12,13
 201 640 201 640 155.5 660.5 c 128,-1,14
 110 681 110 681 75.5 715.5 c 128,-1,15
 41 750 41 750 20.5 795.5 c 128,-1,16
 0 841 0 841 0 891 c 257,17,-1
 0 896 l 257,18,-1
 128 896 l 257,19,20
 128 869 128 869 138 845.5 c 128,-1,21
 148 822 148 822 165 805 c 128,-1,22
 182 788 182 788 205.5 778 c 128,-1,23
 229 768 229 768 256 768 c 257,24,-1
 1792 768 l 257,25,26
 1819 768 1819 768 1842 778 c 128,-1,27
 1865 788 1865 788 1882.5 805.5 c 128,-1,28
 1900 823 1900 823 1910 846 c 128,-1,29
 1920 869 1920 869 1920 896 c 257,30,-1
 1920 1152 l 257,31,32
 1920 1178 1920 1178 1910 1201.5 c 128,-1,33
 1900 1225 1900 1225 1882.5 1242.5 c 128,-1,34
 1865 1260 1865 1260 1841.5 1270 c 128,-1,35
 1818 1280 1818 1280 1792 1280 c 257,36,-1
 896 1280 l 257,37,-1
 896 1408 l 257,38,-1
 1797 1408 l 257,0,1
1568 960 m 257,39,40
 1528 960 1528 960 1500 988 c 128,-1,41
 1472 1016 1472 1016 1472 1056 c 257,42,43
 1472 1096 1472 1096 1500 1124 c 128,-1,44
 1528 1152 1528 1152 1568 1152 c 257,45,46
 1608 1152 1608 1152 1636 1124 c 128,-1,47
 1664 1096 1664 1096 1664 1056 c 257,48,49
 1664 1016 1664 1016 1636 988 c 128,-1,50
 1608 960 1608 960 1568 960 c 257,39,40
EndSplineSet
Validated: 1
EndChar

StartChar: uE01C
Encoding: 29 57372 29
GlifName: uE_01C_
Width: 2048
VWidth: 0
Flags: W
LayerCount: 2
Fore
SplineSet
0 1088 m 257,0,-1
 0 1600 l 257,1,2
 0 1622 0 1622 8 1634.5 c 128,-1,3
 16 1647 16 1647 29.5 1653.5 c 128,-1,4
 43 1660 43 1660 59.5 1662 c 128,-1,5
 76 1664 76 1664 93 1664 c 257,6,-1
 128 1664 l 257,7,8
 128 1687 128 1687 127 1711 c 128,-1,9
 126 1735 126 1735 126 1760 c 257,10,11
 126 1794 126 1794 130 1826.5 c 128,-1,12
 134 1859 134 1859 147 1890 c 257,13,14
 178 1963 178 1963 241.5 2005.5 c 128,-1,15
 305 2048 305 2048 384 2048 c 257,16,17
 437 2048 437 2048 483.5 2028 c 128,-1,18
 530 2008 530 2008 565 1973.5 c 128,-1,19
 600 1939 600 1939 620 1892 c 128,-1,20
 640 1845 640 1845 640 1792 c 257,21,-1
 640 1664 l 257,22,-1
 672 1664 l 257,23,24
 689 1664 689 1664 706 1662 c 128,-1,25
 723 1660 723 1660 737 1653.5 c 128,-1,26
 751 1647 751 1647 759.5 1634.5 c 128,-1,27
 768 1622 768 1622 768 1600 c 257,28,-1
 768 1088 l 257,29,30
 768 1062 768 1062 749 1043 c 128,-1,31
 730 1024 730 1024 704 1024 c 257,32,-1
 64 1024 l 257,33,34
 37 1024 37 1024 18.5 1042.5 c 128,-1,35
 0 1061 0 1061 0 1088 c 257,0,-1
256 1664 m 257,36,-1
 512 1664 l 257,37,-1
 512 1792 l 257,38,39
 512 1819 512 1819 502 1842 c 128,-1,40
 492 1865 492 1865 474.5 1882.5 c 128,-1,41
 457 1900 457 1900 434 1910 c 128,-1,42
 411 1920 411 1920 384 1920 c 257,43,44
 357 1920 357 1920 333.5 1910 c 128,-1,45
 310 1900 310 1900 293 1883 c 128,-1,46
 276 1866 276 1866 266 1842.5 c 128,-1,47
 256 1819 256 1819 256 1792 c 257,48,-1
 256 1664 l 257,36,-1
512 1344 m 257,49,50
 512 1370 512 1370 502 1393.5 c 128,-1,51
 492 1417 492 1417 474.5 1434.5 c 128,-1,52
 457 1452 457 1452 433.5 1462 c 128,-1,53
 410 1472 410 1472 384 1472 c 257,54,55
 357 1472 357 1472 334 1462 c 128,-1,56
 311 1452 311 1452 293.5 1434.5 c 128,-1,57
 276 1417 276 1417 266 1394 c 128,-1,58
 256 1371 256 1371 256 1344 c 257,59,60
 256 1317 256 1317 266 1293.5 c 128,-1,61
 276 1270 276 1270 293 1253 c 128,-1,62
 310 1236 310 1236 333.5 1226 c 128,-1,63
 357 1216 357 1216 384 1216 c 257,64,65
 410 1216 410 1216 433.5 1226 c 128,-1,66
 457 1236 457 1236 474.5 1253.5 c 128,-1,67
 492 1271 492 1271 502 1294.5 c 128,-1,68
 512 1318 512 1318 512 1344 c 257,49,50
EndSplineSet
Validated: 1
EndChar

StartChar: uE01D
Encoding: 30 57373 30
GlifName: uE_01D_
Width: 2048
VWidth: 0
Flags: W
LayerCount: 2
Fore
SplineSet
441 128 m 257,0,1
 378 128 378 128 321 153.5 c 128,-1,2
 264 179 264 179 221.5 221.5 c 128,-1,3
 179 264 179 264 153.5 321 c 128,-1,4
 128 378 128 378 128 441 c 257,5,-1
 128 1479 l 257,6,7
 128 1542 128 1542 153.5 1599 c 128,-1,8
 179 1656 179 1656 221.5 1698.5 c 128,-1,9
 264 1741 264 1741 321 1766.5 c 128,-1,10
 378 1792 378 1792 441 1792 c 257,11,-1
 704 1792 l 257,12,13
 730 1792 730 1792 749 1773 c 128,-1,14
 768 1754 768 1754 768 1728 c 257,15,16
 768 1702 768 1702 749 1683 c 128,-1,17
 730 1664 730 1664 704 1664 c 257,18,-1
 448 1664 l 257,19,20
 409 1664 409 1664 374 1649 c 128,-1,21
 339 1634 339 1634 312.5 1607.5 c 128,-1,22
 286 1581 286 1581 271 1546 c 128,-1,23
 256 1511 256 1511 256 1472 c 257,24,-1
 256 448 l 257,25,26
 256 409 256 409 271 374 c 128,-1,27
 286 339 286 339 312.5 312.5 c 128,-1,28
 339 286 339 286 374 271 c 128,-1,29
 409 256 409 256 448 256 c 257,30,-1
 1472 256 l 257,31,32
 1511 256 1511 256 1546 271 c 128,-1,33
 1581 286 1581 286 1607.5 312.5 c 128,-1,34
 1634 339 1634 339 1649 374 c 128,-1,35
 1664 409 1664 409 1664 448 c 257,36,-1
 1664 704 l 257,37,38
 1664 730 1664 730 1683 749 c 128,-1,39
 1702 768 1702 768 1728 768 c 257,40,41
 1754 768 1754 768 1773 749 c 128,-1,42
 1792 730 1792 730 1792 704 c 257,43,-1
 1792 441 l 257,44,45
 1792 378 1792 378 1766.5 321 c 128,-1,46
 1741 264 1741 264 1698.5 221.5 c 128,-1,47
 1656 179 1656 179 1599 153.5 c 128,-1,48
 1542 128 1542 128 1479 128 c 257,49,-1
 441 128 l 257,0,1
EndSplineSet
Validated: 1
EndChar

StartChar: uE01E
Encoding: 31 57374 31
GlifName: uE_01E_
Width: 2048
VWidth: 0
Flags: W
LayerCount: 2
Fore
SplineSet
960 896 m 257,0,1
 934 896 934 896 915 915 c 128,-1,2
 896 934 896 934 896 960 c 257,3,-1
 896 1728 l 257,4,5
 896 1754 896 1754 915 1773 c 128,-1,6
 934 1792 934 1792 960 1792 c 257,7,8
 986 1792 986 1792 1005 1773 c 128,-1,9
 1024 1754 1024 1754 1024 1728 c 257,10,-1
 1024 1115 l 257,11,-1
 1811 1901 l 257,12,13
 1830 1920 1830 1920 1856 1920 c 257,14,15
 1882 1920 1882 1920 1901 1901 c 128,-1,16
 1920 1882 1920 1882 1920 1856 c 257,17,18
 1920 1830 1920 1830 1901 1811 c 257,19,-1
 1115 1024 l 257,20,-1
 1728 1024 l 257,21,22
 1754 1024 1754 1024 1773 1005 c 128,-1,23
 1792 986 1792 986 1792 960 c 257,24,25
 1792 934 1792 934 1773 915 c 128,-1,26
 1754 896 1754 896 1728 896 c 257,27,-1
 960 896 l 257,0,1
EndSplineSet
Validated: 1
EndChar

StartChar: uE01F
Encoding: 32 57375 32
GlifName: uE_01F_
Width: 2048
VWidth: 0
Flags: W
LayerCount: 2
Fore
SplineSet
441 128 m 257,0,1
 378 128 378 128 321 153.5 c 128,-1,2
 264 179 264 179 221.5 221.5 c 128,-1,3
 179 264 179 264 153.5 321 c 128,-1,4
 128 378 128 378 128 441 c 257,5,-1
 128 1479 l 257,6,7
 128 1542 128 1542 153.5 1599 c 128,-1,8
 179 1656 179 1656 221.5 1698.5 c 128,-1,9
 264 1741 264 1741 321 1766.5 c 128,-1,10
 378 1792 378 1792 441 1792 c 257,11,-1
 832 1792 l 257,12,13
 858 1792 858 1792 877 1773 c 128,-1,14
 896 1754 896 1754 896 1728 c 257,15,16
 896 1702 896 1702 877 1683 c 128,-1,17
 858 1664 858 1664 832 1664 c 257,18,-1
 448 1664 l 257,19,20
 409 1664 409 1664 374 1649 c 128,-1,21
 339 1634 339 1634 312.5 1607.5 c 128,-1,22
 286 1581 286 1581 271 1546 c 128,-1,23
 256 1511 256 1511 256 1472 c 257,24,-1
 256 448 l 257,25,26
 256 409 256 409 271 374 c 128,-1,27
 286 339 286 339 312.5 312.5 c 128,-1,28
 339 286 339 286 374 271 c 128,-1,29
 409 256 409 256 448 256 c 257,30,-1
 1472 256 l 257,31,32
 1511 256 1511 256 1546 271 c 128,-1,33
 1581 286 1581 286 1607.5 312.5 c 128,-1,34
 1634 339 1634 339 1649 374 c 128,-1,35
 1664 409 1664 409 1664 448 c 257,36,-1
 1664 832 l 257,37,38
 1664 858 1664 858 1683 877 c 128,-1,39
 1702 896 1702 896 1728 896 c 257,40,41
 1754 896 1754 896 1773 877 c 128,-1,42
 1792 858 1792 858 1792 832 c 257,43,-1
 1792 441 l 257,44,45
 1792 378 1792 378 1766.5 321 c 128,-1,46
 1741 264 1741 264 1698.5 221.5 c 128,-1,47
 1656 179 1656 179 1599 153.5 c 128,-1,48
 1542 128 1542 128 1479 128 c 257,49,-1
 441 128 l 257,0,1
EndSplineSet
Validated: 1
EndChar

StartChar: uE020
Encoding: 33 57376 33
GlifName: uE_020
Width: 2048
VWidth: 0
Flags: W
LayerCount: 2
Fore
SplineSet
896 960 m 257,0,1
 896 986 896 986 915 1005 c 257,2,-1
 1702 1792 l 257,3,-1
 1088 1792 l 257,4,5
 1062 1792 1062 1792 1043 1811 c 128,-1,6
 1024 1830 1024 1830 1024 1856 c 257,7,8
 1024 1882 1024 1882 1043 1901 c 128,-1,9
 1062 1920 1062 1920 1088 1920 c 257,10,-1
 1856 1920 l 257,11,12
 1882 1920 1882 1920 1901 1901 c 128,-1,13
 1920 1882 1920 1882 1920 1856 c 257,14,-1
 1920 1088 l 257,15,16
 1920 1062 1920 1062 1901 1043 c 128,-1,17
 1882 1024 1882 1024 1856 1024 c 257,18,19
 1830 1024 1830 1024 1811 1043 c 128,-1,20
 1792 1062 1792 1062 1792 1088 c 257,21,-1
 1792 1701 l 257,22,-1
 1005 915 l 257,23,24
 986 896 986 896 960 896 c 257,25,26
 934 896 934 896 915 915 c 128,-1,27
 896 934 896 934 896 960 c 257,0,1
EndSplineSet
Validated: 1
EndChar

StartChar: uE021
Encoding: 34 57377 34
GlifName: uE_021
Width: 2048
VWidth: 0
Flags: W
LayerCount: 2
Fore
SplineSet
1245.5 638 m 257,0,1
 1045.5 951 1045.5 951 1023.5 978 c 257,2,-1
 1020.5 978 l 257,3,4
 1020.5 974 1020.5 974 801.5 635 c 257,5,-1
 703.5 719 l 257,6,-1
 947.5 1096 l 257,7,8
 385.5 1961 385.5 1961 385.5 1967 c 257,9,10
 383.5 1981 383.5 1981 383.5 1983 c 257,11,12
 383.5 2039 383.5 2039 450.5 2048 c 257,13,14
 493.5 2048 493.5 2048 543.5 1952 c 257,15,-1
 1346.5 719 l 257,16,-1
 1245.5 638 l 257,0,1
1593.5 2048 m 257,17,-1
 1610.5 2048 l 257,18,19
 1664.5 2032 1664.5 2032 1664.5 1989 c 257,20,-1
 1664.5 1981 l 257,21,22
 1664.5 1956 1664.5 1956 1546.5 1787 c 257,23,24
 1495.5 1702 1495.5 1702 1178.5 1219 c 257,25,-1
 1175.5 1219 l 257,26,27
 1172.5 1219 1172.5 1219 1102.5 1329 c 257,28,-1
 1102.5 1334 l 257,29,30
 1531.5 1996 1531.5 1996 1557.5 2034 c 257,31,32
 1580.5 2048 1580.5 2048 1593.5 2048 c 257,17,-1
EndSplineSet
Validated: 1
EndChar

StartChar: uE022
Encoding: 35 57378 35
GlifName: uE_022
Width: 2048
VWidth: 0
Flags: W
LayerCount: 2
Fore
SplineSet
802 635 m 257,0,1
 898 523 898 523 898 385 c 257,2,3
 898 185 898 185 715 56 c 257,4,5
 615 0 615 0 524 0 c 257,6,-1
 502 0 l 257,7,8
 317 0 317 0 190 174 c 257,9,10
 128 274 128 274 128 374 c 257,11,-1
 128 388 l 257,12,13
 128 589 128 589 313 714 c 257,14,15
 409 767 409 767 493 767 c 257,16,-1
 530 767 l 257,17,18
 607 767 607 767 704 719 c 257,19,-1
 802 635 l 257,0,1
1347 719 m 257,20,21
 1437 767 1437 767 1519 767 c 257,22,-1
 1555 767 l 257,23,24
 1729 767 1729 767 1861 593 c 257,25,26
 1920 490 1920 490 1920 388 c 257,27,-1
 1920 374 l 257,28,29
 1920 189 1920 189 1746 62 c 257,30,31
 1647 0 1647 0 1547 0 c 257,32,-1
 1524 0 l 257,33,34
 1330 0 1330 0 1198 197 c 257,35,36
 1151 297 1151 297 1151 385 c 257,37,38
 1151 518 1151 518 1246 638 c 257,39,-1
 1347 719 l 257,20,21
257 385 m 257,40,-1
 257 379 l 257,41,42
 257 237 257 237 403 152 c 257,43,44
 462 129 462 129 504 129 c 257,45,-1
 518 129 l 257,46,47
 668 129 668 129 749 287 c 257,48,49
 763 321 763 321 769 382 c 257,50,51
 769 551 769 551 589 629 c 257,52,53
 543 638 543 638 510 641 c 257,54,55
 383 641 383 641 294 517 c 257,56,57
 257 453 257 453 257 385 c 257,40,-1
1280 382 m 257,58,59
 1280 249 1280 249 1409 163 c 257,60,61
 1470 129 1470 129 1530 129 c 257,62,-1
 1538 129 l 257,63,64
 1706 129 1706 129 1780 306 c 257,65,66
 1791 347 1791 347 1791 385 c 257,67,-1
 1791 388 l 257,68,69
 1791 526 1791 526 1656 610 c 257,70,71
 1598 638 1598 638 1533 641 c 257,72,73
 1401 641 1401 641 1311 506 c 257,74,75
 1281 442 1281 442 1280 382 c 257,58,59
EndSplineSet
Validated: 1
EndChar

StartChar: uE023
Encoding: 36 57379 36
GlifName: uE_023
Width: 2048
VWidth: 0
Flags: W
LayerCount: 2
Fore
SplineSet
768 128 m 257,0,-1
 768 89 l 257,1,2
 768 66 768 66 769.5 44 c 128,-1,3
 771 22 771 22 779 0 c 257,4,-1
 507 0 l 257,5,6
 457 0 457 0 411.5 20.5 c 128,-1,7
 366 41 366 41 331.5 75.5 c 128,-1,8
 297 110 297 110 276.5 155.5 c 128,-1,9
 256 201 256 201 256 251 c 257,10,-1
 256 1029 l 257,11,12
 256 1078 256 1078 276 1123 c 128,-1,13
 296 1168 296 1168 330 1203 c 128,-1,14
 364 1238 364 1238 408.5 1259 c 128,-1,15
 453 1280 453 1280 502 1280 c 257,16,-1
 512 1280 l 257,17,-1
 512 1536 l 257,18,19
 512 1644 512 1644 552 1736.5 c 128,-1,20
 592 1829 592 1829 661 1897 c 128,-1,21
 730 1965 730 1965 823.5 2004 c 128,-1,22
 917 2043 917 2043 1024 2043 c 257,23,24
 1131 2043 1131 2043 1224.5 2004 c 128,-1,25
 1318 1965 1318 1965 1387 1897 c 128,-1,26
 1456 1829 1456 1829 1496 1736.5 c 128,-1,27
 1536 1644 1536 1644 1536 1536 c 257,28,-1
 1536 1280 l 257,29,-1
 1589 1275 l 257,30,31
 1516 1264 1516 1264 1448.5 1233 c 128,-1,32
 1381 1202 1381 1202 1325 1152 c 257,33,-1
 512 1152 l 257,34,35
 485 1152 485 1152 462 1142 c 128,-1,36
 439 1132 439 1132 421.5 1114.5 c 128,-1,37
 404 1097 404 1097 394 1074 c 128,-1,38
 384 1051 384 1051 384 1024 c 257,39,-1
 384 256 l 257,40,41
 384 229 384 229 394 205.5 c 128,-1,42
 404 182 404 182 421 165 c 128,-1,43
 438 148 438 148 461.5 138 c 128,-1,44
 485 128 485 128 512 128 c 257,45,-1
 768 128 l 257,0,-1
640 1280 m 257,46,-1
 1408 1280 l 257,47,-1
 1408 1536 l 257,48,49
 1408 1617 1408 1617 1378 1686.5 c 128,-1,50
 1348 1756 1348 1756 1296.5 1807.5 c 128,-1,51
 1245 1859 1245 1859 1175 1888 c 128,-1,52
 1105 1917 1105 1917 1024 1917 c 257,53,54
 943 1917 943 1917 873 1887.5 c 128,-1,55
 803 1858 803 1858 751.5 1807 c 128,-1,56
 700 1756 700 1756 670 1686.5 c 128,-1,57
 640 1617 640 1617 640 1536 c 257,58,-1
 640 1280 l 257,46,-1
EndSplineSet
Validated: 1
EndChar

StartChar: uE024
Encoding: 37 57380 37
GlifName: uE_024
Width: 2048
VWidth: 0
Flags: W
LayerCount: 2
Fore
SplineSet
2048 768 m 257,0,-1
 2048 760 l 257,1,2
 2048 685 2048 685 2017.5 616.5 c 128,-1,3
 1987 548 1987 548 1935.5 496.5 c 128,-1,4
 1884 445 1884 445 1815.5 414.5 c 128,-1,5
 1747 384 1747 384 1672 384 c 257,6,7
 1637 384 1637 384 1603 389 c 128,-1,8
 1569 394 1569 394 1536 406 c 257,9,10
 1536 395 1536 395 1536.5 381 c 128,-1,11
 1537 367 1537 367 1537 352 c 257,12,13
 1537 334 1537 334 1535 317 c 128,-1,14
 1533 300 1533 300 1526 286.5 c 128,-1,15
 1519 273 1519 273 1506 264.5 c 128,-1,16
 1493 256 1493 256 1472 256 c 257,17,-1
 1408 256 l 257,18,19
 1408 209 1408 209 1405.5 183.5 c 128,-1,20
 1403 158 1403 158 1390.5 145.5 c 128,-1,21
 1378 133 1378 133 1352 130.5 c 128,-1,22
 1326 128 1326 128 1280 128 c 257,23,-1
 1280 94 l 257,24,25
 1280 77 1280 77 1278 60.5 c 128,-1,26
 1276 44 1276 44 1269.5 30.5 c 128,-1,27
 1263 17 1263 17 1250.5 8.5 c 128,-1,28
 1238 0 1238 0 1216 0 c 257,29,-1
 960 0 l 257,30,31
 934 0 934 0 915 19 c 128,-1,32
 896 38 896 38 896 64 c 257,33,-1
 896 256 l 257,34,35
 896 282 896 282 915 301 c 257,36,-1
 1291 677 l 257,37,38
 1280 729 1280 729 1280 776 c 257,39,40
 1280 854 1280 854 1311 922.5 c 128,-1,41
 1342 991 1342 991 1395 1042 c 128,-1,42
 1448 1093 1448 1093 1517.5 1122.5 c 128,-1,43
 1587 1152 1587 1152 1664 1152 c 257,44,45
 1744 1152 1744 1152 1814 1122 c 128,-1,46
 1884 1092 1884 1092 1936 1040 c 128,-1,47
 1988 988 1988 988 2018 918 c 128,-1,48
 2048 848 2048 848 2048 768 c 257,0,-1
1856 864 m 257,49,50
 1856 904 1856 904 1828 932 c 128,-1,51
 1800 960 1800 960 1760 960 c 257,52,53
 1720 960 1720 960 1692 932 c 128,-1,54
 1664 904 1664 904 1664 864 c 257,55,56
 1664 824 1664 824 1692 796 c 128,-1,57
 1720 768 1720 768 1760 768 c 257,58,59
 1800 768 1800 768 1828 796 c 128,-1,60
 1856 824 1856 824 1856 864 c 257,49,50
EndSplineSet
Validated: 1
EndChar

StartChar: uE025
Encoding: 38 57381 38
GlifName: uE_025
Width: 2048
VWidth: 0
Flags: W
LayerCount: 2
Fore
SplineSet
2047 1024 m 257,0,1
 2047 883 2047 883 2010.5 752 c 128,-1,2
 1974 621 1974 621 1907.5 507.5 c 128,-1,3
 1841 394 1841 394 1747.5 300.5 c 128,-1,4
 1654 207 1654 207 1540.5 140.5 c 128,-1,5
 1427 74 1427 74 1296 37.5 c 128,-1,6
 1165 1 1165 1 1024 1 c 257,7,8
 883 1 883 1 752 37.5 c 128,-1,9
 621 74 621 74 507.5 140.5 c 128,-1,10
 394 207 394 207 300.5 300.5 c 128,-1,11
 207 394 207 394 140 507.5 c 128,-1,12
 73 621 73 621 36.5 752 c 128,-1,13
 0 883 0 883 0 1024 c 257,14,15
 0 1050 0 1050 19 1069 c 128,-1,16
 38 1088 38 1088 64 1088 c 257,17,18
 90 1088 90 1088 109 1069 c 128,-1,19
 128 1050 128 1050 128 1024 c 257,20,21
 128 860 128 860 185.5 708 c 128,-1,22
 243 556 243 556 351 433 c 257,23,24
 414 361 414 361 491 304.5 c 128,-1,25
 568 248 568 248 654 209 c 128,-1,26
 740 170 740 170 833 149.5 c 128,-1,27
 926 129 926 129 1022 129 c 257,28,29
 1146 129 1146 129 1260.5 161 c 128,-1,30
 1375 193 1375 193 1475 251 c 128,-1,31
 1575 309 1575 309 1656.5 390.5 c 128,-1,32
 1738 472 1738 472 1796.5 571.5 c 128,-1,33
 1855 671 1855 671 1887 785.5 c 128,-1,34
 1919 900 1919 900 1919 1024 c 257,35,36
 1919 1148 1919 1148 1887 1262.5 c 128,-1,37
 1855 1377 1855 1377 1796.5 1476.5 c 128,-1,38
 1738 1576 1738 1576 1656.5 1657.5 c 128,-1,39
 1575 1739 1575 1739 1475.5 1797.5 c 128,-1,40
 1376 1856 1376 1856 1261.5 1888 c 128,-1,41
 1147 1920 1147 1920 1023 1920 c 257,42,43
 913 1920 913 1920 808 1893.5 c 128,-1,44
 703 1867 703 1867 608.5 1817.5 c 128,-1,45
 514 1768 514 1768 432.5 1697 c 128,-1,46
 351 1626 351 1626 289 1536 c 257,47,-1
 704 1536 l 257,48,49
 730 1536 730 1536 749 1517 c 128,-1,50
 768 1498 768 1498 768 1472 c 257,51,52
 768 1446 768 1446 749 1427 c 128,-1,53
 730 1408 730 1408 704 1408 c 257,54,-1
 192 1408 l 257,55,56
 171 1408 171 1408 158 1416.5 c 128,-1,57
 145 1425 145 1425 138 1438.5 c 128,-1,58
 131 1452 131 1452 129 1468.5 c 128,-1,59
 127 1485 127 1485 127 1502 c 257,60,61
 127 1623 127 1623 127.5 1743 c 128,-1,62
 128 1863 128 1863 128 1984 c 257,63,64
 128 2010 128 2010 147 2029 c 128,-1,65
 166 2048 166 2048 192 2048 c 257,66,67
 218 2048 218 2048 237 2029 c 128,-1,68
 256 2010 256 2010 256 1984 c 257,69,-1
 256 1702 l 257,70,71
 329 1785 329 1785 417 1849.5 c 128,-1,72
 505 1914 505 1914 603 1958 c 128,-1,73
 701 2002 701 2002 807 2025 c 128,-1,74
 913 2048 913 2048 1024 2048 c 257,75,76
 1165 2048 1165 2048 1296 2011.5 c 128,-1,77
 1427 1975 1427 1975 1540.5 1908 c 128,-1,78
 1654 1841 1654 1841 1747.5 1747.5 c 128,-1,79
 1841 1654 1841 1654 1907.5 1540.5 c 128,-1,80
 1974 1427 1974 1427 2010.5 1296 c 128,-1,81
 2047 1165 2047 1165 2047 1024 c 257,0,1
EndSplineSet
Validated: 1
EndChar

StartChar: uE026
Encoding: 39 57382 39
GlifName: uE_026
Width: 2048
VWidth: 0
Flags: W
LayerCount: 2
Fore
SplineSet
1024 1114 m 257,0,-1
 1389 749 l 257,1,2
 1408 730 1408 730 1408 704 c 257,3,4
 1408 678 1408 678 1389 659 c 128,-1,5
 1370 640 1370 640 1344 640 c 257,6,7
 1318 640 1318 640 1299 659 c 257,8,-1
 915 1043 l 257,9,10
 896 1062 896 1062 896 1088 c 257,11,-1
 896 1600 l 257,12,13
 896 1626 896 1626 915 1645 c 128,-1,14
 934 1664 934 1664 960 1664 c 257,15,16
 986 1664 986 1664 1005 1645 c 128,-1,17
 1024 1626 1024 1626 1024 1600 c 257,18,-1
 1024 1114 l 257,0,-1
EndSplineSet
Validated: 1
EndChar

StartChar: uE027
Encoding: 40 57383 40
GlifName: uE_027
Width: 2048
VWidth: 0
Flags: W
LayerCount: 2
Fore
SplineSet
412 640 m 257,0,1
 328 640 328 640 253 675 c 128,-1,2
 178 710 178 710 121.5 768.5 c 128,-1,3
 65 827 65 827 32.5 903.5 c 128,-1,4
 0 980 0 980 0 1063 c 257,5,6
 0 1148 0 1148 29 1226 c 128,-1,7
 58 1304 58 1304 110.5 1364.5 c 128,-1,8
 163 1425 163 1425 236 1462.5 c 128,-1,9
 309 1500 309 1500 397 1504 c 257,10,-1
 429 1505 l 257,11,12
 440 1628 440 1628 488 1728 c 128,-1,13
 536 1828 536 1828 614 1899.5 c 128,-1,14
 692 1971 692 1971 796.5 2009.5 c 128,-1,15
 901 2048 901 2048 1024 2048 c 257,16,17
 1147 2048 1147 2048 1251.5 2009 c 128,-1,18
 1356 1970 1356 1970 1434 1899 c 128,-1,19
 1512 1828 1512 1828 1560 1728 c 128,-1,20
 1608 1628 1608 1628 1619 1505 c 257,21,-1
 1635 1505 l 257,22,23
 1719 1505 1719 1505 1794.5 1470 c 128,-1,24
 1870 1435 1870 1435 1926 1376.5 c 128,-1,25
 1982 1318 1982 1318 2015 1241 c 128,-1,26
 2048 1164 2048 1164 2048 1081 c 257,27,-1
 2048 1058 l 257,28,29
 2048 1053 2048 1053 2048 1047 c 128,-1,30
 2048 1041 2048 1041 2047 1036 c 257,31,32
 1983 1114 1983 1114 1904 1172 c 257,33,34
 1888 1219 1888 1219 1860 1257 c 128,-1,35
 1832 1295 1832 1295 1795 1321.5 c 128,-1,36
 1758 1348 1758 1348 1713 1362.5 c 128,-1,37
 1668 1377 1668 1377 1619 1377 c 257,38,39
 1567 1377 1567 1377 1533 1409.5 c 128,-1,40
 1499 1442 1499 1442 1491 1492 c 257,41,42
 1486 1528 1486 1528 1479.5 1562 c 128,-1,43
 1473 1596 1473 1596 1460 1631 c 257,44,45
 1434 1703 1434 1703 1390.5 1757 c 128,-1,46
 1347 1811 1347 1811 1290.5 1847.5 c 128,-1,47
 1234 1884 1234 1884 1166.5 1902 c 128,-1,48
 1099 1920 1099 1920 1024 1920 c 257,49,50
 949 1920 949 1920 881.5 1902 c 128,-1,51
 814 1884 814 1884 757.5 1848 c 128,-1,52
 701 1812 701 1812 657.5 1758 c 128,-1,53
 614 1704 614 1704 588 1632 c 257,54,55
 575 1597 575 1597 568.5 1563 c 128,-1,56
 562 1529 562 1529 557 1492 c 257,57,58
 549 1433 549 1433 510.5 1405 c 128,-1,59
 472 1377 472 1377 415 1377 c 257,60,61
 354 1377 354 1377 301.5 1351.5 c 128,-1,62
 249 1326 249 1326 210.5 1283.5 c 128,-1,63
 172 1241 172 1241 150 1186 c 128,-1,64
 128 1131 128 1131 128 1072 c 257,65,66
 128 1011 128 1011 150 956 c 128,-1,67
 172 901 172 901 211 859 c 128,-1,68
 250 817 250 817 303.5 792.5 c 128,-1,69
 357 768 357 768 420 768 c 257,70,-1
 761 768 l 257,71,72
 752 736 752 736 747 704 c 128,-1,73
 742 672 742 672 739 640 c 257,74,-1
 412 640 l 257,0,1
EndSplineSet
Validated: 1
EndChar

StartChar: uE028
Encoding: 41 57384 41
GlifName: uE_028
Width: 2048
VWidth: 0
Flags: W
LayerCount: 2
Fore
SplineSet
896 576 m 257,0,1
 896 695 896 695 941.5 800 c 128,-1,2
 987 905 987 905 1065 983 c 128,-1,3
 1143 1061 1143 1061 1248 1106.5 c 128,-1,4
 1353 1152 1353 1152 1472 1152 c 257,5,6
 1551 1152 1551 1152 1624.5 1131.5 c 128,-1,7
 1698 1111 1698 1111 1762 1073.5 c 128,-1,8
 1826 1036 1826 1036 1879 983 c 128,-1,9
 1932 930 1932 930 1969.5 866 c 128,-1,10
 2007 802 2007 802 2027.5 728.5 c 128,-1,11
 2048 655 2048 655 2048 576 c 257,12,13
 2048 457 2048 457 2002.5 352 c 128,-1,14
 1957 247 1957 247 1879 169 c 128,-1,15
 1801 91 1801 91 1696 45.5 c 128,-1,16
 1591 0 1591 0 1472 0 c 257,17,18
 1352 0 1352 0 1247 45 c 128,-1,19
 1142 90 1142 90 1064 168 c 128,-1,20
 986 246 986 246 941 351 c 128,-1,21
 896 456 896 456 896 576 c 257,0,1
1472 248 m 257,22,23
 1502 248 1502 248 1523 269 c 257,24,-1
 1779 525 l 257,25,26
 1800 546 1800 546 1800 576 c 257,27,28
 1800 606 1800 606 1779 627 c 128,-1,29
 1758 648 1758 648 1728 648 c 257,30,31
 1698 648 1698 648 1677 627 c 257,32,-1
 1536 486 l 257,33,-1
 1536 832 l 257,34,35
 1536 858 1536 858 1517 877 c 128,-1,36
 1498 896 1498 896 1472 896 c 257,37,38
 1446 896 1446 896 1427 877 c 128,-1,39
 1408 858 1408 858 1408 832 c 257,40,-1
 1408 486 l 257,41,-1
 1267 627 l 257,42,43
 1246 648 1246 648 1216 648 c 257,44,45
 1186 648 1186 648 1165 627 c 128,-1,46
 1144 606 1144 606 1144 576 c 257,47,48
 1144 546 1144 546 1165 525 c 257,49,-1
 1421 269 l 257,50,51
 1442 248 1442 248 1472 248 c 257,22,23
EndSplineSet
Validated: 1
EndChar

StartChar: uE029
Encoding: 42 57385 42
GlifName: uE_029
Width: 2048
VWidth: 0
Flags: W
LayerCount: 2
Fore
SplineSet
768 256 m 257,0,-1
 768 213 l 257,1,2
 768 192 768 192 769 170.5 c 128,-1,3
 770 149 770 149 774 128 c 257,4,-1
 441 128 l 257,5,6
 378 128 378 128 321 153.5 c 128,-1,7
 264 179 264 179 221.5 221.5 c 128,-1,8
 179 264 179 264 153.5 321 c 128,-1,9
 128 378 128 378 128 441 c 257,10,-1
 128 1607 l 257,11,12
 128 1670 128 1670 153.5 1727 c 128,-1,13
 179 1784 179 1784 221.5 1826.5 c 128,-1,14
 264 1869 264 1869 321 1894.5 c 128,-1,15
 378 1920 378 1920 441 1920 c 257,16,-1
 1607 1920 l 257,17,18
 1670 1920 1670 1920 1727 1894.5 c 128,-1,19
 1784 1869 1784 1869 1826.5 1826.5 c 128,-1,20
 1869 1784 1869 1784 1894.5 1727 c 128,-1,21
 1920 1670 1920 1670 1920 1607 c 257,22,-1
 1920 1017 l 257,23,-1
 1914 1019 l 257,24,25
 1903 1078 1903 1078 1871.5 1129 c 128,-1,26
 1840 1180 1840 1180 1792 1216 c 257,27,-1
 1792 1408 l 257,28,-1
 256 1408 l 257,29,-1
 256 448 l 257,30,31
 256 409 256 409 271 374 c 128,-1,32
 286 339 286 339 312.5 312.5 c 128,-1,33
 339 286 339 286 374 271 c 128,-1,34
 409 256 409 256 448 256 c 257,35,-1
 768 256 l 257,0,-1
448 1792 m 257,36,37
 409 1792 409 1792 374 1777 c 128,-1,38
 339 1762 339 1762 312.5 1735.5 c 128,-1,39
 286 1709 286 1709 271 1674 c 128,-1,40
 256 1639 256 1639 256 1600 c 257,41,-1
 256 1536 l 257,42,-1
 1792 1536 l 257,43,-1
 1792 1600 l 257,44,45
 1792 1639 1792 1639 1777 1674 c 128,-1,46
 1762 1709 1762 1709 1735.5 1735.5 c 128,-1,47
 1709 1762 1709 1762 1674 1777 c 128,-1,48
 1639 1792 1639 1792 1600 1792 c 257,49,-1
 448 1792 l 257,36,37
EndSplineSet
Validated: 1
EndChar

StartChar: uE02A
Encoding: 43 57386 43
GlifName: uE_02A_
Width: 2048
VWidth: 0
Flags: W
LayerCount: 2
Fore
SplineSet
2048 704 m 257,0,-1
 2048 512 l 257,1,-1
 1792 512 l 257,2,-1
 1792 546 l 257,3,4
 1792 563 1792 563 1790 580 c 128,-1,5
 1788 597 1788 597 1781.5 610.5 c 128,-1,6
 1775 624 1775 624 1762 632 c 128,-1,7
 1749 640 1749 640 1728 640 c 257,8,9
 1706 640 1706 640 1693 631.5 c 128,-1,10
 1680 623 1680 623 1673.5 609.5 c 128,-1,11
 1667 596 1667 596 1665.5 578.5 c 128,-1,12
 1664 561 1664 561 1664 544 c 257,13,-1
 1664 512 l 257,14,-1
 1280 512 l 257,15,-1
 1280 546 l 257,16,17
 1280 563 1280 563 1278 580 c 128,-1,18
 1276 597 1276 597 1269.5 610.5 c 128,-1,19
 1263 624 1263 624 1250 632 c 128,-1,20
 1237 640 1237 640 1216 640 c 257,21,22
 1194 640 1194 640 1181 631.5 c 128,-1,23
 1168 623 1168 623 1161.5 609.5 c 128,-1,24
 1155 596 1155 596 1153.5 578.5 c 128,-1,25
 1152 561 1152 561 1152 544 c 257,26,-1
 1152 512 l 257,27,-1
 896 512 l 257,28,-1
 896 704 l 257,29,30
 896 744 896 744 911 779 c 128,-1,31
 926 814 926 814 952 840 c 128,-1,32
 978 866 978 866 1013 881 c 128,-1,33
 1048 896 1048 896 1088 896 c 257,34,-1
 1152 896 l 257,35,-1
 1152 960 l 257,36,37
 1152 1000 1152 1000 1167 1035 c 128,-1,38
 1182 1070 1182 1070 1208 1096 c 128,-1,39
 1234 1122 1234 1122 1269 1137 c 128,-1,40
 1304 1152 1304 1152 1344 1152 c 257,41,-1
 1600 1152 l 257,42,43
 1639 1152 1639 1152 1674 1137 c 128,-1,44
 1709 1122 1709 1122 1735.5 1095.5 c 128,-1,45
 1762 1069 1762 1069 1777 1034 c 128,-1,46
 1792 999 1792 999 1792 960 c 257,47,-1
 1792 896 l 257,48,-1
 1856 896 l 257,49,50
 1895 896 1895 896 1930 881 c 128,-1,51
 1965 866 1965 866 1991.5 839.5 c 128,-1,52
 2018 813 2018 813 2033 778 c 128,-1,53
 2048 743 2048 743 2048 704 c 257,0,-1
1664 896 m 257,54,-1
 1664 960 l 257,55,56
 1664 986 1664 986 1645 1005 c 128,-1,57
 1626 1024 1626 1024 1600 1024 c 257,58,-1
 1344 1024 l 257,59,60
 1318 1024 1318 1024 1299 1005 c 128,-1,61
 1280 986 1280 986 1280 960 c 257,62,-1
 1280 896 l 257,63,-1
 1664 896 l 257,54,-1
1792 384 m 257,64,-1
 2048 384 l 257,65,-1
 2048 192 l 257,66,67
 2048 153 2048 153 2033 118 c 128,-1,68
 2018 83 2018 83 1991.5 56.5 c 128,-1,69
 1965 30 1965 30 1930 15 c 128,-1,70
 1895 0 1895 0 1856 0 c 257,71,-1
 1088 0 l 257,72,73
 1048 0 1048 0 1013 15 c 128,-1,74
 978 30 978 30 952 56 c 128,-1,75
 926 82 926 82 911 117 c 128,-1,76
 896 152 896 152 896 192 c 257,77,-1
 896 384 l 257,78,-1
 1152 384 l 257,79,-1
 1152 349 l 257,80,81
 1152 332 1152 332 1154 315 c 128,-1,82
 1156 298 1156 298 1162.5 285 c 128,-1,83
 1169 272 1169 272 1182 264 c 128,-1,84
 1195 256 1195 256 1216 256 c 257,85,86
 1238 256 1238 256 1250.5 264.5 c 128,-1,87
 1263 273 1263 273 1269.5 286.5 c 128,-1,88
 1276 300 1276 300 1278 317 c 128,-1,89
 1280 334 1280 334 1280 351 c 257,90,-1
 1280 384 l 257,91,-1
 1664 384 l 257,92,-1
 1664 349 l 257,93,94
 1664 332 1664 332 1666 315 c 128,-1,95
 1668 298 1668 298 1674.5 285 c 128,-1,96
 1681 272 1681 272 1694 264 c 128,-1,97
 1707 256 1707 256 1728 256 c 257,98,99
 1750 256 1750 256 1762.5 264.5 c 128,-1,100
 1775 273 1775 273 1781.5 286.5 c 128,-1,101
 1788 300 1788 300 1790 317 c 128,-1,102
 1792 334 1792 334 1792 351 c 257,103,-1
 1792 384 l 257,64,-1
EndSplineSet
Validated: 1
EndChar

StartChar: uE02B
Encoding: 44 57387 44
GlifName: uE_02B_
Width: 2048
VWidth: 0
Flags: W
LayerCount: 2
Fore
SplineSet
1125 1919 m 257,0,-1
 1762 1919 l 257,1,2
 1958 1919 1958 1919 2028 1759 c 257,3,4
 2048 1715 2048 1715 2048 1633 c 257,5,-1
 2048 668 l 257,6,7
 2048 472 2048 472 1888 402 c 257,8,9
 1842 382 1842 382 1751 382 c 257,10,-1
 1408 382 l 257,11,-1
 1408 129 l 257,12,-1
 1594 129 l 257,13,14
 1664 122 1664 122 1664 68 c 257,15,16
 1656 0 1656 0 1605 0 c 257,17,-1
 443 0 l 257,18,19
 392 0 392 0 384 68 c 257,20,21
 384 122 384 122 454 129 c 257,22,-1
 640 129 l 257,23,-1
 640 382 l 257,24,-1
 297 382 l 257,25,26
 121 382 121 382 53 486 c 257,27,28
 0 545 0 545 0 668 c 257,29,-1
 0 1064 l 257,30,-1
 3 1064 l 257,31,32
 40 1011 40 1011 129 926 c 257,33,-1
 129 660 l 257,34,35
 129 557 129 557 210 519 c 257,36,37
 236 514 236 514 247 514 c 257,38,-1
 1801 514 l 257,39,40
 1882 514 1882 514 1916 615 c 257,41,42
 1919 643 1919 643 1919 660 c 257,43,-1
 1919 1642 l 257,44,45
 1919 1790 1919 1790 1762 1790 c 257,46,-1
 1206 1790 l 257,47,48
 1200 1792 1200 1792 1161 1860 c 257,49,-1
 1119 1917 l 257,50,-1
 1125 1919 l 257,0,-1
769 382 m 257,51,-1
 769 129 l 257,52,-1
 1279 129 l 257,53,-1
 1279 382 l 257,54,-1
 769 382 l 257,51,-1
EndSplineSet
Validated: 1
EndChar

StartChar: uE02C
Encoding: 45 57388 45
GlifName: uE_02C_
Width: 2048
VWidth: 0
Flags: W
LayerCount: 2
Fore
SplineSet
608 2046 m 257,0,1
 645 2046 645 2046 645 2020 c 257,2,3
 645 1970 645 1970 701 1880 c 257,4,5
 788 1785 788 1785 897 1785 c 257,6,-1
 900 1785 l 257,7,8
 946 1785 946 1785 1026 1810 c 257,9,10
 1088 1712 1088 1712 1088 1695 c 257,11,12
 965 1598 965 1598 965 1470 c 257,13,14
 965 1346 965 1346 1088 1243 c 257,15,16
 1064 1182 1064 1182 1024 1131 c 257,17,18
 949 1156 949 1156 897 1156 c 257,19,20
 742 1156 742 1156 662 991 c 257,21,22
 642 898 642 898 631 898 c 257,23,24
 620 895 620 895 608 895 c 257,25,-1
 544 895 l 257,26,27
 510 895 510 895 510 915 c 257,28,29
 487 1030 487 1030 429 1086 c 257,30,31
 349 1156 349 1156 247 1156 c 257,32,33
 210 1156 210 1156 126 1131 c 257,34,35
 67 1222 67 1222 67 1243 c 257,36,37
 188 1350 188 1350 188 1468 c 257,38,-1
 188 1473 l 257,39,40
 188 1591 188 1591 67 1698 c 257,41,42
 76 1738 76 1738 129 1810 c 257,43,44
 199 1785 199 1785 258 1785 c 257,45,-1
 263 1785 l 257,46,47
 358 1785 358 1785 443 1872 c 257,48,49
 492 1929 492 1929 510 2023 c 257,50,51
 510 2046 510 2046 541 2046 c 257,52,-1
 608 2046 l 257,0,1
449 1470 m 257,53,54
 449 1397 449 1397 519 1358 c 257,55,56
 543 1344 543 1344 569 1344 c 257,57,-1
 583 1344 l 257,58,59
 667 1344 667 1344 701 1445 c 257,60,61
 704 1460 704 1460 704 1470 c 257,62,63
 704 1554 704 1554 614 1591 c 257,64,65
 601 1597 601 1597 578 1597 c 257,66,-1
 575 1597 l 257,67,68
 491 1597 491 1597 454 1507 c 257,69,-1
 449 1470 l 257,53,54
EndSplineSet
Validated: 1
EndChar

StartChar: uE02D
Encoding: 46 57389 46
GlifName: uE_02D_
Width: 2048
VWidth: 0
Flags: W
LayerCount: 2
Fore
SplineSet
507 762 m 1,0,-1
 507 763 l 1,1,2
 658 982 658 982 980 1329 c 257,3,4
 1307 1658 1307 1658 1464 1784 c 257,5,6
 1742 2015 1742 2015 1775 2028 c 256,7,8
 1808 2042 1808 2042 1862 2048 c 257,9,10
 1976 2048 1976 2048 2037 1922 c 257,11,12
 2045 1892 2045 1892 2045 1871 c 258,13,-1
 2045 1863 l 258,14,15
 2045 1771 2045 1771 1924 1621 c 257,16,17
 1709 1281 1709 1281 1362 879 c 257,18,19
 1180 671 1180 671 916 427 c 261,20,21
 906 420 906 420 900 411 c 261,22,-1
 869 560 l 261,23,24
 1208 887 1208 887 1326 1037 c 257,25,26
 1574 1324 1574 1324 1823 1700 c 257,27,28
 1916 1827 1916 1827 1916 1860 c 258,29,-1
 1916 1865 l 257,30,31
 1906 1916 1906 1916 1865 1916 c 258,32,-1
 1851 1916 l 258,33,34
 1819 1916 1819 1916 1699 1806 c 257,35,36
 1070 1303 1070 1303 660 753 c 1,37,-1
 507 762 l 1,0,-1
EndSplineSet
Validated: 1
EndChar

StartChar: uE02E
Encoding: 47 57390 47
GlifName: uE_02E_
Width: 2048
VWidth: 0
Flags: W
LayerCount: 2
Fore
SplineSet
661 753 m 257,0,1
 781 713 781 713 837 621 c 257,2,3
 868 566 868 566 868 559 c 257,4,-1
 869 560 l 257,5,-1
 900 411 l 257,6,7
 893 399 893 399 893 382 c 257,8,9
 893 258 893 258 767 143 c 257,10,11
 573 0 573 0 315 0 c 257,12,13
 14 22 14 22 14 62 c 257,14,15
 7 62 7 62 0 90 c 257,16,-1
 0 107 l 257,17,18
 0 144 0 144 110 219 c 257,19,20
 219 312 219 312 219 354 c 257,21,22
 232 383 232 383 244 517 c 257,23,24
 287 653 287 653 379 711 c 257,25,26
 428 740 428 740 506 761 c 257,27,-1
 507 762 l 257,28,-1
 661 753 l 257,0,1
211 138 m 257,29,-1
 211 135 l 257,30,31
 274 129 274 129 303 129 c 257,32,-1
 334 129 l 257,33,34
 523 129 523 129 688 242 c 257,35,36
 767 315 767 315 767 410 c 257,37,38
 767 587 767 587 612 635 c 257,39,-1
 576 641 l 257,40,41
 456 641 456 641 385 534 c 257,42,43
 368 499 368 499 357 368 c 257,44,45
 325 234 325 234 253 177 c 257,46,-1
 211 138 l 257,29,-1
EndSplineSet
Validated: 1
EndChar

StartChar: uE02F
Encoding: 48 57391 48
GlifName: uE_02F_
Width: 2048
VWidth: 0
Flags: W
LayerCount: 2
Fore
SplineSet
1169 590 m 1,0,-1
 1171 590 l 1,1,-1
 1172 591 l 1,2,3
 1346 724 1346 724 1346 933 c 0,4,5
 1346 1134 1346 1134 1166 1270 c 1,6,7
 1057 1343 1057 1343 938 1343 c 2,8,-1
 919 1343 l 2,9,10
 726 1343 726 1343 590 1169 c 1,11,-1
 466 1214 l 1,12,13
 559 1371 559 1371 761 1444 c 0,14,15
 844 1472 844 1472 927 1472 c 0,16,17
 1109 1472 1109 1472 1264 1357 c 1,18,-1
 1267 1357 l 1,19,20
 1950 2040 1950 2040 1955 2040 c 0,21,22
 1969 2048 1969 2048 1986 2048 c 0,23,24
 2033 2048 2033 2048 2048 1995 c 1,25,-1
 2048 1978 l 2,26,27
 2048 1947 2048 1947 1972 1882 c 1,28,29
 1373 1281 1373 1281 1357 1264 c 1,30,31
 1472 1104 1472 1104 1472 952 c 2,32,-1
 1472 921 l 2,33,34
 1472 656 1472 656 1239 480 c 1,35,36
 1228 478 1228 478 1214 462 c 1,37,38
 1181.93528603 517.546034775 1181.93528603 517.546034775 1169 590 c 1,0,-1
EndSplineSet
Validated: 1
EndChar

StartChar: uE030
Encoding: 49 57392 49
GlifName: uE_030
Width: 2048
VWidth: 0
Flags: W
LayerCount: 2
Fore
SplineSet
171 885 m 1,0,-1
 171 882 l 1,1,2
 539 511 539 511 885 169 c 1,3,-1
 1079 492 l 2,4,5
 1079 495 1079 495 907 666 c 0,6,7
 498 1072 498 1072 497 1079 c 1,8,-1
 171 885 l 1,0,-1
590 1169 m 1,9,10
 941 814 941 814 1169 590 c 1,11,-1
 1171 590 l 1,12,-1
 1172 591 l 1,13,14
 1247.93203883 622.718446602 1247.93203883 622.718446602 1282.08605901 622.718446602 c 0,15,16
 1310.00737101 622.718446602 1310.00737101 622.718446602 1310.00737101 601.520202356 c 0,17,18
 1310.00737101 567.714987715 1310.00737101 567.714987715 1239 480 c 1,19,20
 1228 478 1228 478 1214 462 c 0,21,22
 1197 443 1197 443 1177 405 c 0,23,24
 959 37 959 37 938 11 c 1,25,26
 912 0 912 0 902 0 c 2,27,-1
 893 0 l 2,28,29
 859 0 859 0 789 81 c 1,30,31
 18 848 18 848 8 865 c 1,32,-1
 0 893 l 1,33,34
 0 946 0 946 110 997 c 1,35,-1
 466 1214 l 1,36,37
 542.252265861 1275.77945619 542.252265861 1275.77945619 575.76285357 1275.77945619 c 0,38,39
 602.036026201 1275.77945619 602.036026201 1275.77945619 602.036026201 1237.80382239 c 0,40,41
 602.036026201 1212.10043668 602.036026201 1212.10043668 590 1169 c 1,9,10
EndSplineSet
Validated: 1
EndChar

StartChar: uE031
Encoding: 50 57393 50
GlifName: uE_031
Width: 2048
VWidth: 0
InSpiro: 1
Flags: W
LayerCount: 2
Fore
SplineSet
2048 1344 m 257,0,-1
 2048 704 l 257,1,2
 2048 666 2048 666 2033.5 630.5 c 128,-1,3
 2019 595 2019 595 1992 568 c 257,4,5
 1965 541 1965 541 1929.5 526.5 c 128,-1,6
 1894 512 1894 512 1856 512 c 257,7,-1
 1664 512 l 257,8,-1
 1664 320 l 257,9,10
 1664 281 1664 281 1649 246 c 128,-1,11
 1634 211 1634 211 1607.5 184.5 c 128,-1,12
 1581 158 1581 158 1546 143 c 128,-1,13
 1511 128 1511 128 1472 128 c 257,14,-1
 576 128 l 257,15,16
 537 128 537 128 502 143 c 128,-1,17
 467 158 467 158 440.5 184.5 c 128,-1,18
 414 211 414 211 399 246 c 128,-1,19
 384 281 384 281 384 320 c 257,20,-1
 384 512 l 257,21,-1
 192 512 l 257,22,23
 154 512 154 512 118.5 526.5 c 128,-1,24
 83 541 83 541 56 568 c 257,25,26
 29 595 29 595 14.5 630.5 c 128,-1,27
 0 666 0 666 0 704 c 257,28,-1
 0 1344 l 257,29,30
 0 1410 0 1410 25 1468.5 c 128,-1,31
 50 1527 50 1527 93.5 1570.5 c 128,-1,32
 137 1614 137 1614 195.5 1639 c 128,-1,33
 254 1664 254 1664 320 1664 c 257,34,-1
 384 1664 l 257,35,-1
 384 1728 l 257,36,37
 384 1768 384 1768 399 1803 c 128,-1,38
 414 1838 414 1838 440 1864 c 128,-1,39
 466 1890 466 1890 501 1905 c 128,-1,40
 536 1920 536 1920 576 1920 c 257,41,-1
 1472 1920 l 257,42,43
 1512 1920 1512 1920 1547 1905 c 128,-1,44
 1582 1890 1582 1890 1608 1864 c 128,-1,45
 1634 1838 1634 1838 1649 1803 c 128,-1,46
 1664 1768 1664 1768 1664 1728 c 257,47,-1
 1664 1664 l 257,48,-1
 1728 1664 l 257,49,50
 1794 1664 1794 1664 1852.5 1639 c 128,-1,51
 1911 1614 1911 1614 1954.5 1570.5 c 128,-1,52
 1998 1527 1998 1527 2023 1468.5 c 128,-1,53
 2048 1410 2048 1410 2048 1344 c 257,0,-1
512 1664 m 257,54,-1
 1536 1664 l 257,55,-1
 1536 1728 l 257,56,57
 1536 1754 1536 1754 1517 1773 c 128,-1,58
 1498 1792 1498 1792 1472 1792 c 257,59,-1
 576 1792 l 257,60,61
 550 1792 550 1792 531 1773 c 128,-1,62
 512 1754 512 1754 512 1728 c 257,63,-1
 512 1664 l 257,54,-1
1920 1344 m 257,64,65
 1920 1384 1920 1384 1905 1419 c 128,-1,66
 1890 1454 1890 1454 1864 1480 c 128,-1,67
 1838 1506 1838 1506 1803 1521 c 128,-1,68
 1768 1536 1768 1536 1728 1536 c 257,69,-1
 320 1536 l 257,70,71
 280 1536 280 1536 245 1521 c 128,-1,72
 210 1506 210 1506 184 1480 c 128,-1,73
 158 1454 158 1454 143 1419 c 128,-1,74
 128 1384 128 1384 128 1344 c 257,75,-1
 128 704 l 257,76,77
 128 678 128 678 147 659 c 128,-1,78
 166 640 166 640 192 640 c 257,79,-1
 384 640 l 257,80,-1
 384 832 l 257,81,82
 384 871 384 871 399 906 c 128,-1,83
 414 941 414 941 440.5 967.5 c 128,-1,84
 467 994 467 994 502 1009 c 128,-1,85
 537 1024 537 1024 576 1024 c 257,86,-1
 1472 1024 l 257,87,88
 1511 1024 1511 1024 1546 1009 c 128,-1,89
 1581 994 1581 994 1607.5 967.5 c 128,-1,90
 1634 941 1634 941 1649 906 c 128,-1,91
 1664 871 1664 871 1664 832 c 257,92,-1
 1664 640 l 257,93,-1
 1856 640 l 257,94,95
 1882 640 1882 640 1901 659 c 128,-1,96
 1920 678 1920 678 1920 704 c 257,97,-1
 1920 1344 l 257,64,65
1536 832 m 257,98,99
 1536 858 1536 858 1517 877 c 128,-1,100
 1498 896 1498 896 1472 896 c 257,101,-1
 576 896 l 257,102,103
 550 896 550 896 531 877 c 128,-1,104
 512 858 512 858 512 832 c 257,105,-1
 512 320 l 257,106,107
 512 294 512 294 531 275 c 128,-1,108
 550 256 550 256 576 256 c 257,109,-1
 1472 256 l 257,110,111
 1498 256 1498 256 1517 275 c 128,-1,112
 1536 294 1536 294 1536 320 c 257,113,-1
 1536 832 l 257,98,99
EndSplineSet
Validated: 1
EndChar

StartChar: uE032
Encoding: 51 57394 51
GlifName: uE_032
Width: 2048
VWidth: 0
InSpiro: 1
Flags: W
LayerCount: 2
Fore
SplineSet
1664 320 m 2,0,1
 1664.11687179 300.839184466 1664.11687179 300.839184466 1660.25 282 c 0,2,3
 1656.47054743 263.586717127 1656.47054743 263.586717127 1649 246 c 0,4,5
 1641.64912623 228.695011456 1641.64912623 228.695011456 1631.125 213.125 c 128,-1,6
 1620.6965759 197.696575899 1620.6965759 197.696575899 1607.5 184.5 c 128,-1,7
 1594.3034241 171.303424101 1594.3034241 171.303424101 1578.875 160.875 c 128,-1,8
 1563.30498854 150.350873773 1563.30498854 150.350873773 1546 143 c 0,9,10
 1528.41328287 135.529452571 1528.41328287 135.529452571 1510 131.75 c 0,11,12
 1491.16081553 127.883128207 1491.16081553 127.883128207 1472 128 c 2,13,-1
 576 128 l 2,14,15
 556.839184466 127.883128207 556.839184466 127.883128207 538 131.75 c 0,16,17
 519.586717127 135.529452571 519.586717127 135.529452571 502 143 c 0,18,19
 484.695011456 150.350873773 484.695011456 150.350873773 469.125 160.875 c 128,-1,20
 453.696575899 171.303424101 453.696575899 171.303424101 440.5 184.5 c 128,-1,21
 427.303424101 197.696575899 427.303424101 197.696575899 416.875 213.125 c 128,-1,22
 406.350873773 228.695011456 406.350873773 228.695011456 399 246 c 0,23,24
 391.529452571 263.586717127 391.529452571 263.586717127 387.75 282 c 0,25,26
 383.883128207 300.839184466 383.883128207 300.839184466 384 320 c 2,27,-1
 384 832 l 2,28,29
 383.883128207 851.160815534 383.883128207 851.160815534 387.75 870 c 0,30,31
 391.529452571 888.413282873 391.529452571 888.413282873 399 906 c 0,32,33
 406.350873773 923.304988544 406.350873773 923.304988544 416.875 938.875 c 128,-1,34
 427.303424101 954.303424101 427.303424101 954.303424101 440.5 967.5 c 128,-1,35
 453.696575899 980.696575899 453.696575899 980.696575899 469.125 991.125 c 128,-1,36
 484.695011456 1001.64912623 484.695011456 1001.64912623 502 1009 c 0,37,38
 519.586717127 1016.47054743 519.586717127 1016.47054743 538 1020.25 c 0,39,40
 556.839184466 1024.11687179 556.839184466 1024.11687179 576 1024 c 2,41,-1
 1472 1024 l 2,42,43
 1491.16081553 1024.11687179 1491.16081553 1024.11687179 1510 1020.25 c 0,44,45
 1528.41328287 1016.47054743 1528.41328287 1016.47054743 1546 1009 c 0,46,47
 1563.30498854 1001.64912623 1563.30498854 1001.64912623 1578.875 991.125 c 128,-1,48
 1594.3034241 980.696575899 1594.3034241 980.696575899 1607.5 967.5 c 128,-1,49
 1620.6965759 954.303424101 1620.6965759 954.303424101 1631.125 938.875 c 128,-1,50
 1641.64912623 923.304988544 1641.64912623 923.304988544 1649 906 c 0,51,52
 1656.47054743 888.413282873 1656.47054743 888.413282873 1660.25 870 c 0,53,54
 1664.11687179 851.160815534 1664.11687179 851.160815534 1664 832 c 2,55,-1
 1664 320 l 2,0,1
  Spiro
    1664 320 v
    1660.25 282 o
    1649 246 o
    1631.12 213.125 o
    1607.5 184.5 o
    1578.88 160.875 o
    1546 143 o
    1510 131.75 o
    1472 128 v
    576 128 v
    538 131.75 o
    502 143 o
    469.125 160.875 o
    440.5 184.5 o
    416.875 213.125 o
    399 246 o
    387.75 282 o
    384 320 v
    384 832 v
    387.75 870 o
    399 906 o
    416.875 938.875 o
    440.5 967.5 o
    469.125 991.125 o
    502 1009 o
    538 1020.25 o
    576 1024 v
    1472 1024 v
    1510 1020.25 o
    1546 1009 o
    1578.88 991.125 o
    1607.5 967.5 o
    1631.12 938.875 o
    1649 906 o
    1660.25 870 o
    1664 832 v
    0 0 z
  EndSpiro
1536 832 m 258,56,57
 1536 858 1536 858 1517 877 c 128,-1,58
 1498 896 1498 896 1472 896 c 258,59,-1
 576 896 l 258,60,61
 550 896 550 896 531 877 c 128,-1,62
 512 858 512 858 512 832 c 258,63,-1
 512 320 l 258,64,65
 512 294 512 294 531 275 c 128,-1,66
 550 256 550 256 576 256 c 258,67,-1
 1472 256 l 258,68,69
 1498 256 1498 256 1517 275 c 128,-1,70
 1536 294 1536 294 1536 320 c 258,71,-1
 1536 832 l 258,56,57
  Spiro
    1536 832 v
    1531.25 856.25 o
    1517 877 o
    1496.25 891.25 o
    1472 896 v
    576 896 v
    551.75 891.25 o
    531 877 o
    516.75 856.25 o
    512 832 v
    512 320 v
    516.75 295.75 o
    531 275 o
    551.75 260.75 o
    576 256 v
    1472 256 v
    1496.25 260.75 o
    1517 275 o
    1531.25 295.75 o
    1536 320 v
    0 0 z
  EndSpiro
EndSplineSet
Validated: 1
EndChar

StartChar: uE033
Encoding: 52 57395 52
GlifName: uE_033
Width: 2048
VWidth: 0
Flags: W
LayerCount: 2
Fore
SplineSet
1503 273 m 257,0,-1
 1985 273 l 257,1,2
 2035 273 2035 273 2048 207 c 257,3,-1
 2048 204 l 257,4,5
 2035 138 2035 138 1985 138 c 257,6,-1
 1503 138 l 257,7,-1
 1503 273 l 257,0,-1
540 138 m 257,8,-1
 63 138 l 257,9,10
 0 150 0 150 0 198 c 257,11,-1
 0 213 l 257,12,13
 0 260 0 260 63 273 c 257,14,-1
 541 273 l 257,15,-1
 540 138 l 257,8,-1
954 551 m 257,16,-1
 954 822 l 257,17,-1
 261 822 l 257,18,19
 98 822 98 822 15 999 c 257,20,21
 0 1045 0 1045 0 1082 c 257,22,-1
 0 1373 l 257,23,24
 0 1535 0 1535 168 1619 c 257,25,26
 219 1640 219 1640 288 1640 c 257,27,-1
 1754 1640 l 257,28,29
 1964 1640 1964 1640 2036 1448 c 257,30,31
 2048 1400 2048 1400 2048 1352 c 257,32,-1
 2048 1106 l 257,33,34
 2048 888 2048 888 1826 825 c 257,35,36
 1800 822 1800 822 1781 822 c 257,37,-1
 1091 822 l 257,38,-1
 1091 552 l 257,39,-1
 954 551 l 257,16,-1
135 1364 m 257,40,-1
 135 1103 l 257,41,42
 135 999 135 999 231 963 c 257,43,44
 255 957 255 957 282 957 c 257,45,-1
 1772 957 l 257,46,47
 1873 957 1873 957 1907 1061 c 257,48,49
 1910 1073 1910 1073 1910 1085 c 257,50,-1
 1910 1376 l 257,51,52
 1910 1460 1910 1460 1808 1499 c 257,53,54
 1792 1502 1792 1502 1781 1502 c 257,55,-1
 264 1502 l 257,56,57
 174 1502 174 1502 138 1394 c 257,58,59
 135 1379 135 1379 135 1364 c 257,40,-1
1535 1367 m 257,60,61
 1637 1347 1637 1347 1637 1274 c 257,62,-1
 1637 1262 l 257,63,64
 1637 1193 1637 1193 1559 1163 c 257,65,66
 1538 1163 1538 1163 1535 1160 c 257,67,68
 1449 1160 1449 1160 1433 1265 c 257,69,70
 1451 1367 1451 1367 1535 1367 c 257,60,61
EndSplineSet
Validated: 1
EndChar

StartChar: uE034
Encoding: 53 57396 53
GlifName: uE_034
Width: 2048
VWidth: 0
Flags: W
LayerCount: 2
Fore
SplineSet
541 273 m 257,0,1
 546 277 546 277 552 324 c 257,2,3
 597 411 597 411 684 411 c 257,4,-1
 819 411 l 257,5,-1
 819 420 l 257,6,7
 819 506 819 506 927 546 c 257,8,9
 951 546 951 546 954 551 c 257,10,-1
 1091 552 l 257,11,12
 1091 547 1091 547 1142 540 c 257,13,14
 1229 493 1229 493 1229 411 c 257,15,-1
 1364 411 l 257,16,17
 1460 411 1460 411 1496 312 c 257,18,19
 1502 288 1502 288 1502 273 c 257,20,-1
 1503 273 l 257,21,-1
 1503 138 l 257,22,-1
 1502 138 l 257,23,-1
 1502 135 l 257,24,25
 1502 30 1502 30 1379 0 c 257,26,-1
 678 0 l 257,27,28
 582 0 582 0 546 111 c 257,29,30
 546 137 546 137 540 138 c 257,31,-1
 541 273 l 257,0,1
957 411 m 257,32,-1
 957 357 l 257,33,34
 957 273 957 273 882 273 c 257,35,-1
 684 273 l 257,36,-1
 684 138 l 257,37,-1
 1364 138 l 257,38,-1
 1364 273 l 257,39,-1
 1157 273 l 257,40,41
 1091 287 1091 287 1091 336 c 257,42,-1
 1091 411 l 257,43,-1
 957 411 l 257,32,-1
EndSplineSet
Validated: 1
EndChar

StartChar: uE035
Encoding: 54 57397 54
GlifName: uE_035
Width: 2048
VWidth: 0
Flags: W
LayerCount: 2
Fore
SplineSet
330 2048 m 257,0,-1
 1445 2048 l 257,1,2
 1552 2048 1552 2048 1616 1934 c 257,3,4
 1637 1896 1637 1896 1637 1844 c 257,5,-1
 1637 1160 l 257,6,7
 1637 1019 1637 1019 1490 966 c 257,8,9
 1469 957 1469 957 1430 957 c 257,10,-1
 342 957 l 257,11,12
 218 957 218 957 156 1073 c 257,13,14
 135 1111 135 1111 135 1169 c 257,15,-1
 135 1835 l 257,16,17
 135 1990 135 1990 288 2042 c 257,18,19
 310 2048 310 2048 330 2048 c 257,0,-1
273 1850 m 257,20,-1
 273 1154 l 257,21,22
 273 1100 273 1100 351 1091 c 257,23,-1
 1406 1091 l 257,24,25
 1502 1091 1502 1091 1502 1175 c 257,26,-1
 1502 1829 l 257,27,28
 1502 1913 1502 1913 1427 1913 c 257,29,-1
 339 1913 l 257,30,31
 273 1900 273 1900 273 1850 c 257,20,-1
542 137 m 257,32,33
 541 138 541 138 540 138 c 257,34,-1
 60 138 l 257,35,36
 0 150 0 150 0 198 c 257,37,-1
 0 216 l 257,38,39
 17 273 17 273 63 273 c 257,40,-1
 539 273 l 257,41,-1
 542 137 l 257,32,33
1504 273 m 257,42,-1
 1982 273 l 257,43,44
 2048 261 2048 261 2048 207 c 257,45,-1
 2048 204 l 257,46,47
 2036 138 2036 138 1985 138 c 257,48,-1
 1503 138 l 257,49,-1
 1504 273 l 257,42,-1
954 546 m 257,50,-1
 954 684 l 257,51,-1
 612 684 l 257,52,53
 479 684 479 684 423 819 c 257,54,-1
 1541 819 l 257,55,56
 1702 819 1702 819 1760 945 c 257,57,58
 1775 992 1775 992 1775 1034 c 257,59,-1
 1775 1757 l 257,60,-1
 1778 1763 l 257,61,62
 1910 1699 1910 1699 1910 1583 c 257,63,-1
 1910 1011 l 257,64,65
 1910 836 1910 836 1730 723 c 257,66,67
 1649 684 1649 684 1580 684 c 257,68,-1
 1091 684 l 257,69,-1
 1091 547 l 257,70,-1
 954 546 l 257,50,-1
EndSplineSet
Validated: 1
EndChar

StartChar: uE036
Encoding: 55 57398 55
GlifName: uE_036
Width: 2048
VWidth: 0
Flags: W
LayerCount: 2
Fore
SplineSet
1503 138 m 257,0,-1
 1502 138 l 257,1,-1
 1502 135 l 257,2,3
 1502 35 1502 35 1391 3 c 257,4,5
 1388 0 1388 0 1367 0 c 257,6,-1
 681 0 l 257,7,8
 585 0 585 0 549 102 c 257,9,10
 547 131 547 131 542 137 c 257,11,-1
 539 273 l 257,12,-1
 540 273 l 257,13,14
 545 273 545 273 555 330 c 257,15,16
 599 411 599 411 693 411 c 257,17,-1
 819 411 l 257,18,-1
 819 414 l 257,19,20
 819 505 819 505 921 543 c 257,21,22
 932 546 932 546 945 546 c 257,23,-1
 954 546 l 257,24,-1
 1091 547 l 257,25,-1
 1091 546 l 257,26,-1
 1100 546 l 257,27,28
 1190 546 1190 546 1226 438 c 257,29,-1
 1229 411 l 257,30,-1
 1361 411 l 257,31,32
 1459 411 1459 411 1496 312 c 257,33,34
 1502 288 1502 288 1502 273 c 257,35,-1
 1504 273 l 257,36,-1
 1503 138 l 257,0,-1
957 411 m 257,37,-1
 957 357 l 257,38,39
 957 299 957 299 921 282 c 257,40,41
 905 273 905 273 891 273 c 257,42,-1
 684 273 l 257,43,-1
 684 138 l 257,44,-1
 1364 138 l 257,45,-1
 1364 273 l 257,46,-1
 1163 273 l 257,47,48
 1091 281 1091 281 1091 336 c 257,49,-1
 1091 411 l 257,50,-1
 1052 411 l 257,51,52
 1037 411 1037 411 1025 408 c 257,53,54
 1010 411 1010 411 996 411 c 257,55,-1
 957 411 l 257,37,-1
EndSplineSet
Validated: 1
EndChar

StartChar: uE037
Encoding: 56 57399 56
GlifName: uE_037
Width: 2048
VWidth: 0
Flags: W
LayerCount: 2
Fore
SplineSet
1280 384 m 1,0,-1
 1280 512 l 1,1,-1
 1088 512 l 2,2,3
 1066 512 1066 512 1053 520.5 c 128,-1,4
 1040 529 1040 529 1033.5 542.5 c 128,-1,5
 1027 556 1027 556 1025.5 573 c 128,-1,6
 1024 590 1024 590 1024 607 c 2,7,-1
 1024 640 l 1,8,-1
 896 640 l 1,9,-1
 896 606 l 2,10,11
 896 589 896 589 894 572 c 128,-1,12
 892 555 892 555 885.5 541.5 c 128,-1,13
 879 528 879 528 866 520 c 128,-1,14
 853 512 853 512 832 512 c 2,15,-1
 640 512 l 1,16,-1
 640 384 l 1,17,-1
 1280 384 l 1,0,-1
1440 1344 m 128,-1,19
 1400 1344 1400 1344 1372 1372 c 128,-1,20
 1344 1400 1344 1400 1344 1440 c 128,-1,21
 1344 1480 1344 1480 1372 1508 c 128,-1,22
 1400 1536 1400 1536 1440 1536 c 128,-1,23
 1480 1536 1480 1536 1508 1508 c 128,-1,24
 1536 1480 1536 1480 1536 1440 c 128,-1,25
 1536 1400 1536 1400 1508 1372 c 128,-1,18
 1480 1344 1480 1344 1440 1344 c 128,-1,19
656 1664 m 1,26,-1
 528 1792 l 1,27,-1
 1669 1792 l 2,28,29
 1719 1792 1719 1792 1764.5 1771.5 c 128,-1,30
 1810 1751 1810 1751 1844.5 1716.5 c 128,-1,31
 1879 1682 1879 1682 1899.5 1636.5 c 128,-1,32
 1920 1591 1920 1591 1920 1541 c 2,33,-1
 1920 1275 l 2,34,35
 1920 1225 1920 1225 1899.5 1179.5 c 128,-1,36
 1879 1134 1879 1134 1844.5 1099.5 c 128,-1,37
 1810 1065 1810 1065 1764.5 1044.5 c 128,-1,38
 1719 1024 1719 1024 1669 1024 c 2,39,-1
 1296 1024 l 1,40,-1
 1168 1152 l 1,41,-1
 1664 1152 l 2,42,43
 1691 1152 1691 1152 1714 1162 c 128,-1,44
 1737 1172 1737 1172 1754.5 1189.5 c 128,-1,45
 1772 1207 1772 1207 1782 1230 c 128,-1,46
 1792 1253 1792 1253 1792 1280 c 2,47,-1
 1792 1536 l 2,48,49
 1792 1562 1792 1562 1782 1585.5 c 128,-1,50
 1772 1609 1772 1609 1754.5 1626.5 c 128,-1,51
 1737 1644 1737 1644 1713.5 1654 c 128,-1,52
 1690 1664 1690 1664 1664 1664 c 2,53,-1
 656 1664 l 1,26,-1
1024 770 m 1,54,-1
 1024 768 l 1,55,56
 1050 768 1050 768 1073.5 758 c 128,-1,57
 1097 748 1097 748 1114.5 730.5 c 128,-1,58
 1132 713 1132 713 1142 689.5 c 128,-1,59
 1152 666 1152 666 1152 640 c 1,60,61
 1173 640 1173 640 1194.5 641 c 128,-1,62
 1216 642 1216 642 1237 642 c 128,-1,63
 1258 642 1258 642 1283 641 c 0,64,65
 1307 639 1307 639 1327 631 c 1,66,-1
 1399 559 l 1,67,68
 1408 536 1408 536 1408 512 c 1,69,-1
 1409 512 l 1,70,-1
 1409 384 l 1,71,-1
 1408 384 l 1,72,73
 1408 357 1408 357 1398 334 c 128,-1,74
 1388 311 1388 311 1370.5 293.5 c 128,-1,75
 1353 276 1353 276 1330 266 c 128,-1,76
 1307 256 1307 256 1280 256 c 2,77,-1
 640 256 l 2,78,79
 613 256 613 256 589.5 266 c 128,-1,80
 566 276 566 276 549 293 c 128,-1,81
 532 310 532 310 522 334 c 0,82,83
 513 355 513 355 512 380 c 2,84,-1
 512 384 l 1,85,-1
 64 384 l 2,86,87
 38 384 38 384 19 403 c 128,-1,88
 0 422 0 422 0 448 c 128,-1,89
 0 474 0 474 19 493 c 128,-1,90
 38 512 38 512 64 512 c 2,91,-1
 512 512 l 1,92,93
 512 565 512 565 549 602 c 0,94,95
 587 640 587 640 640 640 c 2,96,-1
 768 640 l 1,97,98
 768 667 768 667 778 690 c 128,-1,99
 788 713 788 713 805.5 730.5 c 128,-1,100
 823 748 823 748 846 758 c 128,-1,101
 869 768 869 768 896 768 c 1,102,-1
 896 769 l 1,103,-1
 896 1024 l 1,104,-1
 251 1024 l 2,105,106
 201 1024 201 1024 155.5 1044.5 c 128,-1,107
 110 1065 110 1065 75.5 1099.5 c 128,-1,108
 41 1134 41 1134 20.5 1179.5 c 128,-1,109
 0 1225 0 1225 0 1275 c 2,110,-1
 0 1536 l 2,111,112
 0 1578 0 1578 13 1616.5 c 128,-1,113
 26 1655 26 1655 49.5 1687 c 128,-1,114
 73 1719 73 1719 106 1743 c 0,115,116
 138 1766 138 1766 176 1779 c 1,117,-1
 292 1664 l 1,118,-1
 256 1664 l 2,119,120
 229 1664 229 1664 206 1654 c 128,-1,121
 183 1644 183 1644 165.5 1626.5 c 128,-1,122
 148 1609 148 1609 138 1586 c 128,-1,123
 128 1563 128 1563 128 1536 c 2,124,-1
 128 1280 l 2,125,126
 128 1253 128 1253 138 1229.5 c 128,-1,127
 148 1206 148 1206 165 1189 c 128,-1,128
 182 1172 182 1172 205.5 1162 c 128,-1,129
 229 1152 229 1152 256 1152 c 2,130,-1
 805 1152 l 1,131,-1
 1024 933 l 1,132,-1
 1024 770 l 1,54,-1
EndSplineSet
Validated: 1
EndChar

StartChar: uE038
Encoding: 57 57400 57
GlifName: uE_038
Width: 2048
VWidth: 0
Flags: W
LayerCount: 2
Fore
SplineSet
1445 512 m 257,0,-1
 1446 512 l 257,1,-1
 1024 934 l 257,2,-1
 1024 933 l 257,3,-1
 805 1152 l 257,4,-1
 806 1152 l 257,5,-1
 294 1664 l 257,6,-1
 292 1664 l 257,7,-1
 176 1779 l 257,8,9
 177 1780 177 1780 178 1780 c 257,10,-1
 19 1939 l 257,11,12
 0 1958 0 1958 0 1984 c 257,13,14
 0 2011 0 2011 19.5 2029.5 c 128,-1,15
 39 2048 39 2048 65 2048 c 257,16,17
 91 2048 91 2048 110 2029 c 257,18,-1
 2030 109 l 257,19,20
 2049 90 2049 90 2049 64 c 257,21,22
 2049 38 2049 38 2030 19 c 128,-1,23
 2011 0 2011 0 1985 0 c 257,24,25
 1958 0 1958 0 1939 19 c 257,26,-1
 1574 384 l 257,27,-1
 1573 384 l 257,28,-1
 1445 512 l 257,0,-1
EndSplineSet
Validated: 1
EndChar

StartChar: uE039
Encoding: 58 57401 58
GlifName: uE_039
Width: 2048
VWidth: 0
Flags: W
LayerCount: 2
Fore
SplineSet
682 641 m 257,0,-1
 264 641 l 257,1,2
 167 641 167 641 132 551 c 257,3,4
 127 529 127 529 127 504 c 257,5,-1
 127 259 l 257,6,7
 127 159 127 159 236 129 c 257,8,-1
 1800 129 l 257,9,10
 1885 129 1885 129 1919 231 c 257,11,12
 1921 245 1921 245 1921 259 c 257,13,-1
 1921 504 l 257,14,15
 1921 602 1921 602 1831 636 c 257,16,17
 1809 641 1809 641 1784 641 c 257,18,-1
 1368 641 l 257,19,-1
 1469 768 l 257,20,-1
 1803 768 l 257,21,22
 1952 768 1952 768 2034 605 c 257,23,24
 2048 555 2048 555 2048 523 c 257,25,-1
 2048 250 l 257,26,27
 2048 99 2048 99 1890 20 c 257,28,29
 1845 0 1845 0 1778 0 c 257,30,-1
 270 0 l 257,31,32
 76 0 76 0 8 186 c 257,33,34
 0 217 0 217 0 250 c 257,35,-1
 0 523 l 257,36,37
 0 670 0 670 158 751 c 257,38,39
 207 768 207 768 245 768 c 257,40,-1
 576 768 l 257,41,-1
 682 641 l 257,0,-1
1559 512 m 257,42,-1
 1578 512 l 257,43,44
 1632 512 1632 512 1660 444 c 257,45,46
 1663 440 1663 440 1665 414 c 257,47,48
 1665 354 1665 354 1598 326 c 257,49,50
 1587 321 1587 321 1567 321 c 257,51,52
 1474 338 1474 338 1474 405 c 257,53,-1
 1474 428 l 257,54,55
 1496 512 1496 512 1559 512 c 257,42,-1
EndSplineSet
Validated: 1
EndChar

StartChar: uE03A
Encoding: 59 57402 59
GlifName: uE_03A_
Width: 2048
VWidth: 0
Flags: W
LayerCount: 2
Fore
SplineSet
576 768 m 257,0,-1
 577 768 l 257,1,2
 512 902 512 902 512 1007 c 257,3,-1
 512 1032 l 257,4,5
 524 1089 524 1089 568 1089 c 257,6,-1
 582 1089 l 257,7,8
 636 1089 636 1089 641 1013 c 257,9,10
 641 825 641 825 824 698 c 257,11,12
 921 641 921 641 1030 641 c 257,13,14
 1226 641 1226 641 1356 830 c 257,15,16
 1407 931 1407 931 1407 1004 c 257,17,-1
 1407 1044 l 257,18,19
 1407 1216 1407 1216 1235 1348 c 257,20,21
 1135 1409 1135 1409 1021 1409 c 257,22,-1
 605 1409 l 257,23,24
 765 1251 765 1251 765 1238 c 257,25,-1
 768 1221 l 257,26,27
 761 1153 761 1153 706 1153 c 257,28,-1
 700 1153 l 257,29,30
 666 1153 666 1153 571 1260 c 257,31,32
 385 1438 385 1438 385 1454 c 257,33,-1
 383 1471 l 257,34,-1
 383 1477 l 257,35,36
 383 1511 383 1511 459 1575 c 257,37,38
 667 1792 667 1792 684 1792 c 257,39,-1
 700 1795 l 257,40,41
 768 1787 768 1787 768 1736 c 257,42,-1
 768 1727 l 257,43,44
 768 1692 768 1692 684 1620 c 257,45,-1
 605 1539 l 257,46,-1
 1027 1539 l 257,47,48
 1307 1539 1307 1539 1474 1274 c 257,49,50
 1536 1152 1536 1152 1536 1044 c 257,51,-1
 1536 1007 l 257,52,53
 1536 890 1536 890 1468 771 c 257,54,-1
 1468 768 l 257,55,-1
 1469 768 l 257,56,-1
 1368 641 l 257,57,-1
 1364 641 l 257,58,59
 1212 512 1212 512 1024 512 c 257,60,61
 836 512 836 512 684 641 c 257,62,-1
 682 641 l 257,63,-1
 576 768 l 257,0,-1
EndSplineSet
Validated: 1
EndChar

StartChar: uE03B
Encoding: 60 57403 60
GlifName: uE_03B_
Width: 2048
VWidth: 0
Flags: W
LayerCount: 2
Fore
SplineSet
515 2048 m 257,0,-1
 1532 2048 l 257,1,2
 1701 2048 1701 2048 1777 1879 c 257,3,4
 1791 1837 1791 1837 1791 1795 c 257,5,-1
 1791 253 l 257,6,7
 1791 103 1791 103 1645 25 c 257,8,9
 1594 0 1594 0 1532 0 c 257,10,-1
 515 0 l 257,11,12
 344 0 344 0 271 171 c 257,13,14
 257 206 257 206 257 253 c 257,15,-1
 257 1795 l 257,16,17
 257 1941 257 1941 397 2020 c 257,18,19
 450 2048 450 2048 515 2048 c 257,0,-1
383 1781 m 257,20,-1
 383 267 l 257,21,22
 383 167 383 167 476 132 c 257,23,-1
 504 129 l 257,24,-1
 1544 129 l 257,25,26
 1628 129 1628 129 1662 230 c 257,27,28
 1664 249 1664 249 1664 267 c 257,29,-1
 1664 1781 l 257,30,31
 1664 1922 1664 1922 1499 1922 c 257,32,-1
 549 1922 l 257,33,34
 383 1922 383 1922 383 1781 c 257,20,-1
EndSplineSet
Validated: 1
EndChar

StartChar: uE03C
Encoding: 61 57404 61
GlifName: uE_03C_
Width: 2048
VWidth: 0
Flags: W
LayerCount: 2
Fore
SplineSet
642 1537 m 257,0,-1
 765 1537 l 257,1,2
 860 1537 860 1537 895 1436 c 257,3,4
 898 1403 898 1403 898 1388 c 257,5,-1
 898 1306 l 257,6,7
 898 1200 898 1200 827 1166 c 257,8,9
 800 1152 800 1152 768 1152 c 257,10,-1
 639 1152 l 257,11,12
 550 1152 550 1152 515 1247 c 257,13,14
 513 1258 513 1258 513 1270 c 257,15,-1
 513 1416 l 257,16,17
 513 1500 513 1500 614 1534 c 257,18,19
 629 1537 629 1537 642 1537 c 257,0,-1
639 1407 m 257,20,-1
 639 1405 l 257,21,-1
 642 1391 l 257,22,-1
 639 1391 l 257,23,-1
 642 1385 l 257,24,25
 642 1382 642 1382 639 1382 c 257,26,-1
 642 1377 l 257,27,-1
 642 1374 l 257,28,29
 642 1371 642 1371 639 1371 c 257,30,-1
 642 1365 l 257,31,-1
 642 1348 l 257,32,33
 642 1346 642 1346 639 1346 c 257,34,-1
 642 1340 l 257,35,-1
 642 1334 l 257,36,37
 642 1332 642 1332 639 1332 c 257,38,-1
 642 1326 l 257,39,-1
 642 1323 l 257,40,41
 642 1320 642 1320 639 1320 c 257,42,-1
 642 1315 l 257,43,-1
 642 1312 l 257,44,45
 642 1309 642 1309 639 1309 c 257,46,-1
 642 1304 l 257,47,48
 642 1301 642 1301 639 1301 c 257,49,50
 639 1298 639 1298 642 1298 c 257,51,-1
 639 1284 l 257,52,-1
 639 1281 l 257,53,-1
 768 1281 l 257,54,-1
 768 1407 l 257,55,-1
 639 1407 l 257,20,-1
1083 1407 m 257,56,-1
 1471 1407 l 257,57,58
 1535 1401 1535 1401 1535 1351 c 257,59,-1
 1535 1337 l 257,60,61
 1535 1284 1535 1284 1459 1278 c 257,62,-1
 1111 1278 l 257,63,64
 1024 1278 1024 1278 1024 1340 c 257,65,-1
 1024 1348 l 257,66,67
 1035 1407 1035 1407 1083 1407 c 257,56,-1
639 896 m 257,68,-1
 768 896 l 257,69,70
 857 896 857 896 895 798 c 257,71,72
 898 760 898 760 898 742 c 257,73,-1
 898 660 l 257,74,75
 898 553 898 553 810 517 c 257,76,77
 778 511 778 511 765 511 c 257,78,-1
 642 511 l 257,79,80
 548 511 548 511 515 610 c 257,81,82
 513 621 513 621 513 632 c 257,83,-1
 513 778 l 257,84,85
 513 858 513 858 611 893 c 257,86,87
 626 896 626 896 639 896 c 257,68,-1
639 759 m 257,88,89
 642 753 642 753 642 750 c 257,90,-1
 639 750 l 257,91,-1
 642 744 l 257,92,93
 642 742 642 742 639 742 c 257,94,-1
 642 736 l 257,95,-1
 642 733 l 257,96,97
 642 730 642 730 639 730 c 257,98,-1
 642 725 l 257,99,-1
 642 722 l 257,100,101
 642 719 642 719 639 719 c 257,102,-1
 642 714 l 257,103,-1
 642 708 l 257,104,105
 642 705 642 705 639 705 c 257,106,-1
 642 700 l 257,107,-1
 642 683 l 257,108,109
 642 680 642 680 639 680 c 257,110,-1
 642 674 l 257,111,-1
 642 671 l 257,112,113
 642 669 642 669 639 669 c 257,114,-1
 642 663 l 257,115,116
 642 660 642 660 639 660 c 257,117,118
 639 657 639 657 642 657 c 257,119,-1
 639 643 l 257,120,-1
 639 641 l 257,121,-1
 768 641 l 257,122,-1
 768 767 l 257,123,-1
 645 767 l 257,124,125
 639 767 639 767 639 759 c 257,88,89
1111 770 m 257,126,-1
 1448 770 l 257,127,128
 1504 770 1504 770 1524 744 c 257,129,130
 1535 723 1535 723 1535 711 c 257,131,-1
 1535 697 l 257,132,133
 1535 647 1535 647 1471 641 c 257,134,-1
 1083 641 l 257,135,136
 1024 652 1024 652 1024 700 c 257,137,-1
 1024 708 l 257,138,139
 1024 770 1024 770 1111 770 c 257,126,-1
EndSplineSet
Validated: 1
EndChar

StartChar: uE03D
Encoding: 62 57405 62
GlifName: uE_03D_
Width: 2048
VWidth: 0
Flags: W
LayerCount: 2
Fore
SplineSet
689 1264 m 257,0,-1
 688 1264 l 257,1,2
 305 1211 305 1211 206 1194 c 257,3,-1
 206 1191 l 257,4,-1
 613 795 l 257,5,6
 518 242 518 242 518 230 c 257,7,8
 985 478 985 478 1026 494 c 257,9,-1
 1529 230 l 257,10,-1
 1529 233 l 257,11,12
 1496 451 1496 451 1486 470 c 257,13,-1
 1647 305 l 257,14,15
 1678 138 1678 138 1678 110 c 257,16,-1
 1678 107 l 257,17,18
 1678 61 1678 61 1616 48 c 257,19,20
 1596 48 1596 48 1431 138 c 257,21,-1
 1024 351 l 257,22,23
 478 64 478 64 445 51 c 257,24,25
 439 51 439 51 434 48 c 257,26,27
 369 60 369 60 369 107 c 257,28,-1
 369 110 l 257,29,30
 369 135 369 135 476 750 c 257,31,32
 55 1157 55 1157 7 1214 c 257,33,34
 1 1235 1 1235 1 1239 c 257,35,36
 1 1297 1 1297 80 1306 c 257,37,38
 565 1377 565 1377 574 1377 c 257,39,-1
 574 1378 l 257,40,-1
 689 1264 l 257,0,-1
1023 2000 m 257,41,42
 1078 2000 1078 2000 1124 1871 c 257,43,44
 1227 1669 1227 1669 1360 1396 c 257,45,-1
 2009 1298 l 257,46,47
 2045 1274 2045 1274 2045 1236 c 257,48,49
 2045 1203 2045 1203 1955 1127 c 257,50,51
 1955 1124 1955 1124 1570 750 c 257,52,53
 1567 750 1567 750 1481 840 c 257,54,55
 1840 1191 1840 1191 1840 1194 c 257,56,-1
 1275 1278 l 257,57,-1
 1025 1787 l 257,58,-1
 1020 1787 l 257,59,-1
 862 1464 l 257,60,-1
 857 1464 l 257,61,62
 853 1464 853 1464 764 1556 c 257,63,64
 964 1964 964 1964 978 1981 c 257,65,66
 991 1996 991 1996 1023 2000 c 257,41,42
EndSplineSet
Validated: 1
EndChar

StartChar: uE03E
Encoding: 63 57406 63
GlifName: uE_03E_
Width: 2048
VWidth: 0
Flags: W
LayerCount: 2
Fore
SplineSet
574 1378 m 257,0,-1
 574 1379 l 257,1,2
 7 1948 7 1948 7 1952 c 257,3,4
 1 1963 1 1963 1 1975 c 257,5,-1
 1 1992 l 257,6,7
 1 2038 1 2038 60 2048 c 257,8,-1
 68 2048 l 257,9,10
 101 2048 101 2048 170 1969 c 257,11,12
 1137 1005 1137 1005 2038 101 c 257,13,14
 2046 87 2046 87 2046 73 c 257,15,-1
 2046 51 l 257,16,17
 2046 12 2046 12 1987 0 c 257,18,-1
 1979 0 l 257,19,20
 1944 0 1944 0 1850 107 c 257,21,-1
 1647 306 l 257,22,-1
 1647 305 l 257,23,-1
 1486 470 l 257,24,25
 1485 472 1485 472 1484 472 c 257,26,-1
 689 1264 l 257,27,-1
 574 1378 l 257,0,-1
EndSplineSet
Validated: 1
EndChar

StartChar: uE03F
Encoding: 64 57407 64
GlifName: uE_03F_
Width: 2048
VWidth: 0
Flags: W
LayerCount: 2
Fore
SplineSet
720 1229 m 257,0,1
 311 1070 311 1070 306 1062 c 257,2,3
 1017 353 1017 353 1056 315 c 257,4,5
 1188 748 1188 748 1191 763 c 257,6,-1
 1292 660 l 257,7,8
 1157 194 1157 194 1138 152 c 257,9,10
 1112 129 1112 129 1096 129 c 257,11,-1
 1082 129 l 257,12,13
 1047 129 1047 129 950 239 c 257,14,-1
 638 548 l 257,15,16
 120 32 120 32 87 0 c 257,17,-1
 6 0 l 257,18,19
 0 0 0 0 0 6 c 257,20,-1
 0 90 l 257,21,22
 516 608 516 608 548 641 c 257,23,24
 137 1045 137 1045 135 1059 c 257,25,26
 126 1074 126 1074 126 1093 c 257,27,28
 126 1144 126 1144 239 1174 c 257,29,30
 243 1180 243 1180 623 1328 c 257,31,-1
 720 1229 l 257,0,1
1174 2017 m 257,32,-1
 1202 2017 l 257,33,34
 1291 2017 1291 2017 1396 1891 c 257,35,36
 1983 1308 1983 1308 1983 1301 c 257,37,38
 2011 1249 2011 1249 2011 1208 c 257,39,-1
 2011 1186 l 257,40,41
 2011 1052 2011 1052 1826 992 c 257,42,43
 1490 848 1490 848 1472 846 c 257,44,-1
 1379 941 l 257,45,46
 1814 1124 1814 1124 1865 1149 c 257,47,48
 1885 1174 1885 1174 1885 1197 c 257,49,50
 1885 1235 1885 1235 1787 1320 c 257,51,52
 1235 1877 1235 1877 1228 1877 c 257,53,54
 1208 1891 1208 1891 1191 1891 c 257,55,-1
 1188 1891 l 257,56,57
 1137 1891 1137 1891 1107 1795 c 257,58,59
 1045 1665 1045 1665 927 1399 c 257,60,-1
 921 1399 l 257,61,62
 829 1487 829 1487 829 1495 c 257,63,64
 1007 1890 1007 1890 1034 1938 c 257,65,66
 1101 2017 1101 2017 1174 2017 c 257,32,-1
EndSplineSet
Validated: 1
EndChar

StartChar: uE040
Encoding: 65 57408 65
GlifName: uE_040
Width: 2048
VWidth: 0
Flags: W
LayerCount: 2
Fore
SplineSet
623 1328 m 257,0,1
 623 1329 623 1329 624 1329 c 257,2,3
 6 1948 6 1948 6 1952 c 257,4,5
 0 1963 0 1963 0 1975 c 257,6,-1
 0 1992 l 257,7,8
 0 2037 0 2037 59 2048 c 257,9,10
 99 2048 99 2048 132 2006 c 257,11,12
 1910 233 1910 233 2042 93 c 257,13,-1
 2045 73 l 257,14,-1
 2045 51 l 257,15,16
 2045 12 2045 12 1986 0 c 257,17,-1
 1978 0 l 257,18,19
 1943 0 1943 0 1846 110 c 257,20,-1
 1292 660 l 257,21,-1
 1191 763 l 257,22,-1
 1191 764 l 257,23,-1
 722 1230 l 257,24,25
 721 1230 721 1230 720 1229 c 257,26,-1
 623 1328 l 257,0,1
EndSplineSet
Validated: 1
EndChar

StartChar: uE041
Encoding: 66 57409 66
GlifName: uE_041
Width: 2048
VWidth: 0
Flags: W
LayerCount: 2
Fore
SplineSet
650 556 m 257,0,1
 416 318 416 318 151 57 c 257,2,3
 102 0 102 0 86 0 c 257,4,-1
 6 0 l 257,5,6
 0 0 0 0 0 6 c 257,7,-1
 0 83 l 257,8,9
 0 99 0 99 74 165 c 257,10,11
 311 406 311 406 539 630 c 257,12,-1
 556 650 l 257,13,-1
 650 556 l 257,0,1
EndSplineSet
Validated: 1
EndChar

StartChar: uE042
Encoding: 67 57410 67
GlifName: uE_042
Width: 2048
VWidth: 0
Flags: W
LayerCount: 2
Fore
SplineSet
556 650 m 257,0,1
 138 1070 138 1070 137 1075 c 257,2,3
 131 1101 131 1101 131 1110 c 257,4,5
 131 1161 131 1161 245 1192 c 257,6,7
 768 1403 768 1403 790 1415 c 257,8,9
 807 1423 807 1423 896 1634 c 257,10,11
 1032 1929 1032 1929 1053 1965 c 257,12,13
 1117 2048 1117 2048 1195 2048 c 257,14,-1
 1229 2048 l 257,15,16
 1313 2048 1313 2048 1426 1914 c 257,17,18
 2017 1328 2017 1328 2017 1321 c 257,19,20
 2045 1268 2045 1268 2045 1227 c 257,21,-1
 2045 1204 l 257,22,23
 2045 1112 2045 1112 1954 1050 c 257,24,25
 1927 1033 1927 1033 1378 807 c 257,26,27
 1349 807 1349 807 1304 622 c 257,28,29
 1178 208 1178 208 1161 160 c 257,30,31
 1139 131 1139 131 1112 131 c 257,32,-1
 1095 131 l 257,33,34
 1068 131 1068 131 936 274 c 257,35,-1
 650 556 l 257,36,-1
 556 650 l 257,0,1
314 1078 m 257,37,38
 1036 358 1036 358 1075 319 c 257,39,40
 1218 797 1218 797 1238 847 c 257,41,42
 1277 918 1277 918 1423 964 c 257,43,44
 1847 1142 1847 1142 1897 1167 c 257,45,46
 1917 1192 1917 1192 1917 1215 c 257,47,48
 1917 1254 1917 1254 1817 1341 c 257,49,50
 1257 1905 1257 1905 1249 1905 c 257,51,52
 1230 1920 1230 1920 1212 1920 c 257,53,-1
 1209 1920 l 257,54,55
 1156 1920 1156 1920 1124 1814 c 257,56,57
 938 1410 938 1410 907 1349 c 257,58,59
 852 1288 852 1288 796 1275 c 257,60,-1
 314 1081 l 257,61,-1
 314 1078 l 257,37,38
EndSplineSet
Validated: 1
EndChar

StartChar: uE043
Encoding: 68 57411 68
GlifName: uE_043
Width: 2048
VWidth: 0
Flags: W
LayerCount: 2
Fore
SplineSet
258 2048 m 257,0,-1
 753 2048 l 257,1,2
 882 2048 882 2048 1003 1902 c 257,3,4
 1503 1410 1503 1410 1503 1391 c 257,5,6
 1534 1327 1534 1327 1534 1273 c 257,7,-1
 1534 253 l 257,8,9
 1534 103 1534 103 1388 25 c 257,10,11
 1337 0 1337 0 1275 0 c 257,12,-1
 258 0 l 257,13,14
 87 0 87 0 14 171 c 257,15,16
 0 206 0 206 0 253 c 257,17,-1
 0 1795 l 257,18,19
 0 1941 0 1941 140 2020 c 257,20,21
 193 2048 193 2048 258 2048 c 257,0,-1
126 1781 m 257,22,-1
 126 267 l 257,23,24
 126 167 126 167 219 132 c 257,25,-1
 247 129 l 257,26,-1
 1287 129 l 257,27,28
 1371 129 1371 129 1405 230 c 257,29,30
 1407 249 1407 249 1407 267 c 257,31,-1
 1407 1275 l 257,32,33
 1407 1281 1407 1281 1402 1281 c 257,34,-1
 1014 1281 l 257,35,36
 883 1281 883 1281 801 1410 c 257,37,38
 767 1468 767 1468 767 1540 c 257,39,-1
 767 1919 l 257,40,41
 739 1922 739 1922 725 1922 c 257,42,-1
 292 1922 l 257,43,44
 126 1922 126 1922 126 1781 c 257,22,-1
896 1826 m 257,45,-1
 896 1528 l 257,46,47
 896 1444 896 1444 997 1410 c 257,48,49
 1016 1407 1016 1407 1034 1407 c 257,50,-1
 1315 1407 l 257,51,52
 1138 1588 1138 1588 896 1826 c 257,45,-1
EndSplineSet
Validated: 1
EndChar

StartChar: uE044
Encoding: 69 57412 69
GlifName: uE_044
Width: 2048
VWidth: 0
Flags: W
LayerCount: 2
Fore
SplineSet
326 1281 m 257,0,-1
 568 1281 l 257,1,2
 616 1281 616 1281 635 1242 c 257,3,-1
 641 1216 l 257,4,5
 629 1152 629 1152 579 1152 c 257,6,-1
 512 1152 l 257,7,-1
 512 385 l 257,8,-1
 576 385 l 257,9,10
 641 373 641 373 641 320 c 257,11,12
 629 256 629 256 579 256 c 257,13,-1
 323 256 l 257,14,15
 256 264 256 264 256 312 c 257,16,-1
 256 326 l 257,17,18
 256 373 256 373 318 385 c 257,19,-1
 382 385 l 257,20,-1
 382 1152 l 257,21,-1
 315 1152 l 257,22,23
 256 1164 256 1164 256 1208 c 257,24,-1
 256 1222 l 257,25,26
 256 1273 256 1273 326 1281 c 257,0,-1
EndSplineSet
Validated: 1
EndChar

StartChar: uE045
Encoding: 70 57413 70
GlifName: uE_045
Width: 2048
VWidth: 0
Flags: W
LayerCount: 2
Fore
SplineSet
1024 1790 m 257,0,1
 1161 1790 1161 1790 1212 1638 c 257,2,3
 1214 1619 1214 1619 1214 1608 c 257,4,-1
 1214 1588 l 257,5,6
 1214 1467 1214 1467 1071 1411 c 257,7,-1
 1024 1406 l 257,8,9
 920 1406 920 1406 858 1504 c 257,10,11
 773 1489 773 1489 651 1372 c 257,12,13
 513 1216 513 1216 513 1035 c 257,14,-1
 513 1016 l 257,15,16
 513 744 513 744 774 575 c 257,17,18
 902 511 902 511 1024 511 c 257,19,20
 1264 511 1264 511 1430 713 c 257,21,22
 1537 856 1537 856 1537 1041 c 257,23,24
 1554 1086 1554 1086 1602 1086 c 257,25,26
 1653 1086 1653 1086 1663 1021 c 257,27,28
 1663 708 1663 708 1388 497 c 257,29,30
 1215 384 1215 384 1032 384 c 257,31,-1
 1021 384 l 257,32,33
 691 384 691 384 482 682 c 257,34,35
 384 850 384 850 384 1021 c 257,36,37
 384 1295 384 1295 597 1498 c 257,38,39
 710 1596 710 1596 836 1633 c 257,40,41
 836 1690 836 1690 920 1759 c 257,42,43
 970 1790 970 1790 1024 1790 c 257,0,1
EndSplineSet
Validated: 1
EndChar

StartChar: uE046
Encoding: 71 57414 71
GlifName: uE_046
Width: 2048
VWidth: 0
Flags: W
LayerCount: 2
Fore
SplineSet
1024 2045 m 257,0,1
 1482 2045 1482 2045 1810 1680 c 257,2,3
 2048 1375 2048 1375 2048 1030 c 257,4,5
 2048 592 2048 592 1723 275 c 257,6,7
 1419 0 1419 0 1024 0 c 257,8,9
 537 0 537 0 205 407 c 257,10,11
 0 691 0 691 0 1032 c 257,12,13
 0 1399 0 1399 267 1711 c 257,14,15
 587 2045 587 2045 1024 2045 c 257,0,1
129 1021 m 257,16,17
 129 659 129 659 404 379 c 257,18,19
 576 228 576 228 699 191 c 257,20,21
 859 129 859 129 1004 129 c 257,22,-1
 1032 129 l 257,23,24
 1423 129 1423 129 1714 452 c 257,25,26
 1919 715 1919 715 1919 1024 c 257,27,28
 1919 1407 1919 1407 1613 1697 c 257,29,30
 1346 1916 1346 1916 1032 1916 c 257,31,-1
 1004 1916 l 257,32,33
 693 1916 693 1916 418 1680 c 257,34,35
 129 1396 129 1396 129 1021 c 257,16,17
1024 1279 m 257,36,37
 1192 1279 1192 1279 1268 1103 c 257,38,39
 1279 1064 1279 1064 1279 1032 c 257,40,-1
 1279 1018 l 257,41,42
 1279 855 1279 855 1108 780 c 257,43,44
 1054 766 1054 766 1024 766 c 257,45,46
 863 766 863 766 786 929 c 257,47,48
 769 971 769 971 769 1018 c 257,49,-1
 769 1032 l 257,50,51
 769 1175 769 1175 923 1260 c 257,52,53
 985 1279 985 1279 1024 1279 c 257,36,37
898 1024 m 257,54,-1
 898 1021 l 257,55,56
 898 931 898 931 996 898 c 257,57,-1
 1024 895 l 257,58,59
 1117 895 1117 895 1150 1002 c 257,60,-1
 1150 1030 l 257,61,62
 1150 1116 1150 1116 1046 1147 c 257,63,64
 1032 1150 1032 1150 1018 1150 c 257,65,66
 941 1150 941 1150 903 1060 c 257,67,68
 898 1048 898 1048 898 1024 c 257,54,-1
EndSplineSet
Validated: 1
EndChar

StartChar: uE047
Encoding: 72 57415 72
GlifName: uE_047
Width: 2048
VWidth: 0
Flags: W
LayerCount: 2
Fore
SplineSet
1747 771 m 257,0,1
 1913 771 1913 771 1975 692 c 257,2,3
 2048 619 2048 619 2048 523 c 257,4,-1
 2048 248 l 257,5,6
 2048 91 2048 91 1876 14 c 257,7,8
 1830 0 1830 0 1761 0 c 257,9,-1
 287 0 l 257,10,11
 78 0 78 0 14 172 c 257,12,13
 0 208 0 208 0 248 c 257,14,-1
 0 495 l 257,15,-1
 3 495 l 257,16,17
 53 440 53 440 127 374 c 257,18,-1
 127 259 l 257,19,20
 127 171 127 171 217 135 c 257,21,22
 229 129 229 129 253 129 c 257,23,-1
 1795 129 l 257,24,25
 1891 129 1891 129 1919 236 c 257,26,27
 1921 239 1921 239 1921 259 c 257,28,-1
 1921 512 l 257,29,30
 1921 599 1921 599 1831 636 c 257,31,32
 1810 641 1810 641 1792 641 c 257,33,-1
 1246 641 l 257,34,-1
 1241 644 l 257,35,36
 1268 703 1268 703 1288 771 c 257,37,-1
 1747 771 l 257,0,1
1559 512 m 257,38,-1
 1573 512 l 257,39,40
 1652 512 1652 512 1665 414 c 257,41,42
 1665 351 1665 351 1589 324 c 257,43,44
 1574 321 1574 321 1567 321 c 257,45,46
 1501 321 1501 321 1474 397 c 257,47,-1
 1474 428 l 257,48,49
 1495 512 1495 512 1559 512 c 257,38,-1
EndSplineSet
Validated: 1
EndChar

StartChar: uE048
Encoding: 73 57416 73
GlifName: uE_048
Width: 2048
VWidth: 0
Flags: W
LayerCount: 2
Fore
SplineSet
574 1539 m 257,0,-1
 580 1539 l 257,1,2
 880 1539 880 1539 1072 1260 c 257,3,4
 1153 1112 1153 1112 1153 956 c 257,5,6
 1153 736 1153 736 987 557 c 257,7,8
 809 385 809 385 588 385 c 257,9,-1
 563 385 l 257,10,11
 283 385 283 385 93 644 c 257,12,13
 0 794 0 794 0 934 c 257,14,-1
 0 985 l 257,15,16
 0 1234 0 1234 231 1426 c 257,17,18
 391 1539 391 1539 574 1539 c 257,0,-1
248 962 m 257,19,20
 262 892 262 892 318 892 c 257,21,-1
 324 892 l 257,22,23
 362 892 362 892 444 987 c 257,24,-1
 509 1049 l 257,25,-1
 512 1049 l 257,26,-1
 512 703 l 257,27,28
 525 641 525 641 574 641 c 257,29,30
 639 652 639 652 639 703 c 257,31,-1
 639 1049 l 257,32,-1
 641 1049 l 257,33,34
 794 895 794 895 810 895 c 257,35,36
 815 892 815 892 824 892 c 257,37,-1
 838 892 l 257,38,39
 894 892 894 892 903 965 c 257,40,41
 903 1002 903 1002 836 1058 c 257,42,43
 616 1284 616 1284 599 1286 c 257,44,45
 577 1287 577 1287 577 1291 c 257,46,47
 535 1291 535 1291 459 1201 c 257,48,49
 255 1006 255 1006 253 987 c 257,50,51
 250 968 250 968 248 962 c 257,19,20
EndSplineSet
Validated: 1
EndChar

StartChar: uE049
Encoding: 74 57417 74
GlifName: uE_049
Width: 2048
VWidth: 0
Flags: W
LayerCount: 2
Fore
SplineSet
514 2048 m 257,0,-1
 1276 2048 l 257,1,2
 1451 2048 1451 2048 1526 1865 c 257,3,4
 1534 1821 1534 1821 1534 1798 c 257,5,-1
 1534 511 l 257,6,7
 1534 350 1534 350 1374 275 c 257,8,9
 1334 256 1334 256 1259 256 c 257,10,-1
 531 256 l 257,11,12
 343 256 343 256 273 419 c 257,13,14
 256 459 256 459 256 508 c 257,15,-1
 256 635 l 257,16,-1
 262 635 l 257,17,18
 286 616 286 616 382 562 c 257,19,-1
 382 523 l 257,20,21
 382 423 382 423 475 388 c 257,22,-1
 503 385 l 257,23,-1
 1287 385 l 257,24,25
 1368 385 1368 385 1402 480 c 257,26,27
 1408 493 1408 493 1408 525 c 257,28,-1
 1408 1778 l 257,29,30
 1408 1922 1408 1922 1242 1922 c 257,31,-1
 529 1922 l 257,32,-1
 500 1919 l 257,33,34
 483 1977 483 1977 413 2026 c 257,35,36
 449 2048 449 2048 514 2048 c 257,0,-1
1663 1753 m 257,37,-1
 1669 1753 l 257,38,39
 1790 1670 1790 1670 1790 1545 c 257,40,-1
 1790 371 l 257,41,42
 1790 189 1790 189 1613 59 c 257,43,44
 1518 0 1518 0 1391 0 c 257,45,-1
 770 0 l 257,46,47
 630 0 630 0 548 124 c 257,48,49
 549 129 549 129 554 129 c 257,50,-1
 1416 129 l 257,51,52
 1564 129 1564 129 1644 287 c 257,53,54
 1663 332 1663 332 1663 399 c 257,55,-1
 1663 1753 l 257,37,-1
EndSplineSet
Validated: 1
EndChar

StartChar: uE04A
Encoding: 75 57418 75
GlifName: uE_04A_
Width: 2048
VWidth: 0
Flags: W
LayerCount: 2
Fore
SplineSet
317 1922 m 257,0,1
 382 1909 382 1909 382 1863 c 257,2,-1
 382 1849 l 257,3,4
 382 1817 382 1817 284 1731 c 257,5,-1
 222 1666 l 257,6,-1
 559 1666 l 257,7,8
 794 1666 794 1666 888 1599 c 257,9,10
 1053 1517 1053 1517 1132 1295 c 257,11,12
 1152 1210 1152 1210 1152 1149 c 257,13,14
 1152 887 1152 887 910 716 c 257,15,16
 782 641 782 641 649 641 c 257,17,-1
 621 641 l 257,18,19
 415 641 415 641 247 820 c 257,20,21
 126 971 126 971 126 1146 c 257,22,-1
 126 1157 l 257,23,24
 126 1204 126 1204 188 1216 c 257,25,-1
 194 1216 l 257,26,27
 258 1216 258 1216 258 1107 c 257,28,29
 258 1019 258 1019 354 893 c 257,30,31
 479 770 479 770 629 770 c 257,32,-1
 655 770 l 257,33,34
 828 770 828 770 958 938 c 257,35,36
 1023 1044 1023 1044 1023 1152 c 257,37,38
 1023 1358 1023 1358 832 1483 c 257,39,40
 752 1537 752 1537 584 1537 c 257,41,-1
 219 1537 l 257,42,43
 376 1380 376 1380 376 1371 c 257,44,45
 382 1362 382 1362 382 1354 c 257,46,-1
 382 1337 l 257,47,48
 382 1289 382 1289 317 1278 c 257,49,50
 283 1278 283 1278 211 1363 c 257,51,52
 3 1564 3 1564 3 1576 c 257,53,54
 0 1581 0 1581 0 1587 c 257,55,-1
 0 1613 l 257,56,57
 0 1636 0 1636 90 1716 c 257,58,59
 283 1916 283 1916 295 1916 c 257,60,-1
 317 1922 l 257,0,1
EndSplineSet
Validated: 1
EndChar

StartChar: uE04B
Encoding: 76 57419 76
GlifName: uE_04B_
Width: 2048
VWidth: 0
Flags: W
LayerCount: 2
Fore
SplineSet
1974 1168 m 257,0,1
 2038 1168 2038 1168 2048 1091 c 257,2,-1
 2048 71 l 257,3,4
 2035 0 2035 0 1981 0 c 257,5,-1
 67 0 l 257,6,7
 12 0 12 0 0 74 c 257,8,9
 0 130 0 130 128 183 c 257,10,11
 1920 1152 1920 1152 1958 1165 c 257,12,13
 1963 1168 1963 1168 1974 1168 c 257,0,1
366 148 m 257,14,-1
 366 144 l 257,15,-1
 1900 144 l 257,16,-1
 1900 973 l 257,17,18
 370 148 370 148 366 148 c 257,14,-1
EndSplineSet
Validated: 1
EndChar

StartChar: uE04C
Encoding: 77 57420 77
GlifName: uE_04C_
Width: 2048
VWidth: 0
Flags: W
LayerCount: 2
Fore
SplineSet
1242 2048 m 257,0,1
 1285 2048 1285 2048 1367 1952 c 257,2,3
 1605 1722 1605 1722 1608 1701 c 257,4,-1
 1608 1672 l 257,5,6
 1608 1637 1608 1637 1509 1550 c 257,7,8
 1286 1319 1286 1319 1265 1316 c 257,9,-1
 1245 1313 l 257,10,11
 1168 1326 1168 1326 1168 1390 c 257,12,13
 1168 1430 1168 1430 1290 1538 c 257,14,-1
 1355 1605 l 257,15,-1
 1355 1608 l 257,16,-1
 745 1608 l 257,17,18
 454 1608 454 1608 327 1518 c 257,19,20
 148 1402 148 1402 148 1242 c 257,21,22
 148 1031 148 1031 433 915 c 257,23,24
 542 876 542 876 674 876 c 257,25,26
 732 856 732 856 732 799 c 257,27,28
 732 741 732 741 658 729 c 257,29,30
 413 729 413 729 212 863 c 257,31,32
 0 1023 0 1023 0 1242 c 257,33,34
 0 1535 0 1535 356 1698 c 257,35,36
 479 1756 479 1756 767 1756 c 257,37,-1
 1355 1756 l 257,38,39
 1175 1935 1175 1935 1175 1945 c 257,40,41
 1175 1951 1175 1951 1168 1971 c 257,42,43
 1182 2048 1182 2048 1242 2048 c 257,0,1
EndSplineSet
Validated: 1
EndChar

StartChar: uE04D
Encoding: 78 57421 78
GlifName: uE_04D_
Width: 2048
VWidth: 0
Flags: W
LayerCount: 2
Fore
SplineSet
77 1168 m 257,0,1
 115 1162 115 1162 327 1040 c 257,2,3
 1973 159 1973 159 2026 125 c 257,4,5
 2048 100 2048 100 2048 64 c 257,6,7
 2048 16 2048 16 1981 0 c 257,8,-1
 67 0 l 257,9,10
 13 0 13 0 0 71 c 257,11,-1
 0 1088 l 257,12,13
 0 1152 0 1152 64 1168 c 257,14,-1
 77 1168 l 257,0,1
148 973 m 257,15,-1
 148 144 l 257,16,-1
 1682 144 l 257,17,-1
 1682 148 l 257,18,19
 1678 148 1678 148 148 973 c 257,15,-1
EndSplineSet
Validated: 1
EndChar

StartChar: uE04E
Encoding: 79 57422 79
GlifName: uE_04E_
Width: 2048
VWidth: 0
Flags: W
LayerCount: 2
Fore
SplineSet
803 2048 m 257,0,1
 880 2035 880 2035 880 1971 c 257,2,3
 880 1932 880 1932 783 1849 c 257,4,-1
 694 1756 l 257,5,-1
 1281 1756 l 257,6,7
 1595 1756 1595 1756 1718 1685 c 257,8,9
 1926 1593 1926 1593 2010 1416 c 257,10,11
 2048 1335 2048 1335 2048 1242 c 257,12,-1
 2048 1239 l 257,13,14
 2048 970 2048 970 1737 806 c 257,15,16
 1572 729 1572 729 1384 729 c 257,17,18
 1326 746 1326 746 1326 770 c 257,19,20
 1319 770 1319 770 1316 799 c 257,21,22
 1316 854 1316 854 1368 873 c 257,23,24
 1489 873 1489 873 1637 921 c 257,25,26
 1901 1043 1901 1043 1901 1242 c 257,27,28
 1901 1445 1901 1445 1625 1566 c 257,29,30
 1520 1608 1520 1608 1303 1608 c 257,31,-1
 694 1608 l 257,32,-1
 694 1605 l 257,33,34
 873 1425 873 1425 873 1416 c 257,35,36
 880 1395 880 1395 880 1387 c 257,37,38
 880 1327 880 1327 803 1313 c 257,39,40
 763 1313 763 1313 658 1432 c 257,41,42
 443 1638 443 1638 440 1660 c 257,43,-1
 440 1688 l 257,44,45
 440 1723 440 1723 540 1810 c 257,46,47
 762 2042 762 2042 783 2045 c 257,48,49
 798 2045 798 2045 803 2048 c 257,0,1
EndSplineSet
Validated: 1
EndChar

StartChar: uE04F
Encoding: 80 57423 80
GlifName: uE_04F_
Width: 2048
VWidth: 0
Flags: W
LayerCount: 2
Fore
SplineSet
768 384 m 257,0,-1
 768 256 l 257,1,-1
 256 256 l 257,2,3
 205 256 205 256 159 276 c 128,-1,4
 113 296 113 296 77 330 c 128,-1,5
 41 364 41 364 21 410 c 128,-1,6
 1 456 1 456 0 507 c 257,7,-1
 0 1536 l 257,8,9
 0 1587 0 1587 20 1633 c 128,-1,10
 40 1679 40 1679 74 1715 c 128,-1,11
 108 1751 108 1751 154 1771 c 128,-1,12
 200 1791 200 1791 251 1792 c 257,13,-1
 768 1792 l 257,14,-1
 768 1664 l 257,15,-1
 256 1664 l 257,16,17
 229 1664 229 1664 206 1654 c 128,-1,18
 183 1644 183 1644 165 1627 c 128,-1,19
 147 1610 147 1610 138 1586 c 128,-1,20
 129 1562 129 1562 128 1536 c 257,21,-1
 128 512 l 257,22,23
 128 485 128 485 138 461 c 128,-1,24
 148 437 148 437 165 421 c 128,-1,25
 182 405 182 405 205 394 c 0,26,27
 226.083333333 383.916666667 226.083333333 383.916666667 251.368055556 383.916666667 c 0,28,29
 253.666666667 383.916666667 253.666666667 383.916666667 256 384 c 257,30,-1
 768 384 l 257,0,-1
1797 1792 m 257,31,32
 1847 1792 1847 1792 1893 1772 c 128,-1,33
 1939 1752 1939 1752 1972 1716 c 128,-1,34
 2005 1680 2005 1680 2028 1637 c 0,35,36
 2048.34615385 1598.96153846 2048.34615385 1598.96153846 2048.34615385 1553.09763314 c 0,37,38
 2048.34615385 1547.11538462 2048.34615385 1547.11538462 2048 1541 c 257,39,-1
 2048 512 l 257,40,41
 2048 461 2048 461 2028 415 c 128,-1,42
 2008 369 2008 369 1974 333 c 128,-1,43
 1940 297 1940 297 1894 277 c 128,-1,44
 1848 257 1848 257 1797 256 c 257,45,-1
 1152 256 l 257,46,-1
 1152 384 l 257,47,-1
 1792 384 l 257,48,49
 1819 384 1819 384 1842 394 c 128,-1,50
 1865 404 1865 404 1883 421 c 128,-1,51
 1901 438 1901 438 1910 462 c 128,-1,52
 1919 486 1919 486 1920 512 c 257,53,-1
 1920 1536 l 257,54,55
 1920 1562 1920 1562 1910 1586 c 128,-1,56
 1900 1610 1900 1610 1883 1627 c 128,-1,57
 1866 1644 1866 1644 1842 1654 c 128,-1,58
 1818 1664 1818 1664 1792 1664 c 257,59,-1
 1152 1664 l 257,60,-1
 1152 1792 l 257,61,-1
 1797 1792 l 257,31,32
EndSplineSet
Validated: 1
EndChar

StartChar: uE050
Encoding: 81 57424 81
GlifName: uE_050
Width: 2048
VWidth: 0
Flags: W
LayerCount: 2
Fore
SplineSet
1280 64 m 128,-1,1
 1280 38 1280 38 1261 19 c 128,-1,2
 1242 0 1242 0 1216 0 c 257,3,-1
 704 0 l 257,4,5
 678 0 678 0 659 19 c 128,-1,6
 640 38 640 38 640 64 c 128,-1,7
 640 90 640 90 659 109 c 128,-1,8
 678 128 678 128 704 128 c 257,9,-1
 896 128 l 257,10,-1
 896 1920 l 257,11,-1
 704 1920 l 257,12,13
 678 1920 678 1920 659 1939 c 128,-1,14
 640 1958 640 1958 640 1984 c 128,-1,15
 640 2010 640 2010 659 2029 c 128,-1,16
 678 2048 678 2048 704 2048 c 257,17,-1
 1216 2048 l 257,18,19
 1242 2048 1242 2048 1261 2029 c 128,-1,20
 1280 2010 1280 2010 1280 1984 c 128,-1,21
 1280 1958 1280 1958 1261 1939 c 128,-1,22
 1242 1920 1242 1920 1216 1920 c 257,23,-1
 1024 1920 l 257,24,-1
 1024 128 l 257,25,-1
 1216 128 l 257,26,27
 1242 128 1242 128 1261 109 c 128,-1,0
 1280 90 1280 90 1280 64 c 128,-1,1
  PathStart: -1
EndSplineSet
Validated: 1
EndChar

StartChar: uE051
Encoding: 82 57425 82
GlifName: uE_051
Width: 2048
VWidth: 0
Flags: W
LayerCount: 2
Fore
SplineSet
448 0 m 257,0,1
 409 0 409 0 374 15 c 128,-1,2
 339 30 339 30 313 57 c 128,-1,3
 287 84 287 84 271 118 c 0,4,5
 255.941176471 150 255.941176471 150 255.941176471 187.314878893 c 0,6,7
 255.941176471 189.647058824 255.941176471 189.647058824 256 192 c 257,8,-1
 256 1728 l 257,9,10
 256 1767 256 1767 271 1802 c 128,-1,11
 286 1837 286 1837 313 1863 c 128,-1,12
 340 1889 340 1889 374 1905 c 0,13,14
 406 1920.05882353 406 1920.05882353 443.314878893 1920.05882353 c 0,15,16
 445.647058824 1920.05882353 445.647058824 1920.05882353 448 1920 c 257,17,-1
 651 1920 l 257,18,19
 661 1949 661 1949 679 1972 c 128,-1,20
 697 1995 697 1995 721 2013 c 128,-1,21
 745 2031 745 2031 773 2039 c 128,-1,22
 801 2047 801 2047 832 2048 c 257,23,-1
 1216 2048 l 257,24,25
 1247 2048 1247 2048 1275 2039 c 128,-1,26
 1303 2030 1303 2030 1327 2013 c 128,-1,27
 1351 1996 1351 1996 1369 1972 c 128,-1,28
 1387 1948 1387 1948 1397 1920 c 257,29,-1
 1600 1920 l 257,30,31
 1639 1920 1639 1920 1674 1905 c 128,-1,32
 1709 1890 1709 1890 1735 1863 c 128,-1,33
 1761 1836 1761 1836 1777 1802 c 0,34,35
 1792.05882353 1770 1792.05882353 1770 1792.05882353 1732.68512111 c 0,36,37
 1792.05882353 1730.35294118 1792.05882353 1730.35294118 1792 1728 c 257,38,-1
 1792 763 l 257,39,40
 1768 766 1768 766 1744 767 c 128,-1,41
 1720 768 1720 768 1696 768 c 257,42,-1
 1664 768 l 257,43,-1
 1664 1728 l 257,44,45
 1664 1754 1664 1754 1645 1773 c 128,-1,46
 1626 1792 1626 1792 1600 1792 c 257,47,-1
 1397 1792 l 257,48,49
 1387 1763 1387 1763 1369 1740 c 128,-1,50
 1351 1717 1351 1717 1327 1699 c 128,-1,51
 1303 1681 1303 1681 1275 1673 c 128,-1,52
 1247 1665 1247 1665 1216 1664 c 257,53,-1
 832 1664 l 257,54,55
 801 1664 801 1664 773 1673 c 128,-1,56
 745 1682 745 1682 721 1699 c 128,-1,57
 697 1716 697 1716 679 1740 c 128,-1,58
 661 1764 661 1764 651 1792 c 257,59,-1
 448 1792 l 257,60,61
 422 1792 422 1792 403 1773 c 128,-1,62
 384 1754 384 1754 384 1728 c 257,63,-1
 384 192 l 257,64,65
 384 166 384 166 403 147 c 128,-1,66
 422 128 422 128 448 128 c 257,67,-1
 811 128 l 257,68,69
 846 56 846 56 902 0 c 257,70,-1
 448 0 l 257,0,1
1216 1792 m 257,71,72
 1242 1792 1242 1792 1261 1811 c 128,-1,73
 1280 1830 1280 1830 1280 1856 c 128,-1,74
 1280 1882 1280 1882 1261 1901 c 128,-1,75
 1242 1920 1242 1920 1216 1920 c 257,76,-1
 832 1920 l 257,77,78
 806 1920 806 1920 787 1901 c 128,-1,79
 768 1882 768 1882 768 1856 c 128,-1,80
 768 1830 768 1830 787 1811 c 128,-1,81
 806 1792 806 1792 832 1792 c 257,82,-1
 1216 1792 l 257,71,72
EndSplineSet
Validated: 1
EndChar

StartChar: uE052
Encoding: 83 57426 83
GlifName: uE_052
Width: 2048
VWidth: 0
Flags: W
LayerCount: 2
Fore
SplineSet
1209 0 m 257,0,1
 1144 0 1144 0 1087 26 c 128,-1,2
 1030 52 1030 52 988 96 c 128,-1,3
 946 140 946 140 921 198 c 128,-1,4
 896 256 896 256 896 320 c 128,-1,5
 896 384 896 384 921 442 c 128,-1,6
 946 500 946 500 988 544 c 128,-1,7
 1030 588 1030 588 1087 614 c 128,-1,8
 1144 640 1144 640 1209 640 c 257,9,10
 1218 640 1218 640 1228 640 c 128,-1,11
 1238 640 1238 640 1249 641 c 257,12,13
 1266 641 1266 641 1283 639 c 128,-1,14
 1300 637 1300 637 1314 630 c 128,-1,15
 1328 623 1328 623 1336 611 c 128,-1,16
 1344 599 1344 599 1344 576 c 257,17,18
 1344 550 1344 550 1325 531 c 128,-1,19
 1306 512 1306 512 1280 512 c 257,20,-1
 1216 512 l 257,21,22
 1177 512 1177 512 1142 497 c 128,-1,23
 1107 482 1107 482 1081 455 c 128,-1,24
 1055 428 1055 428 1039 394 c 0,25,26
 1023.94117647 362 1023.94117647 362 1023.94117647 324.685121107 c 0,27,28
 1023.94117647 322.352941176 1023.94117647 322.352941176 1024 320 c 0,29,30
 1025 280 1025 280 1039 246 c 128,-1,31
 1053 212 1053 212 1081 185 c 128,-1,32
 1109 158 1109 158 1142 143 c 128,-1,33
 1175 128 1175 128 1216 128 c 257,34,-1
 1280 128 l 257,35,36
 1306 128 1306 128 1325 109 c 128,-1,37
 1344 90 1344 90 1344 64 c 128,-1,38
 1344 38 1344 38 1325 19 c 128,-1,39
 1306 0 1306 0 1280 0 c 257,40,-1
 1209 0 l 257,0,1
1600 64 m 257,41,42
 1600 90 1600 90 1619 109 c 128,-1,43
 1638 128 1638 128 1664 128 c 257,44,-1
 1728 128 l 257,45,46
 1767 128 1767 128 1802 143 c 128,-1,47
 1837 158 1837 158 1863 185 c 128,-1,48
 1889 212 1889 212 1905 246 c 0,49,50
 1920.05882353 278 1920.05882353 278 1920.05882353 315.314878893 c 0,51,52
 1920.05882353 317.647058824 1920.05882353 317.647058824 1920 320 c 0,53,54
 1919 360 1919 360 1905 394 c 128,-1,55
 1891 428 1891 428 1863 455 c 128,-1,56
 1835 482 1835 482 1802 497 c 128,-1,57
 1769 512 1769 512 1728 512 c 257,58,-1
 1664 512 l 257,59,60
 1638 512 1638 512 1619 531 c 128,-1,61
 1600 550 1600 550 1600 576 c 128,-1,62
 1600 602 1600 602 1619 621 c 128,-1,63
 1638 640 1638 640 1664 640 c 257,64,-1
 1735 640 l 257,65,66
 1800 640 1800 640 1857 614 c 128,-1,67
 1914 588 1914 588 1956 544 c 128,-1,68
 1998 500 1998 500 2023 442 c 128,-1,69
 2048 384 2048 384 2048 320 c 128,-1,70
 2048 256 2048 256 2023 198 c 128,-1,71
 1998 140 1998 140 1956 96 c 128,-1,72
 1914 52 1914 52 1857 26 c 128,-1,73
 1800 0 1800 0 1735 0 c 257,74,75
 1726 0 1726 0 1715 0 c 128,-1,76
 1704 0 1704 0 1694 -1 c 257,77,78
 1677 -1 1677 -1 1660 1 c 128,-1,79
 1643 3 1643 3 1630 9 c 128,-1,80
 1617 15 1617 15 1608 29 c 0,81,82
 1599.9 41.6 1599.9 41.6 1599.9 59.87 c 0,83,84
 1599.9 61.9 1599.9 61.9 1600 64 c 257,41,42
1216 256 m 257,85,86
 1190 256 1190 256 1171 275 c 128,-1,87
 1152 294 1152 294 1152 320 c 128,-1,88
 1152 346 1152 346 1171 365 c 128,-1,89
 1190 384 1190 384 1216 384 c 257,90,-1
 1728 384 l 257,91,92
 1754 384 1754 384 1773 365 c 128,-1,93
 1792 346 1792 346 1792 320 c 128,-1,94
 1792 294 1792 294 1773 275 c 128,-1,95
 1754 256 1754 256 1728 256 c 257,96,-1
 1216 256 l 257,85,86
EndSplineSet
Validated: 1
EndChar

StartChar: uE053
Encoding: 84 57427 84
GlifName: uE_053
Width: 2048
VWidth: 0
Flags: W
LayerCount: 2
Fore
SplineSet
320 0 m 257,0,1
 281 0 281 0 246 15 c 128,-1,2
 211 30 211 30 185 57 c 128,-1,3
 159 84 159 84 143 118 c 0,4,5
 127.941176471 150 127.941176471 150 127.941176471 187.314878893 c 0,6,7
 127.941176471 189.647058824 127.941176471 189.647058824 128 192 c 257,8,-1
 128 1728 l 257,9,10
 128 1767 128 1767 143 1802 c 128,-1,11
 158 1837 158 1837 185 1863 c 128,-1,12
 212 1889 212 1889 246 1905 c 0,13,14
 278 1920.05882353 278 1920.05882353 315.314878893 1920.05882353 c 0,15,16
 317.647058824 1920.05882353 317.647058824 1920.05882353 320 1920 c 257,17,-1
 523 1920 l 257,18,19
 533 1949 533 1949 551 1972 c 128,-1,20
 569 1995 569 1995 593 2013 c 128,-1,21
 617 2031 617 2031 645 2039 c 128,-1,22
 673 2047 673 2047 704 2048 c 257,23,-1
 1088 2048 l 257,24,25
 1119 2048 1119 2048 1147 2039 c 128,-1,26
 1175 2030 1175 2030 1199 2013 c 128,-1,27
 1223 1996 1223 1996 1241 1972 c 128,-1,28
 1259 1948 1259 1948 1269 1920 c 257,29,-1
 1472 1920 l 257,30,31
 1511 1920 1511 1920 1546 1905 c 128,-1,32
 1581 1890 1581 1890 1607 1863 c 128,-1,33
 1633 1836 1633 1836 1649 1802 c 0,34,35
 1664.05882353 1770 1664.05882353 1770 1664.05882353 1732.68512111 c 0,36,37
 1664.05882353 1730.35294118 1664.05882353 1730.35294118 1664 1728 c 257,38,-1
 1664 1600 l 257,39,40
 1664 1574 1664 1574 1645 1555 c 128,-1,41
 1626 1536 1626 1536 1600 1536 c 257,42,43
 1579 1536 1579 1536 1566 1544 c 128,-1,44
 1553 1552 1553 1552 1546 1565 c 128,-1,45
 1539 1578 1539 1578 1537 1596 c 128,-1,46
 1535 1614 1535 1614 1535 1632 c 257,47,48
 1535 1649 1535 1649 1536 1665 c 128,-1,49
 1537 1681 1537 1681 1537 1696 c 257,50,51
 1537 1714 1537 1714 1535 1731 c 128,-1,52
 1533 1748 1533 1748 1527 1761 c 128,-1,53
 1521 1774 1521 1774 1507 1783 c 128,-1,54
 1493 1792 1493 1792 1472 1792 c 257,55,-1
 1269 1792 l 257,56,57
 1259 1763 1259 1763 1241 1740 c 128,-1,58
 1223 1717 1223 1717 1199 1699 c 128,-1,59
 1175 1681 1175 1681 1147 1673 c 128,-1,60
 1119 1665 1119 1665 1088 1664 c 257,61,-1
 704 1664 l 257,62,63
 673 1664 673 1664 645 1673 c 128,-1,64
 617 1682 617 1682 593 1699 c 128,-1,65
 569 1716 569 1716 551 1740 c 128,-1,66
 533 1764 533 1764 523 1792 c 257,67,-1
 320 1792 l 257,68,69
 294 1792 294 1792 275 1773 c 128,-1,70
 256 1754 256 1754 256 1728 c 257,71,-1
 256 192 l 257,72,73
 256 166 256 166 275 147 c 128,-1,74
 294 128 294 128 320 128 c 257,75,-1
 704 128 l 257,76,77
 730 128 730 128 749 109 c 128,-1,78
 768 90 768 90 768 64 c 128,-1,79
 768 38 768 38 749 19 c 128,-1,80
 730 0 730 0 704 0 c 257,81,-1
 320 0 l 257,0,1
1088 1792 m 257,82,83
 1114 1792 1114 1792 1133 1811 c 128,-1,84
 1152 1830 1152 1830 1152 1856 c 128,-1,85
 1152 1882 1152 1882 1133 1901 c 128,-1,86
 1114 1920 1114 1920 1088 1920 c 257,87,-1
 704 1920 l 257,88,89
 678 1920 678 1920 659 1901 c 128,-1,90
 640 1882 640 1882 640 1856 c 128,-1,91
 640 1830 640 1830 659 1811 c 128,-1,92
 678 1792 678 1792 704 1792 c 257,93,-1
 1088 1792 l 257,82,83
EndSplineSet
Validated: 1
EndChar

StartChar: uE054
Encoding: 85 57428 85
GlifName: uE_054
Width: 2048
VWidth: 0
Flags: W
LayerCount: 2
Fore
SplineSet
1088 0 m 257,0,1
 1049 0 1049 0 1014 15 c 128,-1,2
 979 30 979 30 953 57 c 128,-1,3
 927 84 927 84 911 118 c 0,4,5
 895.941176471 150 895.941176471 150 895.941176471 187.314878893 c 0,6,7
 895.941176471 189.647058824 895.941176471 189.647058824 896 192 c 257,8,-1
 896 1216 l 257,9,10
 896 1255 896 1255 911 1290 c 128,-1,11
 926 1325 926 1325 953 1351 c 128,-1,12
 980 1377 980 1377 1014 1393 c 0,13,14
 1046 1408.05882353 1046 1408.05882353 1083.31487889 1408.05882353 c 0,15,16
 1085.64705882 1408.05882353 1085.64705882 1408.05882353 1088 1408 c 257,17,-1
 1728 1408 l 257,18,19
 1767 1408 1767 1408 1802 1393 c 128,-1,20
 1837 1378 1837 1378 1863 1351 c 128,-1,21
 1889 1324 1889 1324 1905 1290 c 0,22,23
 1920.05882353 1258 1920.05882353 1258 1920.05882353 1220.68512111 c 0,24,25
 1920.05882353 1218.35294118 1920.05882353 1218.35294118 1920 1216 c 257,26,-1
 1920 192 l 257,27,28
 1920 153 1920 153 1905 118 c 128,-1,29
 1890 83 1890 83 1863 57 c 128,-1,30
 1836 31 1836 31 1802 15 c 0,31,32
 1770 -0.0588235294118 1770 -0.0588235294118 1732.68512111 -0.0588235294118 c 0,33,34
 1730.35294118 -0.0588235294118 1730.35294118 -0.0588235294118 1728 0 c 257,35,-1
 1088 0 l 257,0,1
1728 128 m 257,36,37
 1754 128 1754 128 1773 147 c 128,-1,38
 1792 166 1792 166 1792 192 c 257,39,-1
 1792 1216 l 257,40,41
 1792 1242 1792 1242 1773 1261 c 128,-1,42
 1754 1280 1754 1280 1728 1280 c 257,43,-1
 1088 1280 l 257,44,45
 1062 1280 1062 1280 1043 1261 c 128,-1,46
 1024 1242 1024 1242 1024 1216 c 257,47,-1
 1024 192 l 257,48,49
 1024 166 1024 166 1043 147 c 128,-1,50
 1062 128 1062 128 1088 128 c 257,51,-1
 1728 128 l 257,36,37
EndSplineSet
Validated: 1
EndChar

StartChar: uE055
Encoding: 86 57429 86
GlifName: uE_055
Width: 2048
VWidth: 0
Flags: W
LayerCount: 2
Fore
SplineSet
576 512 m 257,0,1
 457 512 457 512 352 557 c 128,-1,2
 247 602 247 602 169 681 c 128,-1,3
 91 760 91 760 45 864 c 0,4,5
 -0.0212765957447 965.787234043 -0.0212765957447 965.787234043 -0.0212765957447 1082.90086012 c 0,6,7
 -0.0212765957447 1085.44680851 -0.0212765957447 1085.44680851 0 1088 c 0,8,9
 1 1208 1 1208 45 1312 c 128,-1,10
 89 1416 89 1416 169 1495 c 128,-1,11
 249 1574 249 1574 352 1619 c 128,-1,12
 455 1664 455 1664 576 1664 c 257,13,-1
 832 1664 l 257,14,15
 858 1664 858 1664 877 1645 c 128,-1,16
 896 1626 896 1626 896 1600 c 128,-1,17
 896 1574 896 1574 877 1555 c 128,-1,18
 858 1536 858 1536 832 1536 c 257,19,-1
 576 1536 l 257,20,21
 483 1536 483 1536 401 1501 c 128,-1,22
 319 1466 319 1466 259 1405 c 128,-1,23
 199 1344 199 1344 163 1263 c 0,24,25
 127.972972973 1184.18918919 127.972972973 1184.18918919 127.972972973 1093.0715851 c 0,26,27
 127.972972973 1090.54054054 127.972972973 1090.54054054 128 1088 c 0,28,29
 129 994 129 994 163 913 c 128,-1,30
 197 832 197 832 259 771 c 128,-1,31
 321 710 321 710 401 675 c 128,-1,32
 481 640 481 640 576 640 c 257,33,-1
 832 640 l 257,34,35
 858 640 858 640 877 621 c 128,-1,36
 896 602 896 602 896 576 c 128,-1,37
 896 550 896 550 877 531 c 128,-1,38
 858 512 858 512 832 512 c 257,39,-1
 576 512 l 257,0,1
1216 512 m 257,40,41
 1190 512 1190 512 1171 531 c 128,-1,42
 1152 550 1152 550 1152 576 c 128,-1,43
 1152 602 1152 602 1171 621 c 128,-1,44
 1190 640 1190 640 1216 640 c 257,45,-1
 1472 640 l 257,46,47
 1565 640 1565 640 1647 675 c 128,-1,48
 1729 710 1729 710 1789 771 c 128,-1,49
 1849 832 1849 832 1885 913 c 0,50,51
 1920.02702703 991.810810811 1920.02702703 991.810810811 1920.02702703 1082.9284149 c 0,52,53
 1920.02702703 1085.45945946 1920.02702703 1085.45945946 1920 1088 c 0,54,55
 1919 1182 1919 1182 1885 1263 c 128,-1,56
 1851 1344 1851 1344 1789 1405 c 128,-1,57
 1727 1466 1727 1466 1647 1501 c 128,-1,58
 1567 1536 1567 1536 1472 1536 c 257,59,-1
 1216 1536 l 257,60,61
 1190 1536 1190 1536 1171 1555 c 128,-1,62
 1152 1574 1152 1574 1152 1600 c 128,-1,63
 1152 1626 1152 1626 1171 1645 c 128,-1,64
 1190 1664 1190 1664 1216 1664 c 257,65,-1
 1472 1664 l 257,66,67
 1591 1664 1591 1664 1696 1619 c 128,-1,68
 1801 1574 1801 1574 1879 1495 c 128,-1,69
 1957 1416 1957 1416 2003 1312 c 0,70,71
 2048.0212766 1210.21276596 2048.0212766 1210.21276596 2048.0212766 1093.09913988 c 0,72,73
 2048.0212766 1090.55319149 2048.0212766 1090.55319149 2048 1088 c 0,74,75
 2047 968 2047 968 2003 864 c 128,-1,76
 1959 760 1959 760 1879 681 c 128,-1,77
 1799 602 1799 602 1696 557 c 128,-1,78
 1593 512 1593 512 1472 512 c 257,79,-1
 1216 512 l 257,40,41
EndSplineSet
Validated: 1
EndChar

StartChar: uE056
Encoding: 87 57430 87
GlifName: uE_056
Width: 2048
VWidth: 0
Flags: W
LayerCount: 2
Fore
SplineSet
569 1024 m 257,0,1
 543 1024 543 1024 528 1044 c 128,-1,2
 513 1064 513 1064 512 1088 c 128,-1,3
 511 1112 511 1112 528 1132 c 128,-1,4
 545 1152 545 1152 569 1152 c 257,5,-1
 1479 1152 l 257,6,7
 1505 1152 1505 1152 1520 1132 c 128,-1,8
 1535 1112 1535 1112 1536 1088 c 128,-1,9
 1537 1064 1537 1064 1520 1044 c 128,-1,10
 1503 1024 1503 1024 1479 1024 c 257,11,-1
 569 1024 l 257,0,1
EndSplineSet
Validated: 1
EndChar

StartChar: uE057
Encoding: 88 57431 88
GlifName: uE_057
Width: 2048
VWidth: 0
Flags: W
LayerCount: 2
Fore
SplineSet
1003 256 m 257,0,1
 1020 221 1020 221 1042 189 c 128,-1,2
 1064 157 1064 157 1089 128 c 257,3,-1
 441 128 l 257,4,5
 378 128 378 128 321 154 c 128,-1,6
 264 180 264 180 222 222 c 128,-1,7
 180 264 180 264 154 321 c 128,-1,8
 128 378 128 378 128 441 c 257,9,-1
 128 1607 l 257,10,11
 128 1670 128 1670 154 1727 c 128,-1,12
 180 1784 180 1784 222 1826 c 128,-1,13
 264 1868 264 1868 321 1894 c 128,-1,14
 378 1920 378 1920 441 1920 c 257,15,-1
 1607 1920 l 257,16,17
 1670 1920 1670 1920 1727 1894 c 128,-1,18
 1784 1868 1784 1868 1826 1826 c 128,-1,19
 1868 1784 1868 1784 1894 1727 c 128,-1,20
 1920 1670 1920 1670 1920 1607 c 257,21,-1
 1920 1203 l 257,22,23
 1886 1210 1886 1210 1854 1221 c 128,-1,24
 1822 1232 1822 1232 1792 1249 c 257,25,-1
 1792 1408 l 257,26,-1
 256 1408 l 257,27,-1
 256 448 l 257,28,29
 256 409 256 409 271 374 c 128,-1,30
 286 339 286 339 313 313 c 128,-1,31
 340 287 340 287 374 271 c 0,32,33
 406 255.941176471 406 255.941176471 443.314878893 255.941176471 c 0,34,35
 445.647058824 255.941176471 445.647058824 255.941176471 448 256 c 257,36,-1
 1003 256 l 257,0,1
448 1792 m 257,37,38
 409 1792 409 1792 374 1777 c 128,-1,39
 339 1762 339 1762 313 1735 c 128,-1,40
 287 1708 287 1708 271 1674 c 0,41,42
 255.941176471 1642 255.941176471 1642 255.941176471 1604.68512111 c 0,43,44
 255.941176471 1602.35294118 255.941176471 1602.35294118 256 1600 c 257,45,-1
 256 1536 l 257,46,-1
 1792 1536 l 257,47,-1
 1792 1600 l 257,48,49
 1792 1639 1792 1639 1777 1674 c 128,-1,50
 1762 1709 1762 1709 1735 1735 c 128,-1,51
 1708 1761 1708 1761 1674 1777 c 0,52,53
 1642 1792.05882353 1642 1792.05882353 1604.68512111 1792.05882353 c 0,54,55
 1602.35294118 1792.05882353 1602.35294118 1792.05882353 1600 1792 c 257,56,-1
 448 1792 l 257,37,38
EndSplineSet
Validated: 1
EndChar

StartChar: uE058
Encoding: 89 57432 89
GlifName: uE_058
Width: 2048
VWidth: 0
Flags: W
LayerCount: 2
Fore
SplineSet
2049 654 m 257,0,1
 2049 534 2049 534 2013 431 c 128,-1,2
 1977 328 1977 328 1911 246 c 128,-1,3
 1845 164 1845 164 1755 102 c 128,-1,4
 1665 40 1665 40 1552 3 c 257,5,6
 1544 0 1544 0 1536 0 c 257,7,8
 1527 0 1527 0 1520 3 c 257,9,10
 1444 30 1444 30 1377 64 c 128,-1,11
 1310 98 1310 98 1254 145 c 128,-1,12
 1198 192 1198 192 1155 251 c 128,-1,13
 1112 310 1112 310 1084 389 c 257,14,15
 1074 416 1074 416 1064 456 c 128,-1,16
 1054 496 1054 496 1044 539 c 128,-1,17
 1034 582 1034 582 1030 624 c 128,-1,18
 1026 666 1026 666 1024 693 c 257,19,-1
 1024 1013 l 257,20,21
 1024 1036 1024 1036 1039 1051 c 257,22,23
 1047 1059 1047 1059 1056 1062 c 128,-1,24
 1065 1065 1065 1065 1075 1067 c 257,25,26
 1106 1072 1106 1072 1135 1076 c 128,-1,27
 1164 1080 1164 1080 1194 1085 c 128,-1,28
 1224 1090 1224 1090 1252 1099 c 128,-1,29
 1280 1108 1280 1108 1309 1120 c 128,-1,30
 1338 1132 1338 1132 1363 1150 c 128,-1,31
 1388 1168 1388 1168 1410 1185 c 128,-1,32
 1432 1202 1432 1202 1455 1223 c 128,-1,33
 1478 1244 1478 1244 1500 1264 c 257,34,35
 1509 1272 1509 1272 1517 1276 c 128,-1,36
 1525 1280 1525 1280 1536 1280 c 128,-1,37
 1547 1280 1547 1280 1556 1276 c 128,-1,38
 1565 1272 1565 1272 1572 1264 c 257,39,40
 1616 1220 1616 1220 1662 1183 c 128,-1,41
 1708 1146 1708 1146 1764 1120 c 257,42,43
 1807 1100 1807 1100 1853 1087 c 128,-1,44
 1899 1074 1899 1074 1947 1070 c 257,45,46
 1959 1069 1959 1069 1972 1069 c 128,-1,47
 1985 1069 1985 1069 1997 1067 c 257,48,49
 2014 1065 2014 1065 2031 1055 c 128,-1,50
 2048 1045 2048 1045 2047 1024 c 257,51,52
 2047 931 2047 931 2048 839 c 128,-1,53
 2049 747 2049 747 2049 654 c 257,0,1
EndSplineSet
Validated: 1
EndChar

StartChar: uE059
Encoding: 90 57433 90
GlifName: uE_059
Width: 2048
VWidth: 0
Flags: W
LayerCount: 2
Fore
SplineSet
258 1793 m 257,0,-1
 1147 1793 l 257,1,2
 1153 1792 1153 1792 1153 1787 c 257,3,-1
 1153 1670 l 257,4,5
 1153 1664 1153 1664 1147 1664 c 257,6,-1
 261 1664 l 257,7,8
 170 1664 170 1664 135 1573 c 257,9,10
 129 1559 129 1559 129 1535 c 257,11,-1
 129 513 l 257,12,13
 129 416 129 416 235 387 c 257,14,15
 246 384 246 384 261 384 c 257,16,-1
 1147 384 l 257,17,18
 1153 383 1153 383 1153 378 c 257,19,-1
 1153 261 l 257,20,21
 1153 255 1153 255 1147 255 c 257,22,-1
 258 255 l 257,23,24
 87 255 87 255 12 431 c 257,25,26
 0 471 0 471 0 505 c 257,27,-1
 0 1543 l 257,28,29
 0 1694 0 1694 161 1775 c 257,30,31
 211 1793 211 1793 258 1793 c 257,0,-1
1540 1793 m 257,32,-1
 1790 1793 l 257,33,34
 1953 1793 1953 1793 2030 1631 c 257,35,36
 2048 1586 2048 1586 2048 1543 c 257,37,-1
 2048 505 l 257,38,39
 2048 356 2048 356 1890 273 c 257,40,41
 1834 255 1834 255 1790 255 c 257,42,-1
 1540 255 l 257,43,44
 1535 255 1535 255 1535 261 c 257,45,-1
 1535 378 l 257,46,47
 1535 384 1535 384 1540 384 c 257,48,-1
 1787 384 l 257,49,50
 1876 384 1876 384 1913 472 c 257,51,52
 1919 494 1919 494 1919 513 c 257,53,-1
 1919 1535 l 257,54,55
 1919 1629 1919 1629 1816 1661 c 257,56,57
 1801 1664 1801 1664 1787 1664 c 257,58,-1
 1540 1664 l 257,59,60
 1535 1664 1535 1664 1535 1670 c 257,61,-1
 1535 1787 l 257,62,63
 1535 1793 1535 1793 1540 1793 c 257,32,-1
EndSplineSet
Validated: 1
EndChar

StartChar: uE05A
Encoding: 91 57434 91
GlifName: uE_05A_
Width: 2048
VWidth: 0
Flags: W
LayerCount: 2
Fore
SplineSet
1082 2048 m 257,0,-1
 1605 2048 l 257,1,2
 1663 2036 1663 2036 1663 1989 c 257,3,-1
 1663 1978 l 257,4,5
 1663 1928 1663 1928 1596 1919 c 257,6,-1
 1408 1919 l 257,7,-1
 1408 129 l 257,8,-1
 1593 129 l 257,9,10
 1663 120 1663 120 1663 73 c 257,11,-1
 1663 59 l 257,12,13
 1652 0 1652 0 1605 0 c 257,14,-1
 1082 0 l 257,15,16
 1024 13 1024 13 1024 59 c 257,17,-1
 1024 67 l 257,18,19
 1024 121 1024 121 1091 129 c 257,20,-1
 1279 129 l 257,21,-1
 1279 1919 l 257,22,-1
 1094 1919 l 257,23,24
 1024 1926 1024 1926 1024 1978 c 257,25,-1
 1024 1989 l 257,26,27
 1036 2048 1036 2048 1082 2048 c 257,0,-1
396 1153 m 257,28,-1
 1147 1153 l 257,29,30
 1153 1152 1153 1152 1153 1147 c 257,31,-1
 1153 901 l 257,32,33
 1153 895 1153 895 1147 895 c 257,34,-1
 396 895 l 257,35,36
 300 895 300 895 264 977 c 257,37,38
 255 996 255 996 255 1027 c 257,39,40
 255 1110 255 1110 349 1147 c 257,41,42
 362 1153 362 1153 396 1153 c 257,28,-1
EndSplineSet
Validated: 1
EndChar

StartChar: uE05B
Encoding: 92 57435 92
GlifName: uE_05B_
Width: 2048
VWidth: 0
Flags: W
LayerCount: 2
Fore
SplineSet
440 128 m 257,0,1
 377 128 377 128 321 154 c 128,-1,2
 265 180 265 180 221 222 c 128,-1,3
 177 264 177 264 153 323 c 128,-1,4
 129 382 129 382 128 443 c 257,5,-1
 128 1605 l 257,6,7
 128 1668 128 1668 153 1725 c 128,-1,8
 178 1782 178 1782 221 1826 c 128,-1,9
 264 1870 264 1870 321 1894 c 128,-1,10
 378 1918 378 1918 440 1920 c 257,11,-1
 1607 1920 l 257,12,13
 1670 1920 1670 1920 1727 1894 c 128,-1,14
 1784 1868 1784 1868 1826 1826 c 128,-1,15
 1868 1784 1868 1784 1894 1727 c 128,-1,16
 1920 1670 1920 1670 1920 1607 c 257,17,-1
 1920 441 l 257,18,19
 1920 378 1920 378 1894 321 c 128,-1,20
 1868 264 1868 264 1826 222 c 128,-1,21
 1784 180 1784 180 1727 154 c 128,-1,22
 1670 128 1670 128 1607 128 c 257,23,-1
 440 128 l 257,0,1
255 1536 m 257,24,-1
 1792 1536 l 257,25,-1
 1792 1600 l 257,26,27
 1792 1639 1792 1639 1777 1674 c 128,-1,28
 1762 1709 1762 1709 1735 1735 c 128,-1,29
 1708 1761 1708 1761 1674 1777 c 0,30,31
 1642 1792.05882353 1642 1792.05882353 1604.68512111 1792.05882353 c 0,32,33
 1602.35294118 1792.05882353 1602.35294118 1792.05882353 1600 1792 c 257,34,-1
 447 1792 l 257,35,36
 408 1792 408 1792 373 1777 c 128,-1,37
 338 1762 338 1762 312 1735 c 128,-1,38
 286 1708 286 1708 270 1674 c 0,39,40
 254.941176471 1642 254.941176471 1642 254.941176471 1604.68512111 c 0,41,42
 254.941176471 1602.35294118 254.941176471 1602.35294118 255 1600 c 257,43,-1
 255 1536 l 257,24,-1
1600 256 m 257,44,45
 1639 256 1639 256 1674 271 c 128,-1,46
 1709 286 1709 286 1735 313 c 128,-1,47
 1761 340 1761 340 1777 374 c 0,48,49
 1792.05882353 406 1792.05882353 406 1792.05882353 443.314878893 c 0,50,51
 1792.05882353 445.647058824 1792.05882353 445.647058824 1792 448 c 257,52,-1
 1792 1408 l 257,53,-1
 255 1408 l 257,54,-1
 255 448 l 257,55,56
 255 409 255 409 270 374 c 128,-1,57
 285 339 285 339 312 313 c 128,-1,58
 339 287 339 287 373 271 c 0,59,60
 405 255.941176471 405 255.941176471 442.314878893 255.941176471 c 0,61,62
 444.647058824 255.941176471 444.647058824 255.941176471 447 256 c 257,63,-1
 1600 256 l 257,44,45
EndSplineSet
Validated: 1
EndChar

StartChar: uE05C
Encoding: 93 57436 93
GlifName: uE_05C_
Width: 2048
VWidth: 0
Flags: W
LayerCount: 2
Fore
SplineSet
1280 1088 m 257,0,1
 1280 1114 1280 1114 1299 1133 c 128,-1,2
 1318 1152 1318 1152 1344 1152 c 257,3,4
 1361 1152 1361 1152 1377 1143 c 128,-1,5
 1393 1134 1393 1134 1401 1117 c 257,6,-1
 1657 605 l 257,7,8
 1664 591 1664 591 1664 576 c 257,9,10
 1664 550 1664 550 1645 531 c 128,-1,11
 1626 512 1626 512 1600 512 c 257,12,13
 1583 512 1583 512 1567 521 c 128,-1,14
 1551 530 1551 530 1543 547 c 257,15,-1
 1287 1059 l 257,16,17
 1280 1073 1280 1073 1280 1088 c 257,0,1
384 866 m 257,18,19
 384 897 384 897 392 930 c 128,-1,20
 400 963 400 963 410 993 c 257,21,22
 437 1067 437 1067 492 1109 c 128,-1,23
 547 1151 547 1151 627 1152 c 257,24,25
 715 1152 715 1152 775 1113 c 128,-1,26
 835 1074 835 1074 860 988 c 257,27,28
 863 979 863 979 863 968 c 257,29,30
 863 944 863 944 846 926 c 128,-1,31
 829 908 829 908 804 908 c 257,32,33
 778 908 778 908 765 922 c 128,-1,34
 752 936 752 936 743 955 c 128,-1,35
 734 974 734 974 724 993 c 128,-1,36
 714 1012 714 1012 693 1023 c 257,37,38
 680 1029 680 1029 665 1031 c 0,39,40
 655 1032.33333333 655 1032.33333333 645 1032.33333333 c 0,41,42
 645 1032.33333333 645 1032.33333333 635 1032 c 257,43,-1
 624 1032 l 257,44,45
 590 1032 590 1032 567 1015 c 128,-1,46
 544 998 544 998 530 970 c 128,-1,47
 516 942 516 942 510 912 c 128,-1,48
 504 882 504 882 504 852 c 257,49,50
 504 815 504 815 507 776 c 128,-1,51
 510 737 510 737 526 705 c 128,-1,52
 542 673 542 673 568 651 c 0,53,54
 591.833333333 630.833333333 591.833333333 630.833333333 634.993055556 630.833333333 c 0,55,56
 638.916666667 630.833333333 638.916666667 630.833333333 643 631 c 257,57,58
 671 631 671 631 689 639 c 128,-1,59
 707 647 707 647 718 657 c 128,-1,60
 729 667 729 667 739 682 c 128,-1,61
 749 697 749 697 756 706 c 128,-1,62
 763 715 763 715 775 725 c 0,63,64
 784.230769231 732.692307692 784.230769231 732.692307692 796.420118343 732.692307692 c 0,65,66
 800.076923077 732.692307692 800.076923077 732.692307692 804 732 c 257,67,68
 829 732 829 732 846 715 c 128,-1,69
 863 698 863 698 863 672 c 257,70,71
 863 660 863 660 858 647 c 257,72,73
 829 580 829 580 771 546 c 128,-1,74
 713 512 713 512 641 512 c 257,75,76
 561 512 561 512 501 553 c 128,-1,77
 441 594 441 594 411 668 c 257,78,79
 391 718 391 718 387 766 c 0,80,81
 383.8 804.4 383.8 804.4 383.8 845.36 c 0,82,83
 383.8 855.6 383.8 855.6 384 866 c 257,18,19
1024 960 m 128,-1,85
 1024 986 1024 986 1043 1005 c 128,-1,86
 1062 1024 1062 1024 1088 1024 c 128,-1,87
 1114 1024 1114 1024 1133 1005 c 128,-1,88
 1152 986 1152 986 1152 960 c 128,-1,89
 1152 934 1152 934 1133 915 c 128,-1,90
 1114 896 1114 896 1088 896 c 128,-1,91
 1062 896 1062 896 1043 915 c 128,-1,84
 1024 934 1024 934 1024 960 c 128,-1,85
  PathStart: -1
1024 704 m 128,-1,93
 1024 730 1024 730 1043 749 c 128,-1,94
 1062 768 1062 768 1088 768 c 128,-1,95
 1114 768 1114 768 1133 749 c 128,-1,96
 1152 730 1152 730 1152 704 c 128,-1,97
 1152 678 1152 678 1133 659 c 128,-1,98
 1114 640 1114 640 1088 640 c 128,-1,99
 1062 640 1062 640 1043 659 c 128,-1,92
 1024 678 1024 678 1024 704 c 128,-1,93
  PathStart: -1
EndSplineSet
Validated: 1
EndChar

StartChar: uE05D
Encoding: 94 57437 94
GlifName: uE_05D_
Width: 2048
VWidth: 0
Flags: W
LayerCount: 2
Fore
SplineSet
313 256 m 257,0,1
 250 256 250 256 193 282 c 128,-1,2
 136 308 136 308 94 350 c 128,-1,3
 52 392 52 392 26 449 c 128,-1,4
 0 506 0 506 0 569 c 257,5,-1
 0 1479 l 257,6,7
 0 1542 0 1542 26 1599 c 128,-1,8
 52 1656 52 1656 94 1698 c 128,-1,9
 136 1740 136 1740 193 1766 c 128,-1,10
 250 1792 250 1792 313 1792 c 257,11,-1
 1735 1792 l 257,12,13
 1798 1792 1798 1792 1855 1766 c 128,-1,14
 1912 1740 1912 1740 1954 1698 c 128,-1,15
 1996 1656 1996 1656 2022 1599 c 128,-1,16
 2048 1542 2048 1542 2048 1479 c 257,17,-1
 2048 569 l 257,18,19
 2048 506 2048 506 2022 449 c 128,-1,20
 1996 392 1996 392 1954 350 c 128,-1,21
 1912 308 1912 308 1855 282 c 128,-1,22
 1798 256 1798 256 1735 256 c 257,23,-1
 313 256 l 257,0,1
1728 384 m 257,24,25
 1767 384 1767 384 1802 399 c 128,-1,26
 1837 414 1837 414 1863 441 c 128,-1,27
 1889 468 1889 468 1905 502 c 0,28,29
 1920.05882353 534 1920.05882353 534 1920.05882353 571.314878893 c 0,30,31
 1920.05882353 573.647058824 1920.05882353 573.647058824 1920 576 c 257,32,-1
 1920 1472 l 257,33,34
 1920 1511 1920 1511 1905 1546 c 128,-1,35
 1890 1581 1890 1581 1863 1607 c 128,-1,36
 1836 1633 1836 1633 1802 1649 c 0,37,38
 1770 1664.05882353 1770 1664.05882353 1732.68512111 1664.05882353 c 0,39,40
 1730.35294118 1664.05882353 1730.35294118 1664.05882353 1728 1664 c 257,41,-1
 320 1664 l 257,42,43
 281 1664 281 1664 246 1649 c 128,-1,44
 211 1634 211 1634 185 1607 c 128,-1,45
 159 1580 159 1580 143 1546 c 0,46,47
 127.941176471 1514 127.941176471 1514 127.941176471 1476.68512111 c 0,48,49
 127.941176471 1474.35294118 127.941176471 1474.35294118 128 1472 c 257,50,-1
 128 576 l 257,51,52
 128 537 128 537 143 502 c 128,-1,53
 158 467 158 467 185 441 c 128,-1,54
 212 415 212 415 246 399 c 0,55,56
 278 383.941176471 278 383.941176471 315.314878893 383.941176471 c 0,57,58
 317.647058824 383.941176471 317.647058824 383.941176471 320 384 c 257,59,-1
 1728 384 l 257,24,25
EndSplineSet
Validated: 1
EndChar

StartChar: uE05E
Encoding: 95 57438 95
GlifName: uE_05E_
Width: 2048
VWidth: 0
Flags: W
LayerCount: 2
Fore
SplineSet
256 1471 m 257,0,1
 256 1497 256 1497 274 1517 c 128,-1,2
 292 1537 292 1537 319 1536 c 257,3,4
 340 1536 340 1536 358 1523 c 128,-1,5
 376 1510 376 1510 382 1490 c 257,6,-1
 638 594 l 257,7,8
 640 584 640 584 640 577 c 257,9,10
 640 551 640 551 622 531 c 128,-1,11
 604 511 604 511 577 512 c 257,12,13
 556 512 556 512 538 525 c 128,-1,14
 520 538 520 538 514 558 c 257,15,-1
 258 1454 l 257,16,17
 256 1458 256 1458 256 1462 c 257,18,-1
 256 1471 l 257,0,1
640 1471 m 257,19,20
 640 1497 640 1497 658 1517 c 128,-1,21
 676 1537 676 1537 703 1536 c 257,22,23
 724 1536 724 1536 742 1523 c 128,-1,24
 760 1510 760 1510 766 1490 c 257,25,-1
 1022 594 l 257,26,27
 1024 584 1024 584 1024 577 c 257,28,29
 1024 551 1024 551 1006 531 c 128,-1,30
 988 511 988 511 961 512 c 257,31,32
 940 512 940 512 922 525 c 128,-1,33
 904 538 904 538 898 558 c 257,34,-1
 642 1454 l 257,35,36
 640 1458 640 1458 640 1462 c 257,37,-1
 640 1471 l 257,19,20
1216 608 m 128,-1,39
 1216 648 1216 648 1244 676 c 128,-1,40
 1272 704 1272 704 1312 704 c 128,-1,41
 1352 704 1352 704 1380 676 c 128,-1,42
 1408 648 1408 648 1408 608 c 128,-1,43
 1408 568 1408 568 1380 540 c 128,-1,44
 1352 512 1352 512 1312 512 c 128,-1,45
 1272 512 1272 512 1244 540 c 128,-1,38
 1216 568 1216 568 1216 608 c 128,-1,39
  PathStart: -1
1536 608 m 128,-1,47
 1536 648 1536 648 1564 676 c 128,-1,48
 1592 704 1592 704 1632 704 c 128,-1,49
 1672 704 1672 704 1700 676 c 128,-1,50
 1728 648 1728 648 1728 608 c 128,-1,51
 1728 568 1728 568 1700 540 c 128,-1,52
 1672 512 1672 512 1632 512 c 128,-1,53
 1592 512 1592 512 1564 540 c 128,-1,46
 1536 568 1536 568 1536 608 c 128,-1,47
  PathStart: -1
EndSplineSet
Validated: 1
EndChar

StartChar: uE05F
Encoding: 96 57439 96
GlifName: uE_05F_
Width: 2048
VWidth: 0
Flags: W
LayerCount: 2
Fore
SplineSet
1280 960 m 2,0,1
 1280 986 1280 986 1261 1005 c 128,-1,2
 1242 1024 1242 1024 1216 1024 c 2,3,-1
 192 1024 l 2,4,5
 166 1024 166 1024 147 1005 c 128,-1,6
 128 986 128 986 128 960 c 2,7,-1
 128 448 l 2,8,9
 128 422 128 422 147 403 c 128,-1,10
 166 384 166 384 192 384 c 2,11,-1
 1216 384 l 2,12,13
 1242 384 1242 384 1261 403 c 128,-1,14
 1280 422 1280 422 1280 448 c 2,15,-1
 1280 960 l 2,0,1
1408 960 m 2,16,-1
 1408 448 l 2,17,18
 1408 409 1408 409 1393 374 c 128,-1,19
 1378 339 1378 339 1351 313 c 128,-1,20
 1324 287 1324 287 1290 271 c 0,21,22
 1258 255.941176471 1258 255.941176471 1220.68512111 255.941176471 c 0,23,24
 1218.35294118 255.941176471 1218.35294118 255.941176471 1216 256 c 2,25,-1
 192 256 l 2,26,27
 153 256 153 256 118 271 c 128,-1,28
 83 286 83 286 57 313 c 128,-1,29
 31 340 31 340 15 374 c 0,30,31
 -0.0588235294118 406 -0.0588235294118 406 -0.0588235294118 443.314878893 c 0,32,33
 -0.0588235294118 445.647058824 -0.0588235294118 445.647058824 0 448 c 2,34,-1
 0 960 l 2,35,36
 0 999 0 999 15 1034 c 128,-1,37
 30 1069 30 1069 57 1095 c 128,-1,38
 84 1121 84 1121 118 1137 c 0,39,40
 150 1152.05882353 150 1152.05882353 187.314878893 1152.05882353 c 0,41,42
 189.647058824 1152.05882353 189.647058824 1152.05882353 192 1152 c 2,43,-1
 960 1152 l 1,44,45
 934 1152 934 1152 915 1171 c 128,-1,46
 896 1190 896 1190 896 1216 c 2,47,-1
 896 1344 l 2,48,49
 896 1370 896 1370 915 1389 c 128,-1,50
 934 1408 934 1408 960 1408 c 128,-1,51
 986 1408 986 1408 1005 1389 c 128,-1,52
 1024 1370 1024 1370 1024 1344 c 2,53,-1
 1024 1216 l 2,54,55
 1024 1190 1024 1190 1005 1171 c 128,-1,56
 986 1152 986 1152 960 1152 c 1,57,-1
 1216 1152 l 2,58,59
 1255 1152 1255 1152 1290 1137 c 128,-1,60
 1325 1122 1325 1122 1351 1095 c 128,-1,61
 1377 1068 1377 1068 1393 1034 c 0,62,63
 1408.05882353 1002 1408.05882353 1002 1408.05882353 964.685121107 c 0,64,65
 1408 962.352941176 1408 962.352941176 1408 960 c 2,16,-1
0 1216 m 2,66,-1
 0 1344 l 2,67,68
 0 1370 0 1370 19 1389 c 128,-1,69
 38 1408 38 1408 64 1408 c 128,-1,70
 90 1408 90 1408 109 1389 c 128,-1,71
 128 1370 128 1370 128 1344 c 2,72,-1
 128 1216 l 2,73,74
 128 1190 128 1190 109 1171 c 128,-1,75
 90 1152 90 1152 64 1152 c 128,-1,76
 38 1152 38 1152 19 1171 c 128,-1,77
 0 1190 0 1190 0 1216 c 2,66,-1
768 1728 m 0,78,79
 768 1754 768 1754 787 1773 c 128,-1,80
 806 1792 806 1792 832 1792 c 2,81,-1
 960 1792 l 2,82,83
 986 1792 986 1792 1005 1773 c 128,-1,84
 1024 1754 1024 1754 1024 1728 c 2,85,-1
 1024 1600 l 2,86,87
 1024 1574 1024 1574 1005 1555 c 128,-1,88
 986 1536 986 1536 960 1536 c 0,89,90
 938 1536 938 1536 925 1545 c 128,-1,91
 912 1554 912 1554 905 1567 c 128,-1,92
 898 1580 898 1580 897 1597 c 128,-1,93
 896 1614 896 1614 896 1631 c 2,94,-1
 896 1664 l 1,95,-1
 862 1664 l 2,96,97
 845 1664 845 1664 828 1666 c 128,-1,98
 811 1668 811 1668 797 1674 c 128,-1,99
 783 1680 783 1680 776 1694 c 128,-1,100
 769 1708 769 1708 768 1728 c 0,78,79
448 1664 m 2,101,102
 422 1664 422 1664 403 1683 c 128,-1,103
 384 1702 384 1702 384 1728 c 128,-1,104
 384 1754 384 1754 403 1773 c 128,-1,105
 422 1792 422 1792 448 1792 c 2,106,-1
 576 1792 l 2,107,108
 602 1792 602 1792 621 1773 c 128,-1,109
 640 1754 640 1754 640 1728 c 128,-1,110
 640 1702 640 1702 621 1683 c 128,-1,111
 602 1664 602 1664 576 1664 c 2,112,-1
 448 1664 l 2,101,102
0 1600 m 2,113,-1
 0 1728 l 2,114,115
 0 1754 0 1754 19 1773 c 128,-1,116
 38 1792 38 1792 64 1792 c 2,117,-1
 192 1792 l 2,118,119
 218 1792 218 1792 237 1773 c 128,-1,120
 256 1754 256 1754 256 1728 c 0,121,122
 256 1706 256 1706 247 1693 c 128,-1,123
 238 1680 238 1680 225 1673 c 128,-1,124
 212 1666 212 1666 195 1665 c 128,-1,125
 178 1664 178 1664 160 1664 c 2,126,-1
 128 1664 l 1,127,-1
 128 1630 l 2,128,129
 128 1613 128 1613 126 1596 c 128,-1,130
 124 1579 124 1579 118 1565 c 128,-1,131
 112 1551 112 1551 98 1544 c 128,-1,132
 84 1537 84 1537 64 1536 c 0,133,134
 38 1536 38 1536 19 1555 c 128,-1,135
 0 1574 0 1574 0 1600 c 2,113,-1
EndSplineSet
Validated: 5
EndChar

StartChar: uE060
Encoding: 97 57440 97
GlifName: uE_060
Width: 2048
VWidth: 0
Flags: W
LayerCount: 2
Fore
SplineSet
1626 1535 m 257,0,1
 1714 1532 1714 1532 1791 1494 c 128,-1,2
 1868 1456 1868 1456 1925 1396 c 128,-1,3
 1982 1336 1982 1336 2015 1254 c 128,-1,4
 2048 1172 2048 1172 2048 1088 c 257,5,6
 2048 998 2048 998 2013 917 c 128,-1,7
 1978 836 1978 836 1918 775 c 128,-1,8
 1858 714 1858 714 1778 676 c 0,9,10
 1702 639.9 1702 639.9 1616.975 639.9 c 0,11,12
 1612.5 639.9 1612.5 639.9 1608 640 c 257,13,14
 1579 640 1579 640 1558 657 c 128,-1,15
 1537 674 1537 674 1536 704 c 0,16,17
 1535.95652174 705.304347826 1535.95652174 705.304347826 1535.95652174 706.584120983 c 0,18,19
 1535.95652174 734.739130435 1535.95652174 734.739130435 1557 751 c 0,20,21
 1579 768 1579 768 1607 768 c 257,22,23
 1672 768 1672 768 1729 794 c 128,-1,24
 1786 820 1786 820 1828 864 c 128,-1,25
 1870 908 1870 908 1895 966 c 128,-1,26
 1920 1024 1920 1024 1920 1088 c 257,27,28
 1920 1149 1920 1149 1897 1205 c 128,-1,29
 1874 1261 1874 1261 1835 1305 c 128,-1,30
 1796 1349 1796 1349 1742 1375 c 128,-1,31
 1688 1401 1688 1401 1627 1407 c 257,32,33
 1642 1393 1642 1393 1653 1380 c 128,-1,34
 1664 1367 1664 1367 1664 1344 c 257,35,36
 1664 1318 1664 1318 1645 1299 c 128,-1,37
 1626 1280 1626 1280 1600 1280 c 128,-1,38
 1574 1280 1574 1280 1555 1299 c 257,39,-1
 1427 1427 l 257,40,41
 1408 1446 1408 1446 1408 1472 c 128,-1,42
 1408 1498 1408 1498 1427 1517 c 257,43,-1
 1555 1645 l 257,44,45
 1574 1664 1574 1664 1600 1664 c 128,-1,46
 1626 1664 1626 1664 1645 1645 c 128,-1,47
 1664 1626 1664 1626 1664 1600 c 257,48,49
 1664 1578 1664 1578 1652 1563 c 128,-1,50
 1640 1548 1640 1548 1626 1535 c 257,0,1
EndSplineSet
Validated: 1
EndChar

StartChar: uE061
Encoding: 98 57441 98
GlifName: uE_061
Width: 2048
VWidth: 0
Flags: W
LayerCount: 2
Fore
SplineSet
548.5 439 m 257,0,-1
 548.5 293 l 257,1,-1
 146.5 293 l 257,2,-1
 146.5 439 l 257,3,-1
 548.5 439 l 257,0,-1
1133.5 1024 m 257,4,-1
 1133.5 878 l 257,5,-1
 146.5 878 l 257,6,-1
 146.5 1024 l 257,7,-1
 1133.5 1024 l 257,4,-1
402.5 1609 m 257,8,-1
 402.5 1463 l 257,9,-1
 146.5 1463 l 257,10,-1
 146.5 1609 l 257,11,-1
 402.5 1609 l 257,8,-1
1901.5 439 m 257,12,-1
 1901.5 293 l 257,13,-1
 1060.5 293 l 257,14,-1
 1060.5 439 l 257,15,-1
 1901.5 439 l 257,12,-1
1901.5 1024 m 257,16,-1
 1901.5 878 l 257,17,-1
 1645.5 878 l 257,18,-1
 1645.5 1024 l 257,19,-1
 1901.5 1024 l 257,16,-1
1901.5 1609 m 257,20,-1
 1901.5 1463 l 257,21,-1
 914.5 1463 l 257,22,-1
 914.5 1609 l 257,23,-1
 1901.5 1609 l 257,20,-1
EndSplineSet
Validated: 1
EndChar

StartChar: uE062
Encoding: 99 57442 99
GlifName: uE_062
Width: 2048
VWidth: 0
Flags: W
LayerCount: 2
Fore
SplineSet
951.5 585 m 257,0,1
 980.5 585 980.5 585 1002.5 563 c 128,-1,2
 1024.5 541 1024.5 541 1024.5 512 c 257,3,-1
 1024.5 219 l 257,4,5
 1024.5 190 1024.5 190 1002.5 168 c 128,-1,6
 980.5 146 980.5 146 951.5 146 c 257,7,-1
 658.5 146 l 257,8,9
 628.5 146 628.5 146 607.5 168 c 128,-1,10
 586.5 190 586.5 190 585.5 219 c 257,11,-1
 585.5 512 l 257,12,13
 585.5 542 585.5 542 607.5 563 c 128,-1,14
 629.5 584 629.5 584 658.5 585 c 257,15,-1
 951.5 585 l 257,0,1
804.5 1755 m 257,16,17
 834.5 1755 834.5 1755 856.5 1734 c 128,-1,18
 878.5 1713 878.5 1713 877.5 1682 c 257,19,-1
 877.5 1390 l 257,20,21
 877.5 1360 877.5 1360 856.5 1338 c 128,-1,22
 835.5 1316 835.5 1316 804.5 1317 c 257,23,-1
 512.5 1317 l 257,24,25
 482.5 1317 482.5 1317 460.5 1338 c 128,-1,26
 438.5 1359 438.5 1359 439.5 1390 c 257,27,-1
 439.5 1682 l 257,28,29
 439.5 1712 439.5 1712 460.5 1734 c 128,-1,30
 481.5 1756 481.5 1756 512.5 1755 c 257,31,-1
 804.5 1755 l 257,16,17
1536.5 1170 m 257,32,33
 1565.5 1170 1565.5 1170 1587.5 1149 c 128,-1,34
 1609.5 1128 1609.5 1128 1609.5 1097 c 257,35,-1
 1609.5 805 l 257,36,37
 1609.5 775 1609.5 775 1587.5 753 c 128,-1,38
 1565.5 731 1565.5 731 1536.5 731 c 257,39,-1
 1243.5 731 l 257,40,41
 1213.5 731 1213.5 731 1192.5 753 c 128,-1,42
 1171.5 775 1171.5 775 1170.5 805 c 257,43,-1
 1170.5 1097 l 257,44,45
 1170.5 1127 1170.5 1127 1192.5 1149 c 128,-1,46
 1214.5 1171 1214.5 1171 1243.5 1170 c 257,47,-1
 1536.5 1170 l 257,32,33
EndSplineSet
Validated: 1
EndChar

StartChar: uE063
Encoding: 100 57443 100
GlifName: uE_063
Width: 2048
VWidth: 0
Flags: W
LayerCount: 2
Fore
SplineSet
1183 373 m 128,-1,1
 1166 373 1166 373 1146 366 c 128,-1,2
 1126 359 1126 359 1104 349 c 128,-1,3
 1082 339 1082 339 1061 332 c 128,-1,4
 1040 325 1040 325 1020 324 c 257,5,6
 997 324 997 324 975 334 c 128,-1,7
 953 344 953 344 940 362 c 257,8,9
 908 401 908 401 882 446 c 128,-1,10
 856 491 856 491 839 540 c 257,11,-1
 838 541 l 257,12,13
 832 557 832 557 832 574 c 257,14,15
 832 599 832 599 843 618 c 128,-1,16
 854 637 854 637 869 654 c 128,-1,17
 884 671 884 671 904 683 c 128,-1,18
 924 695 924 695 938 708 c 128,-1,19
 952 721 952 721 964 734 c 0,20,21
 975.076923077 746 975.076923077 746 975.076923077 761.408284024 c 0,22,23
 975.076923077 762.692307692 975.076923077 762.692307692 975 764 c 0,24,25
 974 781 974 781 964 794 c 128,-1,26
 954 807 954 807 938 819 c 128,-1,27
 922 831 922 831 904 845 c 128,-1,28
 886 859 886 859 869 874 c 128,-1,29
 852 889 852 889 843 910 c 128,-1,30
 834 931 834 931 832 954 c 257,31,32
 832 975 832 975 844 1005 c 128,-1,33
 856 1035 856 1035 873 1066 c 128,-1,34
 890 1097 890 1097 910 1123 c 128,-1,35
 930 1149 930 1149 943 1167 c 257,36,-1
 943 1168 l 257,37,38
 958 1186 958 1186 979 1195 c 128,-1,39
 1000 1204 1000 1204 1022 1204 c 257,40,41
 1042 1204 1042 1204 1064 1196 c 128,-1,42
 1086 1188 1086 1188 1106 1179 c 128,-1,43
 1126 1170 1126 1170 1145 1162 c 0,44,45
 1161.88888889 1154.88888889 1161.88888889 1154.88888889 1177.98765432 1154.88888889 c 0,46,47
 1180 1154.88888889 1180 1154.88888889 1182 1155 c 0,48,49
 1200 1156 1200 1156 1212 1165 c 128,-1,50
 1224 1174 1224 1174 1227 1192 c 257,51,-1
 1248 1309 l 257,52,53
 1254 1343 1254 1343 1273 1362 c 128,-1,54
 1292 1381 1292 1381 1320 1389 c 128,-1,55
 1348 1397 1348 1397 1376 1399 c 0,56,57
 1394.66666667 1400.33333333 1394.66666667 1400.33333333 1414.22222222 1400.33333333 c 0,58,59
 1424 1400.33333333 1424 1400.33333333 1434 1400 c 257,60,61
 1462 1400 1462 1400 1493 1399 c 128,-1,62
 1524 1398 1524 1398 1550 1388 c 128,-1,63
 1576 1378 1576 1378 1596 1360 c 128,-1,64
 1616 1342 1616 1342 1621 1307 c 257,65,-1
 1641 1192 l 257,66,67
 1644 1175 1644 1175 1657 1165 c 128,-1,68
 1670 1155 1670 1155 1687 1155 c 128,-1,69
 1704 1155 1704 1155 1724 1162 c 128,-1,70
 1744 1169 1744 1169 1764 1179 c 128,-1,71
 1784 1189 1784 1189 1807 1196 c 128,-1,72
 1830 1203 1830 1203 1848 1204 c 257,73,74
 1871 1204 1871 1204 1892 1194 c 128,-1,75
 1913 1184 1913 1184 1927 1166 c 257,76,-1
 1928 1166 l 257,77,78
 1941 1150 1941 1150 1960 1123 c 128,-1,79
 1979 1096 1979 1096 1995 1064 c 128,-1,80
 2011 1032 2011 1032 2024 1004 c 0,81,82
 2036.07142857 978 2036.07142857 978 2036.07142857 957.173469388 c 0,83,84
 2036.07142857 955.571428571 2036.07142857 955.571428571 2036 954 c 257,85,86
 2036 928 2036 928 2025 908 c 128,-1,87
 2014 888 2014 888 1999 873 c 128,-1,88
 1984 858 1984 858 1964 845 c 128,-1,89
 1944 832 1944 832 1930 819 c 128,-1,90
 1916 806 1916 806 1903 794 c 0,91,92
 1892.4375 784.25 1892.4375 784.25 1892.4375 770.5390625 c 0,93,94
 1892.4375 767.375 1892.4375 767.375 1893 764 c 0,95,96
 1896 746 1896 746 1903 734 c 128,-1,97
 1910 722 1910 722 1930 708 c 128,-1,98
 1950 694 1950 694 1964 682 c 128,-1,99
 1978 670 1978 670 1999 654 c 128,-1,100
 2020 638 2020 638 2025 618 c 128,-1,101
 2030 598 2030 598 2036 574 c 257,102,103
 2036 554 2036 554 2029 537 c 257,104,-1
 2029 536 l 257,105,106
 2010 488 2010 488 1984 443 c 128,-1,107
 1958 398 1958 398 1924 359 c 257,108,109
 1893 323 1893 323 1845 323 c 257,110,111
 1827 323 1827 323 1805 331 c 128,-1,112
 1783 339 1783 339 1761 348 c 128,-1,113
 1739 357 1739 357 1720 365 c 128,-1,114
 1701 373 1701 373 1686 373 c 257,115,116
 1668 373 1668 373 1658 363 c 128,-1,117
 1648 353 1648 353 1642 339 c 128,-1,118
 1636 325 1636 325 1635 307 c 128,-1,119
 1634 289 1634 289 1631 278 c 257,120,-1
 1620 218 l 257,121,122
 1614 184 1614 184 1594 166 c 128,-1,123
 1574 148 1574 148 1547 139 c 128,-1,124
 1520 130 1520 130 1491 129 c 128,-1,125
 1462 128 1462 128 1434 128 c 128,-1,126
 1406 128 1406 128 1376 129 c 128,-1,127
 1346 130 1346 130 1319 140 c 128,-1,128
 1292 150 1292 150 1272 168 c 128,-1,129
 1252 186 1252 186 1247 220 c 257,130,-1
 1227 336 l 257,131,132
 1224 351 1224 351 1212 362 c 128,-1,0
 1200 373 1200 373 1183 373 c 128,-1,1
  PathStart: -1
1497 260 m 257,133,134
 1503 291 1503 291 1508 320 c 128,-1,135
 1513 349 1513 349 1520 375 c 128,-1,136
 1527 401 1527 401 1543 425 c 128,-1,137
 1559 449 1559 449 1586 469 c 257,138,139
 1630 501 1630 501 1686 501 c 257,140,141
 1704 501 1704 501 1724 496 c 128,-1,142
 1744 491 1744 491 1764 485 c 128,-1,143
 1784 479 1784 479 1803 470 c 128,-1,144
 1822 461 1822 461 1838 456 c 257,145,146
 1878 508 1878 508 1903 566 c 257,147,148
 1877 588 1877 588 1852 608 c 128,-1,149
 1827 628 1827 628 1808 650 c 128,-1,150
 1789 672 1789 672 1776 700 c 0,151,152
 1764.73333333 724.266666667 1764.73333333 724.266666667 1764.73333333 754.542222222 c 0,153,154
 1764.73333333 759.2 1764.73333333 759.2 1765 764 c 0,155,156
 1767 800 1767 800 1776 828 c 128,-1,157
 1785 856 1785 856 1807 877 c 128,-1,158
 1829 898 1829 898 1851 919 c 128,-1,159
 1873 940 1873 940 1902 960 c 257,160,161
 1891 990 1891 990 1875 1017 c 128,-1,162
 1859 1044 1859 1044 1840 1071 c 257,163,164
 1803 1057 1803 1057 1765 1042 c 128,-1,165
 1727 1027 1727 1027 1686 1027 c 257,166,167
 1654 1027 1654 1027 1625 1038 c 128,-1,168
 1596 1049 1596 1049 1574 1067 c 128,-1,169
 1552 1085 1552 1085 1536 1112 c 128,-1,170
 1520 1139 1520 1139 1515 1170 c 257,171,-1
 1498 1268 l 257,172,173
 1482 1270 1482 1270 1466 1271 c 128,-1,174
 1450 1272 1450 1272 1434 1272 c 128,-1,175
 1418 1272 1418 1272 1402 1271 c 128,-1,176
 1386 1270 1386 1270 1371 1268 c 257,177,-1
 1353 1169 l 257,178,179
 1347 1138 1347 1138 1331 1112 c 128,-1,180
 1315 1086 1315 1086 1292 1067 c 128,-1,181
 1269 1048 1269 1048 1240 1038 c 128,-1,182
 1211 1028 1211 1028 1181 1027 c 257,183,184
 1142 1027 1142 1027 1104 1042 c 128,-1,185
 1066 1057 1066 1057 1030 1071 c 257,186,187
 991 1021 991 1021 965 962 c 257,188,189
 991 940 991 940 1015 920 c 128,-1,190
 1039 900 1039 900 1059 878 c 128,-1,191
 1079 856 1079 856 1091 828 c 128,-1,192
 1103 800 1103 800 1103 764 c 128,-1,193
 1103 728 1103 728 1092 700 c 128,-1,194
 1081 672 1081 672 1060 651 c 128,-1,195
 1039 630 1039 630 1016 609 c 128,-1,196
 993 588 993 588 965 568 c 257,197,198
 978 539 978 539 993 511 c 128,-1,199
 1008 483 1008 483 1028 457 c 257,200,201
 1065 470 1065 470 1103 486 c 0,202,203
 1138.76470588 501.058823529 1138.76470588 501.058823529 1176.30103806 501.058823529 c 0,204,205
 1178.64705882 501.058823529 1178.64705882 501.058823529 1181 501 c 257,206,207
 1212 501 1212 501 1241 490 c 128,-1,208
 1270 479 1270 479 1293 461 c 128,-1,209
 1316 443 1316 443 1331 416 c 128,-1,210
 1346 389 1346 389 1353 358 c 257,211,-1
 1370 260 l 257,212,213
 1386 258 1386 258 1402 257 c 128,-1,214
 1418 256 1418 256 1434 256 c 128,-1,215
 1450 256 1450 256 1466 257 c 128,-1,216
 1482 258 1482 258 1497 260 c 257,133,134
1214 764 m 257,217,218
 1214 809 1214 809 1231 849 c 128,-1,219
 1248 889 1248 889 1278 919 c 128,-1,220
 1308 949 1308 949 1347 966 c 128,-1,221
 1386 983 1386 983 1433 984 c 257,222,223
 1480 984 1480 984 1520 966 c 128,-1,224
 1560 948 1560 948 1590 919 c 128,-1,225
 1620 890 1620 890 1637 847 c 128,-1,226
 1654 804 1654 804 1654 759 c 257,227,228
 1654 716 1654 716 1637 677 c 128,-1,229
 1620 638 1620 638 1589 608 c 128,-1,230
 1558 578 1558 578 1521 562 c 128,-1,231
 1484 546 1484 546 1439 544 c 257,232,233
 1392 544 1392 544 1351 561 c 128,-1,234
 1310 578 1310 578 1280 606 c 128,-1,235
 1250 634 1250 634 1231 676 c 0,236,237
 1213.80952381 714 1213.80952381 714 1213.80952381 755.274376417 c 0,238,239
 1213.80952381 759.619047619 1213.80952381 759.619047619 1214 764 c 257,217,218
1526 764 m 257,240,241
 1526 802 1526 802 1499 829 c 128,-1,242
 1472 856 1472 856 1434 856 c 257,243,244
 1415 856 1415 856 1398 848 c 128,-1,245
 1381 840 1381 840 1368 828 c 128,-1,246
 1355 816 1355 816 1349 799 c 128,-1,247
 1343 782 1343 782 1342 763 c 0,248,249
 1341.88888889 760.888888889 1341.88888889 760.888888889 1341.88888889 758.802469136 c 0,250,251
 1341.88888889 742.111111111 1341.88888889 742.111111111 1349 727 c 0,252,253
 1357 710 1357 710 1368 699 c 128,-1,254
 1379 688 1379 688 1398 679 c 0,255,256
 1413.54545455 671.636363636 1413.54545455 671.636363636 1427.75206612 671.636363636 c 0,257,258
 1430.90909091 671.636363636 1430.90909091 671.636363636 1434 672 c 0,259,260
 1451 674 1451 674 1470 679 c 128,-1,261
 1489 684 1489 684 1500 699 c 128,-1,262
 1511 714 1511 714 1519 728 c 0,263,264
 1526.11111111 740.444444444 1526.11111111 740.444444444 1526.11111111 759.209876543 c 0,265,266
 1526.11111111 761.555555556 1526.11111111 761.555555556 1526 764 c 257,240,241
EndSplineSet
Validated: 1
EndChar

StartChar: uE064
Encoding: 101 57444 101
GlifName: uE_064
Width: 2048
VWidth: 0
Flags: W
LayerCount: 2
Fore
SplineSet
163 1162 m 257,0,1
 163 1175 163 1175 168 1190 c 128,-1,2
 173 1205 173 1205 179 1220 c 128,-1,3
 185 1235 185 1235 189 1248 c 128,-1,4
 193 1261 193 1261 194 1272 c 257,5,6
 194 1275 194 1275 192 1281 c 257,7,8
 190 1283 190 1283 187 1285 c 128,-1,9
 184 1287 184 1287 182 1287 c 257,10,-1
 98 1299 l 257,11,12
 68 1303 68 1303 51 1320 c 128,-1,13
 34 1337 34 1337 26 1360 c 128,-1,14
 18 1383 18 1383 15 1409 c 128,-1,15
 12 1435 12 1435 13 1460 c 257,16,17
 13 1482 13 1482 15 1505 c 128,-1,18
 17 1528 17 1528 24 1547 c 128,-1,19
 31 1566 31 1566 46 1581 c 128,-1,20
 61 1596 61 1596 89 1601 c 257,21,-1
 170 1618 l 257,22,23
 181 1620 181 1620 181 1631 c 257,24,25
 181 1639 181 1639 175 1653 c 128,-1,26
 169 1667 169 1667 162 1682 c 128,-1,27
 155 1697 155 1697 148 1716 c 128,-1,28
 141 1735 141 1735 142 1749 c 257,29,30
 142 1776 142 1776 159 1799 c 128,-1,31
 176 1822 176 1822 200 1841 c 128,-1,32
 224 1860 224 1860 253 1874 c 128,-1,33
 282 1888 282 1888 302 1898 c 257,34,-1
 303 1898 l 257,35,36
 308 1898 308 1898 319 1901 c 128,-1,37
 330 1904 330 1904 337 1904 c 257,38,39
 367 1904 367 1904 387 1889 c 128,-1,40
 407 1874 407 1874 423 1856 c 128,-1,41
 439 1838 439 1838 449 1823 c 128,-1,42
 459 1808 459 1808 472 1808 c 257,43,44
 482 1808 482 1808 493 1825 c 128,-1,45
 504 1842 504 1842 519 1861 c 128,-1,46
 534 1880 534 1880 555 1898 c 128,-1,47
 576 1916 576 1916 607 1915 c 257,48,49
 623 1915 623 1915 646 1906 c 128,-1,50
 669 1897 669 1897 692 1886 c 128,-1,51
 715 1875 715 1875 737 1860 c 128,-1,52
 759 1845 759 1845 770 1837 c 257,53,54
 786 1823 786 1823 795 1806 c 128,-1,55
 804 1789 804 1789 805 1766 c 257,56,57
 805 1752 805 1752 800 1737 c 128,-1,58
 795 1722 795 1722 790 1707 c 128,-1,59
 785 1692 785 1692 779 1679 c 128,-1,60
 773 1666 773 1666 774 1655 c 257,61,62
 774 1641 774 1641 786 1640 c 257,63,-1
 870 1628 l 257,64,65
 900 1623 900 1623 917 1606 c 128,-1,66
 934 1589 934 1589 942 1567 c 128,-1,67
 950 1545 950 1545 953 1517 c 128,-1,68
 956 1489 956 1489 955 1467 c 257,69,70
 955 1445 955 1445 953 1422 c 128,-1,71
 951 1399 951 1399 944 1380 c 128,-1,72
 937 1361 937 1361 921 1346 c 128,-1,73
 905 1331 905 1331 879 1326 c 257,74,75
 876 1326 876 1326 864 1323 c 128,-1,76
 852 1320 852 1320 837 1316 c 128,-1,77
 822 1312 822 1312 811 1311 c 128,-1,78
 800 1310 800 1310 794 1308 c 257,79,-1
 793 1308 l 257,80,81
 787 1304 787 1304 787 1297 c 257,82,83
 787 1288 787 1288 793 1273 c 128,-1,84
 799 1258 799 1258 807 1243 c 128,-1,85
 815 1228 815 1228 820 1210 c 128,-1,86
 825 1192 825 1192 826 1178 c 257,87,88
 826 1158 826 1158 818 1140 c 128,-1,89
 810 1122 810 1122 794 1108 c 257,90,91
 780 1097 780 1097 759 1082 c 128,-1,92
 738 1067 738 1067 717 1054 c 128,-1,93
 696 1041 696 1041 672 1032 c 128,-1,94
 648 1023 648 1023 631 1023 c 257,95,96
 601 1023 601 1023 580 1038 c 128,-1,97
 559 1053 559 1053 545 1071 c 128,-1,98
 531 1089 531 1089 519 1104 c 128,-1,99
 507 1119 507 1119 496 1119 c 257,100,101
 486 1119 486 1119 475 1102 c 128,-1,102
 464 1085 464 1085 449 1066 c 128,-1,103
 434 1047 434 1047 413 1030 c 128,-1,104
 392 1013 392 1013 361 1013 c 257,105,106
 345 1013 345 1013 322 1021 c 128,-1,107
 299 1029 299 1029 275 1041 c 128,-1,108
 251 1053 251 1053 231 1066 c 128,-1,109
 211 1079 211 1079 198 1090 c 257,110,111
 181 1105 181 1105 172 1122 c 128,-1,112
 163 1139 163 1139 163 1162 c 257,0,1
499 1247 m 257,113,114
 524 1247 524 1247 544 1239 c 128,-1,115
 564 1231 564 1231 579 1220 c 128,-1,116
 594 1209 594 1209 609 1192 c 128,-1,117
 624 1175 624 1175 640 1159 c 257,118,119
 653 1164 653 1164 666 1173 c 128,-1,120
 679 1182 679 1182 690 1190 c 257,121,122
 679 1216 679 1216 669 1241 c 128,-1,123
 659 1266 659 1266 659 1295 c 257,124,125
 659 1331 659 1331 676 1364 c 128,-1,126
 693 1397 693 1397 725 1416 c 257,127,128
 748 1430 748 1430 774 1435 c 128,-1,129
 800 1440 800 1440 826 1446 c 257,130,131
 826 1452 826 1452 827 1458 c 128,-1,132
 828 1464 828 1464 827 1470 c 257,133,134
 827 1479 827 1479 827 1487 c 128,-1,135
 827 1495 827 1495 825 1505 c 257,136,-1
 767 1513 l 257,137,138
 741 1517 741 1517 719 1529 c 128,-1,139
 697 1541 697 1541 681 1561 c 128,-1,140
 665 1581 665 1581 655 1603 c 128,-1,141
 645 1625 645 1625 646 1653 c 128,-1,142
 647 1681 647 1681 654 1703 c 257,143,-1
 670 1751 l 257,144,145
 658 1759 658 1759 645 1766 c 128,-1,146
 632 1773 632 1773 618 1779 c 257,147,148
 601 1758 601 1758 587 1740 c 128,-1,149
 573 1722 573 1722 556 1708 c 128,-1,150
 539 1694 539 1694 519 1688 c 128,-1,151
 499 1682 499 1682 469 1680 c 257,152,153
 443 1680 443 1680 424 1687 c 128,-1,154
 405 1694 405 1694 389 1707 c 128,-1,155
 373 1720 373 1720 358 1735 c 128,-1,156
 343 1750 343 1750 328 1769 c 257,157,158
 315 1762 315 1762 302 1754 c 128,-1,159
 289 1746 289 1746 278 1737 c 257,160,161
 289 1711 289 1711 299 1686 c 128,-1,162
 309 1661 309 1661 309 1632 c 257,163,164
 309 1581 309 1581 279 1543 c 128,-1,165
 249 1505 249 1505 197 1493 c 257,166,-1
 142 1481 l 257,167,168
 142 1475 142 1475 142 1469 c 128,-1,169
 142 1463 142 1463 141 1457 c 257,170,171
 141 1448 141 1448 142 1440 c 128,-1,172
 143 1432 143 1432 143 1422 c 257,173,-1
 200 1414 l 257,174,175
 226 1410 226 1410 248 1398 c 128,-1,176
 270 1386 270 1386 287 1366 c 128,-1,177
 304 1346 304 1346 313 1324 c 128,-1,178
 322 1302 322 1302 322 1274 c 128,-1,179
 322 1246 322 1246 314 1224 c 257,180,-1
 298 1176 l 257,181,182
 310 1168 310 1168 323 1161 c 128,-1,183
 336 1154 336 1154 350 1148 c 257,184,185
 366 1169 366 1169 381 1187 c 128,-1,186
 396 1205 396 1205 411 1219 c 128,-1,187
 426 1233 426 1233 449 1239 c 128,-1,188
 472 1245 472 1245 499 1247 c 257,113,114
352 1472 m 257,189,190
 352 1499 352 1499 362 1522 c 128,-1,191
 372 1545 372 1545 390 1562 c 128,-1,192
 408 1579 408 1579 430 1590 c 128,-1,193
 452 1601 452 1601 480 1600 c 257,194,195
 506 1600 506 1600 529 1590 c 128,-1,196
 552 1580 552 1580 571 1562 c 128,-1,197
 590 1544 590 1544 598 1521 c 128,-1,198
 606 1498 606 1498 608 1472 c 257,199,200
 608 1445 608 1445 598 1422 c 128,-1,201
 588 1399 588 1399 571 1382 c 128,-1,202
 554 1365 554 1365 530 1354 c 128,-1,203
 506 1343 506 1343 480 1344 c 128,-1,204
 454 1345 454 1345 429 1354 c 128,-1,205
 404 1363 404 1363 389 1381 c 128,-1,206
 374 1399 374 1399 362 1422 c 128,-1,207
 350 1445 350 1445 352 1472 c 257,189,190
EndSplineSet
Validated: 1
EndChar

StartChar: uE065
Encoding: 102 57445 102
GlifName: uE_065
Width: 2048
VWidth: 0
Flags: W
LayerCount: 2
Fore
SplineSet
504 128 m 257,0,1
 429 128 429 128 360 159 c 128,-1,2
 291 190 291 190 240 240 c 128,-1,3
 189 290 189 290 159 360 c 128,-1,4
 129 430 129 430 128 504 c 257,5,-1
 128 1664 l 257,6,7
 128 1715 128 1715 148 1761 c 128,-1,8
 168 1807 168 1807 202 1843 c 128,-1,9
 236 1879 236 1879 282 1899 c 128,-1,10
 328 1919 328 1919 379 1920 c 257,11,-1
 1285 1920 l 257,12,13
 1337 1920 1337 1920 1382 1899 c 128,-1,14
 1427 1878 1427 1878 1462 1843 c 128,-1,15
 1497 1808 1497 1808 1516 1761 c 128,-1,16
 1535 1714 1535 1714 1536 1664 c 257,17,-1
 1536 768 l 257,18,-1
 1920 768 l 257,19,-1
 1920 504 l 257,20,21
 1920 429 1920 429 1889 360 c 128,-1,22
 1858 291 1858 291 1808 240 c 128,-1,23
 1758 189 1758 189 1688 159 c 128,-1,24
 1618 129 1618 129 1544 128 c 257,25,-1
 504 128 l 257,0,1
1408 256 m 257,26,-1
 1408 1664 l 257,27,28
 1408 1690 1408 1690 1398 1714 c 128,-1,29
 1388 1738 1388 1738 1371 1755 c 128,-1,30
 1354 1772 1354 1772 1330 1782 c 128,-1,31
 1306 1792 1306 1792 1280 1792 c 257,32,-1
 384 1792 l 257,33,34
 357 1792 357 1792 334 1782 c 128,-1,35
 311 1772 311 1772 293 1755 c 128,-1,36
 275 1738 275 1738 266 1714 c 128,-1,37
 257 1690 257 1690 256 1664 c 257,38,-1
 256 507 l 257,39,40
 256 457 256 457 276 411 c 128,-1,41
 296 365 296 365 332 332 c 128,-1,42
 368 299 368 299 411 276 c 0,43,44
 449.038461538 255.653846154 449.038461538 255.653846154 494.902366864 255.653846154 c 0,45,46
 500.884615385 255.653846154 500.884615385 255.653846154 507 256 c 257,47,-1
 1408 256 l 257,26,-1
1536 256 m 257,48,-1
 1541 256 l 257,49,50
 1591 256 1591 256 1637 276 c 128,-1,51
 1683 296 1683 296 1716 332 c 128,-1,52
 1749 368 1749 368 1772 411 c 0,53,54
 1792.34615385 449.038461538 1792.34615385 449.038461538 1792.34615385 494.902366864 c 0,55,56
 1792.34615385 500.884615385 1792.34615385 500.884615385 1792 507 c 257,57,-1
 1792 640 l 257,58,-1
 1536 640 l 257,59,-1
 1536 256 l 257,48,-1
EndSplineSet
Validated: 1
EndChar

StartChar: uE066
Encoding: 103 57446 103
GlifName: uE_066
Width: 2048
VWidth: 0
Flags: W
LayerCount: 2
Fore
SplineSet
576 1408 m 257,0,1
 550 1408 550 1408 531 1427 c 128,-1,2
 512 1446 512 1446 512 1472 c 128,-1,3
 512 1498 512 1498 531 1517 c 128,-1,4
 550 1536 550 1536 576 1536 c 257,5,-1
 1088 1536 l 257,6,7
 1114 1536 1114 1536 1133 1517 c 128,-1,8
 1152 1498 1152 1498 1152 1472 c 128,-1,9
 1152 1446 1152 1446 1133 1427 c 128,-1,10
 1114 1408 1114 1408 1088 1408 c 257,11,-1
 576 1408 l 257,0,1
576 1024 m 257,12,13
 550 1024 550 1024 531 1043 c 128,-1,14
 512 1062 512 1062 512 1088 c 128,-1,15
 512 1114 512 1114 531 1133 c 128,-1,16
 550 1152 550 1152 576 1152 c 257,17,-1
 1088 1152 l 257,18,19
 1114 1152 1114 1152 1133 1133 c 128,-1,20
 1152 1114 1152 1114 1152 1088 c 128,-1,21
 1152 1062 1152 1062 1133 1043 c 128,-1,22
 1114 1024 1114 1024 1088 1024 c 257,23,-1
 576 1024 l 257,12,13
576 640 m 257,24,25
 550 640 550 640 531 659 c 128,-1,26
 512 678 512 678 512 704 c 128,-1,27
 512 730 512 730 531 749 c 128,-1,28
 550 768 550 768 576 768 c 257,29,-1
 832 768 l 257,30,31
 858 768 858 768 877 749 c 128,-1,32
 896 730 896 730 896 704 c 128,-1,33
 896 678 896 678 877 659 c 128,-1,34
 858 640 858 640 832 640 c 257,35,-1
 576 640 l 257,24,25
EndSplineSet
Validated: 1
EndChar

StartChar: uE067
Encoding: 104 57447 104
GlifName: uE_067
Width: 2048
VWidth: 0
Flags: W
LayerCount: 2
Fore
SplineSet
441 128 m 257,0,1
 378 128 378 128 321 153.5 c 128,-1,2
 264 179 264 179 221.5 221.5 c 128,-1,3
 179 264 179 264 153.5 321 c 128,-1,4
 128 378 128 378 128 441 c 257,5,-1
 128 1607 l 257,6,7
 128 1670 128 1670 153.5 1727 c 128,-1,8
 179 1784 179 1784 221.5 1826.5 c 128,-1,9
 264 1869 264 1869 321 1894.5 c 128,-1,10
 378 1920 378 1920 441 1920 c 257,11,-1
 1607 1920 l 257,12,13
 1670 1920 1670 1920 1727 1894.5 c 128,-1,14
 1784 1869 1784 1869 1826.5 1826.5 c 128,-1,15
 1869 1784 1869 1784 1894.5 1727 c 128,-1,16
 1920 1670 1920 1670 1920 1607 c 257,17,-1
 1920 441 l 257,18,19
 1920 378 1920 378 1894.5 321 c 128,-1,20
 1869 264 1869 264 1826.5 221.5 c 128,-1,21
 1784 179 1784 179 1727 153.5 c 128,-1,22
 1670 128 1670 128 1607 128 c 257,23,-1
 441 128 l 257,0,1
256 1536 m 257,24,-1
 1792 1536 l 257,25,-1
 1792 1600 l 257,26,27
 1792 1639 1792 1639 1777 1674 c 128,-1,28
 1762 1709 1762 1709 1735.5 1735.5 c 128,-1,29
 1709 1762 1709 1762 1674 1777 c 128,-1,30
 1639 1792 1639 1792 1600 1792 c 257,31,-1
 448 1792 l 257,32,33
 409 1792 409 1792 374 1777 c 128,-1,34
 339 1762 339 1762 312.5 1735.5 c 128,-1,35
 286 1709 286 1709 271 1674 c 128,-1,36
 256 1639 256 1639 256 1600 c 257,37,-1
 256 1536 l 257,24,-1
1600 256 m 257,38,39
 1639 256 1639 256 1674 271 c 128,-1,40
 1709 286 1709 286 1735.5 312.5 c 128,-1,41
 1762 339 1762 339 1777 374 c 128,-1,42
 1792 409 1792 409 1792 448 c 257,43,-1
 1792 1408 l 257,44,-1
 256 1408 l 257,45,-1
 256 448 l 257,46,47
 256 409 256 409 271 374 c 128,-1,48
 286 339 286 339 312.5 312.5 c 128,-1,49
 339 286 339 286 374 271 c 128,-1,50
 409 256 409 256 448 256 c 257,51,-1
 1600 256 l 257,38,39
EndSplineSet
Validated: 1
EndChar

StartChar: uE068
Encoding: 105 57448 105
GlifName: uE_068
Width: 2048
VWidth: 0
Flags: W
LayerCount: 2
Fore
SplineSet
512 576 m 257,0,1
 512 602 512 602 531 621 c 257,2,-1
 742 832 l 257,3,-1
 531 1043 l 257,4,5
 512 1062 512 1062 512 1088 c 257,6,7
 512 1114 512 1114 531 1133 c 128,-1,8
 550 1152 550 1152 576 1152 c 257,9,10
 602 1152 602 1152 621 1133 c 257,11,-1
 877 877 l 257,12,13
 896 858 896 858 896 832 c 257,14,15
 896 806 896 806 877 787 c 257,16,-1
 621 531 l 257,17,18
 602 512 602 512 576 512 c 257,19,20
 550 512 550 512 531 531 c 128,-1,21
 512 550 512 550 512 576 c 257,0,1
960 512 m 257,22,23
 934 512 934 512 915 531 c 128,-1,24
 896 550 896 550 896 576 c 257,25,26
 896 602 896 602 915 621 c 128,-1,27
 934 640 934 640 960 640 c 257,28,-1
 1472 640 l 257,29,30
 1498 640 1498 640 1517 621 c 128,-1,31
 1536 602 1536 602 1536 576 c 257,32,33
 1536 550 1536 550 1517 531 c 128,-1,34
 1498 512 1498 512 1472 512 c 257,35,-1
 960 512 l 257,22,23
EndSplineSet
Validated: 1
EndChar

StartChar: uE069
Encoding: 106 57449 106
GlifName: uE_069
Width: 2048
VWidth: 0
Flags: W
LayerCount: 2
Fore
SplineSet
1363 61 m 257,0,1
 1354 61 1354 61 1347 64 c 257,2,3
 1332 71 1332 71 1324 84 c 257,4,5
 1273 165 1273 165 1198 211 c 128,-1,6
 1123 257 1123 257 1026 257 c 257,7,8
 978 257 978 257 937 246 c 128,-1,9
 896 235 896 235 855 211 c 257,10,11
 832 197 832 197 815 184 c 128,-1,12
 798 171 798 171 784 156 c 128,-1,13
 770 141 770 141 757 124 c 128,-1,14
 744 107 744 107 730 85 c 257,15,16
 716 63 716 63 691 63 c 257,17,18
 683 63 683 63 675 65 c 257,19,20
 643 73 643 73 600.5 93.5 c 128,-1,21
 558 114 558 114 514.5 139.5 c 128,-1,22
 471 165 471 165 432 192.5 c 128,-1,23
 393 220 393 220 369 242 c 257,24,25
 353 256 353 256 353 277 c 257,26,27
 353 288 353 288 360 300 c 257,28,29
 383 342 383 342 394.5 382.5 c 128,-1,30
 406 423 406 423 406 471 c 257,31,32
 406 565 406 565 360 642.5 c 128,-1,33
 314 720 314 720 233 767 c 257,34,35
 154 813 154 813 62 813 c 257,36,37
 54 813 54 813 46.5 815 c 128,-1,38
 39 817 39 817 32 823 c 257,39,40
 21 833 21 833 14.5 860.5 c 128,-1,41
 8 888 8 888 5 920.5 c 128,-1,42
 2 953 2 953 1 983.5 c 128,-1,43
 0 1014 0 1014 0 1030 c 257,44,45
 0 1072 0 1072 3 1116 c 128,-1,46
 6 1160 6 1160 14 1201 c 257,47,48
 16 1210 16 1210 19.5 1216 c 128,-1,49
 23 1222 23 1222 30 1228 c 257,50,51
 38 1235 38 1235 46.5 1236.5 c 128,-1,52
 55 1238 55 1238 65 1238 c 257,53,54
 154 1238 154 1238 231 1282 c 257,55,56
 312 1328 312 1328 357.5 1407 c 128,-1,57
 403 1486 403 1486 403 1579 c 257,58,59
 403 1627 403 1627 390 1667.5 c 128,-1,60
 377 1708 377 1708 355 1750 c 257,61,62
 348 1762 348 1762 348 1773 c 257,63,64
 348 1793 348 1793 365 1808 c 257,65,66
 396 1836 396 1836 433 1861.5 c 128,-1,67
 470 1887 470 1887 509.5 1909 c 128,-1,68
 549 1931 549 1931 590 1949 c 128,-1,69
 631 1967 631 1967 670 1981 c 257,70,71
 677 1984 677 1984 686 1984 c 257,72,73
 711 1984 711 1984 724 1962 c 257,74,75
 772 1882 772 1882 850 1835 c 128,-1,76
 928 1788 928 1788 1022 1788 c 257,77,78
 1114 1788 1114 1788 1193 1834 c 257,79,80
 1215 1847 1215 1847 1232 1860.5 c 128,-1,81
 1249 1874 1249 1874 1263.5 1889 c 128,-1,82
 1278 1904 1278 1904 1291 1921.5 c 128,-1,83
 1304 1939 1304 1939 1318 1960 c 257,84,85
 1325 1970 1325 1970 1335.5 1976.5 c 128,-1,86
 1346 1983 1346 1983 1358 1983 c 257,87,88
 1365 1983 1365 1983 1373 1980 c 257,89,90
 1412 1966 1412 1966 1453 1947.5 c 128,-1,91
 1494 1929 1494 1929 1534 1906.5 c 128,-1,92
 1574 1884 1574 1884 1611 1858 c 128,-1,93
 1648 1832 1648 1832 1679 1804 c 257,94,95
 1695 1790 1695 1790 1695 1768 c 257,96,97
 1695 1760 1695 1760 1693.5 1755.5 c 128,-1,98
 1692 1751 1692 1751 1688 1745 c 257,99,100
 1665 1703 1665 1703 1653.5 1662.5 c 128,-1,101
 1642 1622 1642 1622 1642 1574 c 257,102,103
 1642 1481 1642 1481 1688 1402.5 c 128,-1,104
 1734 1324 1734 1324 1815 1278 c 257,105,106
 1894 1233 1894 1233 1986 1233 c 257,107,108
 2002 1233 2002 1233 2016 1222 c 257,109,110
 2023 1217 2023 1217 2026.5 1210.5 c 128,-1,111
 2030 1204 2030 1204 2032 1196 c 257,112,113
 2042 1152 2042 1152 2045 1105.5 c 128,-1,114
 2048 1059 2048 1059 2048 1014 c 257,115,116
 2048 972 2048 972 2045.5 929 c 128,-1,117
 2043 886 2043 886 2034 845 c 257,118,119
 2030 829 2030 829 2018 818 c 257,120,121
 2004 807 2004 807 1983 807 c 257,122,123
 1894 807 1894 807 1817 763 c 257,124,125
 1736 717 1736 717 1690.5 638 c 128,-1,126
 1645 559 1645 559 1645 466 c 257,127,128
 1645 420 1645 420 1657.5 377 c 128,-1,129
 1670 334 1670 334 1693 295 c 257,130,131
 1697 288 1697 288 1698.5 284 c 128,-1,132
 1700 280 1700 280 1700 272 c 257,133,134
 1700 253 1700 253 1683 238 c 257,135,136
 1617 181 1617 181 1538 137 c 128,-1,137
 1459 93 1459 93 1378 64 c 257,138,139
 1370 61 1370 61 1363 61 c 257,0,1
1023 513 m 257,140,141
 1129 513 1129 513 1223 553.5 c 128,-1,142
 1317 594 1317 594 1386.5 664 c 128,-1,143
 1456 734 1456 734 1496.5 827.5 c 128,-1,144
 1537 921 1537 921 1537 1028 c 257,145,146
 1537 1134 1537 1134 1496 1226.5 c 128,-1,147
 1455 1319 1455 1319 1385.5 1388 c 128,-1,148
 1316 1457 1316 1457 1222.5 1496.5 c 128,-1,149
 1129 1536 1129 1536 1024 1536 c 257,150,151
 919 1536 919 1536 826 1496 c 128,-1,152
 733 1456 733 1456 663.5 1386.5 c 128,-1,153
 594 1317 594 1317 553.5 1224 c 128,-1,154
 513 1131 513 1131 513 1026 c 257,155,156
 513 920 513 920 553 826.5 c 128,-1,157
 593 733 593 733 662 663.5 c 128,-1,158
 731 594 731 594 824 553.5 c 128,-1,159
 917 513 917 513 1023 513 c 257,140,141
EndSplineSet
Validated: 1
EndChar

StartChar: uE06A
Encoding: 107 57450 107
GlifName: uE_06A_
Width: 2048
VWidth: 0
Flags: W
LayerCount: 2
Fore
SplineSet
1023 513 m 257,0,1
 917 513 917 513 824 553.5 c 128,-1,2
 731 594 731 594 662 663.5 c 128,-1,3
 593 733 593 733 553 826.5 c 128,-1,4
 513 920 513 920 513 1026 c 257,5,6
 513 1131 513 1131 553.5 1224 c 128,-1,7
 594 1317 594 1317 663.5 1386.5 c 128,-1,8
 733 1456 733 1456 826 1496 c 128,-1,9
 919 1536 919 1536 1024 1536 c 257,10,11
 1129 1536 1129 1536 1222.5 1496.5 c 128,-1,12
 1316 1457 1316 1457 1385.5 1388 c 128,-1,13
 1455 1319 1455 1319 1496 1226.5 c 128,-1,14
 1537 1134 1537 1134 1537 1028 c 257,15,16
 1537 921 1537 921 1496.5 827.5 c 128,-1,17
 1456 734 1456 734 1386.5 664 c 128,-1,18
 1317 594 1317 594 1223 553.5 c 128,-1,19
 1129 513 1129 513 1023 513 c 257,0,1
EndSplineSet
Validated: 1
EndChar

StartChar: uE06B
Encoding: 108 57451 108
GlifName: uE_06B_
Width: 2048
VWidth: 0
Flags: W
LayerCount: 2
Fore
SplineSet
384 1536 m 257,0,-1
 384 1546 l 257,1,2
 384 1650 384 1650 425.5 1741.5 c 128,-1,3
 467 1833 467 1833 537.5 1901 c 128,-1,4
 608 1969 608 1969 700.5 2008.5 c 128,-1,5
 793 2048 793 2048 896 2048 c 257,6,7
 1002 2048 1002 2048 1095.5 2008 c 128,-1,8
 1189 1968 1189 1968 1258.5 1898.5 c 128,-1,9
 1328 1829 1328 1829 1368 1735.5 c 128,-1,10
 1408 1642 1408 1642 1408 1536 c 257,11,12
 1408 1430 1408 1430 1368 1336.5 c 128,-1,13
 1328 1243 1328 1243 1258.5 1173.5 c 128,-1,14
 1189 1104 1189 1104 1095.5 1064 c 128,-1,15
 1002 1024 1002 1024 896 1024 c 257,16,17
 790 1024 790 1024 696.5 1064 c 128,-1,18
 603 1104 603 1104 533.5 1173.5 c 128,-1,19
 464 1243 464 1243 424 1336.5 c 128,-1,20
 384 1430 384 1430 384 1536 c 257,0,-1
1280 1536 m 257,21,-1
 1280 1544 l 257,22,23
 1280 1622 1280 1622 1249 1690.5 c 128,-1,24
 1218 1759 1218 1759 1165 1810 c 128,-1,25
 1112 1861 1112 1861 1042.5 1890.5 c 128,-1,26
 973 1920 973 1920 896 1920 c 257,27,28
 816 1920 816 1920 746 1890 c 128,-1,29
 676 1860 676 1860 624 1808 c 128,-1,30
 572 1756 572 1756 542 1686 c 128,-1,31
 512 1616 512 1616 512 1536 c 257,32,33
 512 1456 512 1456 542 1386 c 128,-1,34
 572 1316 572 1316 624 1264 c 128,-1,35
 676 1212 676 1212 746 1182 c 128,-1,36
 816 1152 816 1152 896 1152 c 257,37,38
 976 1152 976 1152 1046 1182 c 128,-1,39
 1116 1212 1116 1212 1168 1264 c 128,-1,40
 1220 1316 1220 1316 1250 1386 c 128,-1,41
 1280 1456 1280 1456 1280 1536 c 257,21,-1
0 640 m 257,42,43
 0 693 0 693 20 739.5 c 128,-1,44
 40 786 40 786 75 821 c 128,-1,45
 110 856 110 856 156.5 876 c 128,-1,46
 203 896 203 896 256 896 c 257,47,-1
 1168 896 l 257,48,49
 1160 864 1160 864 1156 832 c 128,-1,50
 1152 800 1152 800 1152 768 c 257,51,-1
 256 768 l 257,52,53
 229 768 229 768 205.5 758 c 128,-1,54
 182 748 182 748 165 731 c 128,-1,55
 148 714 148 714 138 690.5 c 128,-1,56
 128 667 128 667 128 640 c 257,57,58
 128 551 128 551 154.5 480.5 c 128,-1,59
 181 410 181 410 227 355.5 c 128,-1,60
 273 301 273 301 335 261.5 c 128,-1,61
 397 222 397 222 468 195.5 c 128,-1,62
 539 169 539 169 616 154 c 128,-1,63
 693 139 693 139 768 133 c 257,64,65
 768 120 768 120 767.5 107.5 c 128,-1,66
 767 95 767 95 767 81 c 257,67,68
 767 61 767 61 769 41.5 c 128,-1,69
 771 22 771 22 778 4 c 257,70,71
 683 10 683 10 588.5 29 c 128,-1,72
 494 48 494 48 407.5 82 c 128,-1,73
 321 116 321 116 246.5 166.5 c 128,-1,74
 172 217 172 217 117.5 285.5 c 128,-1,75
 63 354 63 354 31.5 442 c 128,-1,76
 0 530 0 530 0 640 c 257,42,43
EndSplineSet
Validated: 1
EndChar

StartChar: uE06C
Encoding: 109 57452 109
GlifName: uE_06C_
Width: 2048
VWidth: 0
Flags: W
LayerCount: 2
Fore
SplineSet
960 0 m 257,0,1
 934 0 934 0 915 19 c 128,-1,2
 896 38 896 38 896 64 c 257,3,-1
 896 256 l 257,4,5
 896 282 896 282 915 301 c 257,6,-1
 1291 677 l 257,7,8
 1280 729 1280 729 1280 776 c 257,9,10
 1280 854 1280 854 1311 922.5 c 128,-1,11
 1342 991 1342 991 1395 1042 c 128,-1,12
 1448 1093 1448 1093 1517.5 1122.5 c 128,-1,13
 1587 1152 1587 1152 1664 1152 c 257,14,15
 1744 1152 1744 1152 1814 1122 c 128,-1,16
 1884 1092 1884 1092 1936 1040 c 128,-1,17
 1988 988 1988 988 2018 918 c 128,-1,18
 2048 848 2048 848 2048 768 c 257,19,20
 2048 691 2048 691 2018.5 621.5 c 128,-1,21
 1989 552 1989 552 1938 499 c 128,-1,22
 1887 446 1887 446 1818.5 415 c 128,-1,23
 1750 384 1750 384 1672 384 c 257,24,25
 1637 384 1637 384 1603 389 c 128,-1,26
 1569 394 1569 394 1536 406 c 257,27,28
 1536 395 1536 395 1536.5 381 c 128,-1,29
 1537 367 1537 367 1537 352 c 257,30,31
 1537 334 1537 334 1535 317 c 128,-1,32
 1533 300 1533 300 1526 286.5 c 128,-1,33
 1519 273 1519 273 1506 264.5 c 128,-1,34
 1493 256 1493 256 1472 256 c 257,35,-1
 1408 256 l 257,36,37
 1408 209 1408 209 1405.5 183.5 c 128,-1,38
 1403 158 1403 158 1390.5 145.5 c 128,-1,39
 1378 133 1378 133 1352 130.5 c 128,-1,40
 1326 128 1326 128 1280 128 c 257,41,-1
 1280 94 l 257,42,43
 1280 77 1280 77 1278 60.5 c 128,-1,44
 1276 44 1276 44 1269.5 30.5 c 128,-1,45
 1263 17 1263 17 1250.5 8.5 c 128,-1,46
 1238 0 1238 0 1216 0 c 257,47,-1
 960 0 l 257,0,1
1856 864 m 257,48,49
 1856 904 1856 904 1828 932 c 128,-1,50
 1800 960 1800 960 1760 960 c 257,51,52
 1720 960 1720 960 1692 932 c 128,-1,53
 1664 904 1664 904 1664 864 c 257,54,55
 1664 824 1664 824 1692 796 c 128,-1,56
 1720 768 1720 768 1760 768 c 257,57,58
 1800 768 1800 768 1828 796 c 128,-1,59
 1856 824 1856 824 1856 864 c 257,48,49
EndSplineSet
Validated: 1
EndChar

StartChar: uE06D
Encoding: 110 57453 110
GlifName: uE_06D_
Width: 2048
VWidth: 0
Flags: W
LayerCount: 2
Fore
SplineSet
1283 1539 m 257,0,-1
 1778 1539 l 257,1,2
 1972 1539 1972 1539 2040 1353 c 257,3,4
 2048 1322 2048 1322 2048 1288 c 257,5,-1
 2048 250 l 257,6,7
 2048 99 2048 99 1890 20 c 257,8,9
 1845 0 1845 0 1778 0 c 257,10,-1
 270 0 l 257,11,12
 76 0 76 0 8 186 c 257,13,14
 0 217 0 217 0 250 c 257,15,-1
 0 641 l 257,16,-1
 3 641 l 257,17,18
 69 584 69 584 124 557 c 257,19,-1
 127 551 l 257,20,-1
 127 512 l 257,21,-1
 1921 512 l 257,22,-1
 1921 1280 l 257,23,24
 1921 1379 1921 1379 1812 1409 c 257,25,-1
 1286 1409 l 257,26,27
 1280 1409 1280 1409 1280 1415 c 257,28,-1
 1280 1474 l 257,29,30
 1280 1494 1280 1494 1277 1536 c 257,31,-1
 1283 1539 l 257,0,-1
127 385 m 257,32,-1
 127 259 l 257,33,34
 127 159 127 159 236 129 c 257,35,-1
 1800 129 l 257,36,37
 1885 129 1885 129 1919 231 c 257,38,39
 1921 245 1921 245 1921 259 c 257,40,-1
 1921 385 l 257,41,-1
 1741 385 l 257,42,-1
 1741 383 l 257,43,44
 1779 383 1779 383 1792 326 c 257,45,-1
 1792 312 l 257,46,47
 1792 268 1792 268 1727 256 c 257,48,49
 1665 269 1665 269 1665 318 c 257,50,-1
 1665 324 l 257,51,52
 1677 383 1677 383 1719 383 c 257,53,-1
 1719 385 l 257,54,-1
 1485 385 l 257,55,-1
 1485 383 l 257,56,57
 1528 383 1528 383 1536 318 c 257,58,-1
 1536 312 l 257,59,60
 1536 269 1536 269 1471 256 c 257,61,62
 1409 271 1409 271 1409 312 c 257,63,-1
 1409 326 l 257,64,65
 1422 383 1422 383 1460 383 c 257,66,-1
 1460 385 l 257,67,-1
 127 385 l 257,32,-1
EndSplineSet
Validated: 1
EndChar

StartChar: uE06E
Encoding: 111 57454 111
GlifName: uE_06E_
Width: 2048
VWidth: 0
Flags: W
LayerCount: 2
Fore
SplineSet
312 1795 m 257,0,-1
 838 1795 l 257,1,2
 998 1795 998 1795 1103 1646 c 257,3,4
 1153 1572 1153 1572 1153 1443 c 257,5,-1
 1153 993 l 257,6,7
 1153 751 1153 751 948 661 c 257,8,9
 882 641 882 641 844 641 c 257,10,-1
 307 641 l 257,11,12
 153 641 153 641 48 791 c 257,13,14
 0 867 0 867 0 940 c 257,15,-1
 0 1497 l 257,16,17
 0 1634 0 1634 141 1741 c 257,18,19
 223 1795 223 1795 312 1795 c 257,0,-1
127 1454 m 257,20,-1
 127 982 l 257,21,22
 129 897 129 897 146 883 c 257,23,24
 469 1207 469 1207 481 1207 c 257,25,26
 534 1229 534 1229 577 1229 c 257,27,28
 675 1229 675 1229 765 1117 c 257,29,-1
 1004 881 l 257,30,31
 1024 912 1024 912 1024 987 c 257,32,-1
 1024 1449 l 257,33,34
 1024 1613 1024 1613 883 1660 c 257,35,36
 855 1665 855 1665 833 1665 c 257,37,-1
 318 1665 l 257,38,39
 193 1665 193 1665 138 1536 c 257,40,41
 127 1508 127 1508 127 1454 c 257,20,-1
799 1539 m 257,42,43
 895 1527 895 1527 895 1446 c 257,44,45
 897 1446 897 1446 897 1443 c 257,46,47
 881 1345 881 1345 799 1345 c 257,48,49
 703 1361 703 1361 703 1440 c 257,50,-1
 703 1443 l 257,51,52
 717 1539 717 1539 799 1539 c 257,42,43
239 788 m 257,53,54
 273 771 273 771 318 771 c 257,55,-1
 833 771 l 257,56,57
 899 774 899 774 911 791 c 257,58,59
 607 1094 607 1094 602 1094 c 257,60,61
 589 1100 589 1100 574 1100 c 257,62,63
 539 1100 539 1100 487 1035 c 257,64,65
 240 792 240 792 239 788 c 257,53,54
EndSplineSet
Validated: 1
EndChar

StartChar: uE06F
Encoding: 112 57455 112
GlifName: uE_06F_
Width: 2048
VWidth: 0
Flags: W
LayerCount: 2
Fore
SplineSet
704 1664 m 257,0,1
 678 1664 678 1664 659 1683 c 128,-1,2
 640 1702 640 1702 640 1728 c 128,-1,3
 640 1754 640 1754 659 1773 c 128,-1,4
 678 1792 678 1792 704 1792 c 257,5,-1
 1856 1792 l 257,6,7
 1882 1792 1882 1792 1901 1773 c 128,-1,8
 1920 1754 1920 1754 1920 1728 c 128,-1,9
 1920 1702 1920 1702 1901 1683 c 128,-1,10
 1882 1664 1882 1664 1856 1664 c 257,11,-1
 704 1664 l 257,0,1
704 1280 m 257,12,13
 678 1280 678 1280 659 1299 c 128,-1,14
 640 1318 640 1318 640 1344 c 128,-1,15
 640 1370 640 1370 659 1389 c 128,-1,16
 678 1408 678 1408 704 1408 c 257,17,-1
 1856 1408 l 257,18,19
 1882 1408 1882 1408 1901 1389 c 128,-1,20
 1920 1370 1920 1370 1920 1344 c 128,-1,21
 1920 1318 1920 1318 1901 1299 c 128,-1,22
 1882 1280 1882 1280 1856 1280 c 257,23,-1
 704 1280 l 257,12,13
704 640 m 257,24,25
 678 640 678 640 659 659 c 128,-1,26
 640 678 640 678 640 704 c 128,-1,27
 640 730 640 730 659 749 c 128,-1,28
 678 768 678 768 704 768 c 257,29,-1
 1856 768 l 257,30,31
 1882 768 1882 768 1901 749 c 128,-1,32
 1920 730 1920 730 1920 704 c 128,-1,33
 1920 678 1920 678 1901 659 c 128,-1,34
 1882 640 1882 640 1856 640 c 257,35,-1
 704 640 l 257,24,25
704 256 m 257,36,37
 678 256 678 256 659 275 c 128,-1,38
 640 294 640 294 640 320 c 128,-1,39
 640 346 640 346 659 365 c 128,-1,40
 678 384 678 384 704 384 c 257,41,-1
 1856 384 l 257,42,43
 1882 384 1882 384 1901 365 c 128,-1,44
 1920 346 1920 346 1920 320 c 128,-1,45
 1920 294 1920 294 1901 275 c 128,-1,46
 1882 256 1882 256 1856 256 c 257,47,-1
 704 256 l 257,36,37
EndSplineSet
Validated: 1
EndChar

StartChar: uE070
Encoding: 113 57456 113
GlifName: uE_070
Width: 2048
VWidth: 0
Flags: W
LayerCount: 2
Fore
SplineSet
320 1152 m 257,0,1
 281 1152 281 1152 246 1167 c 128,-1,2
 211 1182 211 1182 185 1209 c 128,-1,3
 159 1236 159 1236 143 1270 c 0,4,5
 127.941176471 1302 127.941176471 1302 127.941176471 1339.31487889 c 0,6,7
 127.941176471 1341.64705882 127.941176471 1341.64705882 128 1344 c 257,8,-1
 128 1728 l 257,9,10
 128 1767 128 1767 143 1802 c 128,-1,11
 158 1837 158 1837 185 1863 c 128,-1,12
 212 1889 212 1889 246 1905 c 0,13,14
 278 1920.05882353 278 1920.05882353 315.314878893 1920.05882353 c 0,15,16
 317.647058824 1920.05882353 317.647058824 1920.05882353 320 1920 c 257,17,-1
 448 1920 l 257,18,19
 474 1920 474 1920 493 1901 c 128,-1,20
 512 1882 512 1882 512 1856 c 257,21,22
 512 1835 512 1835 504 1822 c 128,-1,23
 496 1809 496 1809 484 1802 c 128,-1,24
 472 1795 472 1795 452 1793 c 128,-1,25
 432 1791 432 1791 416 1791 c 128,-1,26
 400 1791 400 1791 384 1792 c 128,-1,27
 368 1793 368 1793 352 1793 c 257,28,29
 332 1793 332 1793 315 1791 c 128,-1,30
 298 1789 298 1789 284 1782 c 128,-1,31
 270 1775 270 1775 264 1762 c 128,-1,32
 258 1749 258 1749 256 1728 c 257,33,-1
 256 1344 l 257,34,35
 256 1323 256 1323 264 1310 c 128,-1,36
 272 1297 272 1297 284 1290 c 128,-1,37
 296 1283 296 1283 315 1281 c 128,-1,38
 334 1279 334 1279 352 1279 c 257,39,40
 368 1279 368 1279 384 1280 c 128,-1,41
 400 1281 400 1281 416 1281 c 257,42,43
 435 1281 435 1281 452 1279 c 128,-1,44
 469 1277 469 1277 484 1270 c 128,-1,45
 499 1263 499 1263 504 1250 c 128,-1,46
 509 1237 509 1237 512 1216 c 257,47,48
 512 1190 512 1190 493 1171 c 128,-1,49
 474 1152 474 1152 448 1152 c 257,50,-1
 320 1152 l 257,0,1
320 128 m 257,51,52
 281 128 281 128 246 143 c 128,-1,53
 211 158 211 158 185 185 c 128,-1,54
 159 212 159 212 143 246 c 0,55,56
 127.941176471 278 127.941176471 278 127.941176471 315.314878893 c 0,57,58
 127.941176471 317.647058824 127.941176471 317.647058824 128 320 c 257,59,-1
 128 704 l 257,60,61
 128 743 128 743 143 778 c 128,-1,62
 158 813 158 813 185 839 c 128,-1,63
 212 865 212 865 246 881 c 0,64,65
 278 896.058823529 278 896.058823529 315.314878893 896.058823529 c 0,66,67
 317.647058824 896.058823529 317.647058824 896.058823529 320 896 c 257,68,-1
 448 896 l 257,69,70
 474 896 474 896 493 877 c 128,-1,71
 512 858 512 858 512 832 c 257,72,73
 512 811 512 811 504 798 c 128,-1,74
 496 785 496 785 484 778 c 128,-1,75
 472 771 472 771 452 769 c 128,-1,76
 432 767 432 767 416 767 c 128,-1,77
 400 767 400 767 384 768 c 128,-1,78
 368 769 368 769 352 769 c 257,79,80
 332 769 332 769 315 767 c 128,-1,81
 298 765 298 765 284 758 c 128,-1,82
 270 751 270 751 264 738 c 128,-1,83
 258 725 258 725 256 704 c 257,84,-1
 256 320 l 257,85,86
 256 299 256 299 264 286 c 128,-1,87
 272 273 272 273 284 266 c 128,-1,88
 296 259 296 259 315 257 c 128,-1,89
 334 255 334 255 352 255 c 257,90,91
 368 255 368 255 384 256 c 128,-1,92
 400 257 400 257 416 257 c 257,93,94
 435 257 435 257 452 255 c 128,-1,95
 469 253 469 253 484 246 c 128,-1,96
 499 239 499 239 504 226 c 128,-1,97
 509 213 509 213 512 192 c 257,98,99
 512 166 512 166 493 147 c 128,-1,100
 474 128 474 128 448 128 c 257,101,-1
 320 128 l 257,51,52
EndSplineSet
Validated: 1
EndChar

